{
.appVersion = "902";
copyright = "Copyright 2014 The Heebo Project Authors.";
customParameters = (
{
name = license;
value = "This Font Software is licensed under the SIL Open Font License, Version 1.1. This license is copied below, and is also available with a FAQ at: http://scripts.sil.org/OFL";
},
{
name = licenseURL;
value = "http://scripts.sil.org/OFL";
},
{
name = fsType;
value = (
);
}
);
date = "2016-03-30 11:22:10 +0000";
designer = "Oded Ezer";
designerURL = HebrewTypography.com;
familyName = Heebo;
fontMaster = (
{
alignmentZones = (
"{2146, 16}",
"{1456, 21}",
"{1157, 31}",
"{0, -21}",
"{-555, -31}"
);
ascender = 2146;
capHeight = 1456;
customParameters = (
{
name = typoAscender;
value = 2146;
},
{
name = typoDescender;
value = -862;
},
{
name = typoLineGap;
value = 0;
},
{
name = hheaAscender;
value = 2146;
},
{
name = hheaDescender;
value = -862;
},
{
name = hheaLineGap;
value = 0;
},
{
name = winAscent;
value = 2146;
},
{
name = winDescent;
value = 862;
},
{
name = underlineThickness;
value = 100;
},
{
name = underlinePosition;
value = -150;
}
);
descender = -555;
guideLines = (
{
position = "{0, 2418}";
},
{
position = "{0, 2418}";
},
{
position = "{0, 2128}";
},
{
position = "{0, 1991}";
},
{
position = "{0, 2208}";
},
{
position = "{0, 1592}";
},
{
position = "{0, 2224}";
},
{
position = "{0, -416}";
},
{
locked = 1;
position = "{12, 603}";
},
{
position = "{0, 2184}";
}
);
horizontalStems = (
164
);
id = "445B0B85-2678-4800-8A4D-B1A9856CF63B";
verticalStems = (
196
);
weight = Light;
xHeight = 1157;
},
{
alignmentZones = (
"{2146, 16}",
"{1456, 21}",
"{1180, 31}",
"{0, -21}",
"{-555, -31}"
);
ascender = 2146;
capHeight = 1456;
customParameters = (
{
name = typoAscender;
value = 2146;
},
{
name = typoDescender;
value = -862;
},
{
name = typoLineGap;
value = 0;
},
{
name = hheaAscender;
value = 2146;
},
{
name = hheaDescender;
value = -862;
},
{
name = hheaLineGap;
value = 0;
},
{
name = winAscent;
value = 2146;
},
{
name = winDescent;

glyphs = (
{
glyphname = A;
lastChange = "2016-01-03 23:25:58 +0000";
layers = (
{
anchors = (
{
name = bottom;
position = "{638, 0}";
},
{
name = bottom_dd;
position = "{1223, -407}";
},
{
name = ogonek;
position = "{1189, 0}";
},
{
name = right;
position = "{1189, 0}";
},
{
name = tonos;
position = "{281, 1454}";
},
{
name = top;
position = "{612, 1612}";
},
{
name = top0315;
position = "{1223, 1612}";
},
{
name = top_dd;
position = "{1223, 1600}";
}
);
guideLines = (
{
position = "{0, 901}";
},
{
position = "{0, 555}";
}
);
layerId = "445B0B85-2678-4800-8A4D-B1A9856CF63B";
paths = (
{
closed = 1;
nodes = (
"618 1410 LINE",
"630 1456 LINE",
"578 1456 LINE",
"33 0 LINE",
"92 0 LINE"
);
},
{
closed = 1;
nodes = (
"1130 0 LINE",
"1189 0 LINE",
"644 1456 LINE",
"593 1456 LINE",
"604 1410 LINE"
);
},
{
closed = 1;
nodes = (
"976 489 LINE",
"247 489 LINE",
"247 435 LINE",
"976 435 LINE"
);
}
);
width = 1223;
},
{
anchors = (
{
name = bottom;
position = "{691, 0}";
},
{
name = bottom_dd;
position = "{1349, -407}";
},
{
name = ogonek;
position = "{1281, 0}";
},
{
name = right;
position = "{1319, 0}";
},
{
name = tonos;
position = "{370, 1454}";
},
{
name = top;
position = "{679, 1600}";
},
{
name = top0315;
position = "{1349, 1600}";
},
{
name = top_dd;
position = "{1349, 1600}";
}
);
guideLines = (
{
position = "{0, 901}";
},
{
position = "{0, 555}";
}
);
layerId = "3A1161A8-2FC1-4350-92D1-D5E808DF9456";
paths = (
{
closed = 1;
nodes = (
"718 1320 LINE",
"720 1456 LINE",
"585 1456 LINE",
"28 0 LINE",
"241 0 LINE"
);
},
{
closed = 1;
nodes = (
"1110 0 LINE",
"1323 0 LINE",
"765 1456 LINE",
"630 1456 LINE",
"632 1320 LINE"
);
},
{
closed = 1;
nodes = (
"1099 543 LINE",
"271 543 LINE",
"271 376 LINE",
"1099 376 LINE"
);
}
);
width = 1349;
},
{
anchors = (
{
name = bottom;
position = "{701, 9}";
},
{
name = bottom_dd;
position = "{1390, -407}";
},
{
name = ogonek;
position = "{1291, 0}";
},
{
name = right;
position = "{1391, 0}";
},
{
name = tonos;
position = "{325, 1454}";
},
{
name = top;
position = "{697, 1600}";
},
{
name = top0315;
position = "{1390, 1600}";
},
{
name = top_dd;
position = "{1390, 1600}";
}
);
guideLines = (
{
position = "{0, 1378}";
},
{
angle = 90;
position = "{1322, 0}";
}
);
layerId = "0FAE9C79-C14E-4D62-87C8-5A68E12B9849";
paths = (
{
closed = 1;
nodes = (
"727 1150 LINE",
"764 1456 LINE",
"537 1456 LINE",
"0 0 LINE",
"358 0 LINE"
);
},
{
closed = 1;
nodes = (
"1032 0 LINE",
"1391 0 LINE",
"851 1456 LINE",
"621 1456 LINE",
"662 1150 LINE"
);
},
{
closed = 1;
nodes = (
"1018 543 LINE",
"262 543 LINE",
"262 272 LINE",
"1018 272 LINE"
);
}
);
width = 1390;
}
);
unicode = 0041;
userData = {
com.typemytype.robofont.guides = (
{
angle = 0;
isGlobal = 0;
magnetic = 5;
x = 0;
y = 901;
},
{
angle = 0;
isGlobal = 0;
magnetic = 5;
x = 0;
y = 555;
}
);
};
},
{
glyphname = AE;
lastChange = "2016-01-02 15:30:31 +0000";
layers = (
{
anchors = (
{
name = top;
position = "{971, 1612}";
},
{
name = top0315;
position = "{1816, 1612}";
},
{
name = top_dd;
position = "{1816, 1600}";
}
);
layerId = "445B0B85-2678-4800-8A4D-B1A9856CF63B";
paths = (
{
closed = 1;
nodes = (
"963 1408 LINE",
"980 1456 LINE",
"931 1456 LINE",
"50 0 LINE",
"115 0 LINE"
);
},
{
closed = 1;
nodes = (
"1003 478 LINE",
"354 478 LINE",
"354 425 LINE",
"1003 425 LINE"
);
},
{
closed = 1;
nodes = (
"1768 54 LINE",
"1035 54 LINE",
"1035 0 LINE",
"1768 0 LINE"
);
},
{
closed = 1;
nodes = (
"1009 1456 LINE",
"955 1456 LINE",
"1016 0 LINE",
"1070 0 LINE"
);
},
{
closed = 1;
nodes = (
"1625 786 LINE",
"995 786 LINE",
"995 732 LINE",
"1625 732 LINE"
);
},
{
closed = 1;
nodes = (
"1707 1456 LINE",
"974 1456 LINE",
"974 1402 LINE",
"1707 1402 LINE"
);
}
);
width = 1816;
},
{
anchors = (
{
name = top;
position = "{935, 1612}";
},
{
name = top0315;
position = "{1925, 1612}";
},
{
name = top_dd;
position = "{1925, 1600}";
}
);
layerId = "3A1161A8-2FC1-4350-92D1-D5E808DF9456";
paths = (
{
closed = 1;
nodes = (
"971 1298 LINE",
"986 1456 LINE",
"859 1456 LINE",
"-22 0 LINE",
"223 0 LINE"
);
},
{
closed = 1;
nodes = (
"1127 532 LINE",
"374 532 LINE",
"374 347 LINE",
"1127 347 LINE"
);
},
{
closed = 1;
nodes = (
"1892 160 LINE",
"1159 160 LINE",
"1159 0 LINE",
"1892 0 LINE"
);
},
{
closed = 1;
nodes = (
"1133 1456 LINE",
"933 1456 LINE",
"994 0 LINE",
"1194 0 LINE"
);
},
{
closed = 1;
nodes = (
"1749 838 LINE",
"1119 838 LINE",
"1119 678 LINE",
"1749 678 LINE"
);
},
{
closed = 1;
nodes = (
"1830 1456 LINE",
"1098 1456 LINE",
"1098 1296 LINE",
"1830 1296 LINE"
);
}
);
width = 1925;
},
{
anchors = (
{
name = top;
position = "{934, 1612}";
},
{
name = top0315;
position = "{1926, 1612}";
},
{
name = top_dd;
position = "{1926, 1600}";
}
);
layerId = "0FAE9C79-C14E-4D62-87C8-5A68E12B9849";
paths = (
{
closed = 1;
nodes = (
"1003 1298 LINE",
"966 1456 LINE",
"763 1456 LINE",
"12 0 LINE",
"386 0 LINE"
);
},
{
closed = 1;
nodes = (
"1091 599 LINE",
"339 599 LINE",
"339 329 LINE",
"1091 329 LINE"
);
},
{
closed = 1;
nodes = (
"1856 264 LINE",
"1124 264 LINE",
"1124 0 LINE",
"1856 0 LINE"
);
},
{
closed = 1;
nodes = (
"1220 1456 LINE",
"898 1456 LINE",
"959 0 LINE",
"1281 0 LINE"
);
},
{
closed = 1;
nodes = (
"1714 876 LINE",
"1083 876 LINE",
"1083 612 LINE",
"1714 612 LINE"
);
},
{
closed = 1;
nodes = (
"1795 1456 LINE",
"1063 1456 LINE",
"1063 1192 LINE",
"1795 1192 LINE"
);
}
);
width = 1926;
}
);
unicode = 00C6;
},
{
glyphname = B;
lastChange = "2016-01-02 15:30:31 +0000";
layers = (
{
anchors = (
{
name = bottom;
position = "{560, 10}";
},
{
name = bottom_dd;
position = "{1235, -407}";
},
{
name = top;
position = "{560, 1612}";
},
{
name = top0315;
position = "{1235, 1612}";
},
{
name = top_dd;
position = "{1235, 1600}";
}
);
guideLines = (
{
position = "{0, 901}";
},
{
position = "{0, 555}";
}
);
layerId = "445B0B85-2678-4800-8A4D-B1A9856CF63B";
paths = (
{
closed = 1;
nodes = (
"685 719 LINE",
"770 749 LINE",
"957 768 OFFCURVE",
"1059 903 OFFCURVE",
"1059 1083 CURVE",
"1059 1340 OFFCURVE",
"877 1456 OFFCURVE",
"583 1456 CURVE",
"200 1456 LINE",
"200 0 LINE",
"254 0 LINE",
"254 1402 LINE",
"583 1402 LINE",
"860 1402 OFFCURVE",
"1004 1296 OFFCURVE",
"1004 1087 CURVE",
"1004 874 OFFCURVE",
"867 773 OFFCURVE",
"603 773 CURVE",
"231 773 LINE",
"233 719 LINE"
);
},
{
closed = 1;
nodes = (
"675 0 LINE",
"940 0 OFFCURVE",
"1125 142 OFFCURVE",
"1125 401 CURVE SMOOTH",
"1125 579 OFFCURVE",
"984 732 OFFCURVE",
"800 754 CURVE",
"796 773 LINE",
"451 773 LINE",
"449 719 LINE",
"685 719 LINE SMOOTH",
"943 719 OFFCURVE",
"1071 566 OFFCURVE",
"1071 399 CURVE SMOOTH",
"1071 182 OFFCURVE",
"920 54 OFFCURVE",
"675 54 CURVE SMOOTH",
"248 54 LINE",
"231 0 LINE"
);
}
);
width = 1235;
},
{
anchors = (
{
name = bottom;
position = "{619, 10}";
},
{
name = bottom_dd;
position = "{1280, -407}";
},
{
name = top;
position = "{611, 1612}";
},
{
name = top0315;
position = "{1280, 1612}";
},
{
name = top_dd;
position = "{1280, 1600}";
}
);
layerId = "3A1161A8-2FC1-4350-92D1-D5E808DF9456";
paths = (
{
closed = 1;
nodes = (
"688 678 LINE",
"755 726 LINE",
"976 752 OFFCURVE",
"1128 887 OFFCURVE",
"1128 1067 CURVE",
"1128 1339 OFFCURVE",
"951 1456 OFFCURVE",
"653 1456 CURVE",
"166 1456 LINE",
"166 0 LINE",
"374 0 LINE",
"374 1289 LINE",
"653 1289 LINE",
"834 1289 OFFCURVE",
"920 1224 OFFCURVE",
"920 1068 CURVE",
"920 927 OFFCURVE",
"812 841 OFFCURVE",
"657 841 CURVE",
"327 841 LINE",
"329 678 LINE"
);
},
{
closed = 1;
nodes = (
"679 0 LINE",
"973 0 OFFCURVE",
"1164 148 OFFCURVE",
"1164 422 CURVE SMOOTH",
"1164 610 OFFCURVE",
"1048 764 OFFCURVE",
"835 782 CURVE",
"790 841 LINE",
"411 841 LINE",
"409 678 LINE",
"688 678 LINE SMOOTH",
"877 678 OFFCURVE",
"956 581 OFFCURVE",
"956 420 CURVE SMOOTH",
"956 265 OFFCURVE",
"855 166 OFFCURVE",
"679 166 CURVE SMOOTH",
"364 166 LINE",
"244 0 LINE"
);
}
);
width = 1280;
},
{
anchors = (
{
name = bottom;
position = "{595, 10}";
},
{
name = bottom_dd;
position = "{1317, -407}";
},
{
name = top;
position = "{596, 1612}";
},
{
name = top0315;
position = "{1317, 1612}";
},
{
name = top_dd;
position = "{1317, 1600}";
}
);
guideLines = (
{
position = "{0, 901}";
},
{
position = "{0, 555}";
},
{
position = "{0, 1058}";
}
);
layerId = "0FAE9C79-C14E-4D62-87C8-5A68E12B9849";
paths = (
{
closed = 1;
nodes = (
"703 619 LINE",
"797 710 LINE",
"1092 713 OFFCURVE",
"1199 875 OFFCURVE",
"1199 1054 CURVE",
"1199 1326 OFFCURVE",
"988 1456 OFFCURVE",
"636 1456 CURVE",
"117 1456 LINE",
"117 0 LINE",
"452 0 LINE",
"452 1185 LINE",
"636 1185 LINE",
"795 1185 OFFCURVE",
"864 1135 OFFCURVE",
"864 1012 CURVE",
"864 904 OFFCURVE",
"797 849 OFFCURVE",
"635 849 CURVE",
"328 849 LINE",
"330 619 LINE"
);
},
{
closed = 1;
nodes = (
"690 0 LINE",
"1042 0 OFFCURVE",
"1230 145 OFFCURVE",
"1230 431 CURVE SMOOTH",
"1230 598 OFFCURVE",
"1129 769 OFFCURVE",
"846 757 CURVE",
"768 849 LINE",
"412 849 LINE",
"410 619 LINE",
"703 619 LINE SMOOTH",
"842 619 OFFCURVE",
"896 548 OFFCURVE",
"896 436 CURVE SMOOTH",
"896 344 OFFCURVE",
"836 270 OFFCURVE",
"690 270 CURVE SMOOTH",
"365 270 LINE",
"245 0 LINE"
);
}
);
width = 1317;
}
);
unicode = 0042;
userData = {
com.typemytype.robofont.guides = (
{
angle = 0;
isGlobal = 0;
magnetic = 5;
x = 0;
y = 901;
},
{
angle = 0;
isGlobal = 0;
magnetic = 5;
x = 0;
y = 555;
}
);
};
},
{
glyphname = C;
lastChange = "2016-01-02 15:30:31 +0000";
layers = (
{
anchors = (
{
name = bottom;
position = "{678, -10}";
},
{
name = bottom_dd;
position = "{1327, -407}";
},
{
name = top;
position = "{678, 1633}";
},
{
name = top0315;
position = "{1327, 1633}";
},
{
name = top_dd;
position = "{1327, 1600}";
}
);
guideLines = (
{
position = "{0, 901}";
},
{
position = "{0, 555}";
},
{
angle = 90;
position = "{920, 0}";
}
);
layerId = "445B0B85-2678-4800-8A4D-B1A9856CF63B";
paths = (
{
closed = 1;
nodes = (
"1136 446 LINE",
"1106 161 OFFCURVE",
"941 34 OFFCURVE",
"671 34 CURVE SMOOTH",
"388 34 OFFCURVE",
"198 266 OFFCURVE",
"198 619 CURVE SMOOTH",
"198 839 LINE SMOOTH",
"198 1190 OFFCURVE",
"388 1422 OFFCURVE",
"671 1422 CURVE SMOOTH",
"947 1422 OFFCURVE",
"1106 1279 OFFCURVE",
"1136 1012 CURVE",
"1190 1012 LINE",
"1160 1323 OFFCURVE",
"963 1476 OFFCURVE",
"671 1476 CURVE SMOOTH",
"351 1476 OFFCURVE",
"144 1217 OFFCURVE",
"144 837 CURVE",
"144 619 LINE",
"144 239 OFFCURVE",
"351 -20 OFFCURVE",
"671 -20 CURVE SMOOTH",
"963 -20 OFFCURVE",
"1160 131 OFFCURVE",
"1190 446 CURVE"
);
}
);
width = 1327;
},
{
anchors = (
{
name = bottom;
position = "{680, -10}";
},
{
name = bottom_dd;
position = "{1334, -407}";
},
{
name = top;
position = "{680, 1633}";
},
{
name = top0315;
position = "{1334, 1633}";
},
{
name = top_dd;
position = "{1334, 1600}";
}
);
guideLines = (
{
position = "{0, 901}";
},
{
position = "{0, 555}";
}
);
layerId = "3A1161A8-2FC1-4350-92D1-D5E808DF9456";
paths = (
{
closed = 1;
nodes = (
"1038 464 LINE",
"1005 266 OFFCURVE",
"933 146 OFFCURVE",
"690 146 CURVE SMOOTH",
"434 146 OFFCURVE",
"325 378 OFFCURVE",
"325 658 CURVE SMOOTH",
"325 799 LINE SMOOTH",
"325 1104 OFFCURVE",
"454 1309 OFFCURVE",
"709 1309 CURVE SMOOTH",
"928 1309 OFFCURVE",
"1009 1184 OFFCURVE",
"1038 987 CURVE",
"1246 987 LINE",
"1216 1272 OFFCURVE",
"1043 1476 OFFCURVE",
"709 1476 CURVE SMOOTH",
"344 1476 OFFCURVE",
"117 1207 OFFCURVE",
"117 797 CURVE",
"117 658 LINE",
"117 248 OFFCURVE",
"345 -20 OFFCURVE",
"690 -20 CURVE SMOOTH",
"1046 -20 OFFCURVE",
"1215 192 OFFCURVE",
"1246 464 CURVE"
);
}
);
width = 1334;
},
{
anchors = (
{
name = bottom;
position = "{687, 0}";
},
{
name = bottom_dd;
position = "{1343, -407}";
},
{
name = top;
position = "{691, 1600}";
},
{
name = top0315;
position = "{1343, 1600}";
},
{
name = top_dd;
position = "{1343, 1600}";
}
);
guideLines = (
{
position = "{0, 901}";
},
{
position = "{0, 555}";
},
{
position = "{0, 1202}";
}
);
layerId = "0FAE9C79-C14E-4D62-87C8-5A68E12B9849";
paths = (
{
closed = 1;
nodes = (
"950 493 LINE",
"942 329 OFFCURVE",
"856 255 OFFCURVE",
"687 255 CURVE SMOOTH",
"489 255 OFFCURVE",
"415 379 OFFCURVE",
"415 688 CURVE SMOOTH",
"415 769 LINE SMOOTH",
"415 1079 OFFCURVE",
"503 1202 OFFCURVE",
"685 1202 CURVE SMOOTH",
"875 1202 OFFCURVE",
"944 1117 OFFCURVE",
"952 953 CURVE",
"1286 953 LINE",
"1259 1255 OFFCURVE",
"1060 1477 OFFCURVE",
"685 1477 CURVE SMOOTH",
"316 1477 OFFCURVE",
"75 1205 OFFCURVE",
"75 767 CURVE",
"75 688 LINE",
"75 250 OFFCURVE",
"303 -20 OFFCURVE",
"687 -20 CURVE SMOOTH",
"1046 -20 OFFCURVE",
"1268 188 OFFCURVE",
"1284 493 CURVE"
);
}
);
width = 1343;
}
);
unicode = 0043;
userData = {
com.typemytype.robofont.guides = (
{
angle = 0;
isGlobal = 0;
magnetic = 5;
x = 0;
y = 901;
},
{
angle = 0;
isGlobal = 0;
magnetic = 5;
x = 0;
y = 555;
},
{
angle = 90;
isGlobal = 0;
magnetic = 5;
x = 920;
y = 0;
}
);
};
},
{
glyphname = D;
lastChange = "2016-01-02 15:30:31 +0000";
layers = (
{
anchors = (
{
name = bottom;
position = "{590, 10}";
},
{
name = bottom_dd;
position = "{1340, -407}";
},
{
name = cross;
position = "{359, 738}";
},
{
name = top;
position = "{590, 1612}";
},
{
name = top0315;
position = "{1340, 1612}";
},
{
name = top_dd;
position = "{1340, 1600}";
}
);
guideLines = (
{
position = "{0, 901}";
},
{
position = "{0, 555}";
}
);
layerId = "445B0B85-2678-4800-8A4D-B1A9856CF63B";
paths = (
{
closed = 1;
nodes = (
"603 0 LINE",
"947 0 OFFCURVE",
"1204 260 OFFCURVE",
"1204 639 CURVE",
"1204 817 LINE",
"1204 1196 OFFCURVE",
"947 1456 OFFCURVE",
"603 1456 CURVE",
"242 1456 LINE",
"242 1402 LINE",
"603 1402 LINE",
"916 1402 OFFCURVE",
"1150 1159 OFFCURVE",
"1150 820 CURVE",
"1150 639 LINE SMOOTH",
"1150 297 OFFCURVE",
"916 54 OFFCURVE",
"603 54 CURVE",
"250 54 LINE",
"248 0 LINE"
);
},
{
closed = 1;
nodes = (
"254 1456 LINE",
"200 1456 LINE",
"200 0 LINE",
"254 0 LINE"
);
}
);
width = 1340;
},
{
anchors = (
{
name = bottom;
position = "{615, 10}";
},
{
name = bottom_dd;
position = "{1344, -407}";
},
{
name = cross;
position = "{318, 738}";
},
{
name = top;
position = "{611, 1612}";
},
{
name = top0315;
position = "{1344, 1612}";
},
{
name = top_dd;
position = "{1344, 1600}";
}
);
guideLines = (
{
position = "{0, 901}";
},
{
position = "{0, 555}";
}
);
layerId = "3A1161A8-2FC1-4350-92D1-D5E808DF9456";
paths = (
{
closed = 1;
nodes = (
"559 0 LINE",
"969 0 OFFCURVE",
"1225 263 OFFCURVE",
"1225 688 CURVE",
"1225 767 LINE",
"1225 1192 OFFCURVE",
"965 1456 OFFCURVE",
"578 1456 CURVE",
"254 1456 LINE",
"254 1289 LINE",
"578 1289 LINE",
"863 1289 OFFCURVE",
"1019 1102 OFFCURVE",
"1019 769 CURVE",
"1019 688 LINE SMOOTH",
"1019 371 OFFCURVE",
"869 166 OFFCURVE",
"559 166 CURVE",
"262 166 LINE",
"260 0 LINE"
);
},
{
closed = 1;
nodes = (
"374 1456 LINE",
"166 1456 LINE",
"166 0 LINE",
"374 0 LINE"
);
}
);
width = 1344;
},
{
anchors = (
{
name = bottom;
position = "{496, 10}";
},
{
name = bottom_dd;
position = "{1327, -407}";
},
{
name = cross;
position = "{327, 726}";
},
{
name = top;
position = "{496, 1600}";
},
{
name = top0315;
position = "{1327, 1600}";
},
{
name = top_dd;
position = "{1327, 1600}";
}
);
guideLines = (
{
position = "{0, 901}";
},
{
position = "{0, 555}";
},
{
position = "{0, 1127}";
}
);
layerId = "0FAE9C79-C14E-4D62-87C8-5A68E12B9849";
paths = (
{
closed = 1;
nodes = (
"581 0 LINE",
"973 0 OFFCURVE",
"1251 285 OFFCURVE",
"1251 697 CURVE",
"1251 758 LINE",
"1251 1170 OFFCURVE",
"973 1456 OFFCURVE",
"579 1456 CURVE",
"255 1456 LINE",
"255 1185 LINE",
"579 1185 LINE",
"794 1185 OFFCURVE",
"910 1039 OFFCURVE",
"910 760 CURVE",
"910 697 LINE SMOOTH",
"910 416 OFFCURVE",
"793 270 OFFCURVE",
"581 270 CURVE",
"263 270 LINE",
"261 0 LINE"
);
},
{
closed = 1;
nodes = (
"452 1456 LINE",
"117 1456 LINE",
"117 0 LINE",
"452 0 LINE"
);
}
);
width = 1327;
}
);
unicode = 0044;
userData = {
com.typemytype.robofont.guides = (
{
angle = 0;
isGlobal = 0;
magnetic = 5;
x = 0;
y = 901;
},
{
angle = 0;
isGlobal = 0;
magnetic = 5;
x = 0;
y = 555;
}
);
};
},
{
glyphname = E;
lastChange = "2016-01-02 15:30:31 +0000";
layers = (
{
anchors = (
{
name = bottom;
position = "{619, 10}";
},
{
name = bottom_dd;
position = "{1166, -407}";
},
{
name = ogonek;
position = "{1027, 0}";
},
{
name = tonos;
position = "{-70, 1457}";
},
{
name = top;
position = "{619, 1612}";
},
{
name = top0315;
position = "{1166, 1612}";
},
{
name = top_dd;
position = "{1166, 1600}";
}
);
layerId = "445B0B85-2678-4800-8A4D-B1A9856CF63B";
paths = (
{
closed = 1;
nodes = (
"1086 54 LINE",
"219 54 LINE",
"219 0 LINE",
"1086 0 LINE"
);
},
{
closed = 1;
nodes = (
"254 1456 LINE",
"200 1456 LINE",
"200 0 LINE",
"254 0 LINE"
);
},
{
closed = 1;
nodes = (
"984 776 LINE",
"219 776 LINE",
"219 722 LINE",
"984 722 LINE"
);
},
{
closed = 1;
nodes = (
"1086 1456 LINE",
"219 1456 LINE",
"219 1402 LINE",
"1086 1402 LINE"
);
}
);
width = 1166;
},
{
anchors = (
{
name = bottom;
position = "{619, 10}";
},
{
name = bottom_dd;
position = "{1164, -407}";
},
{
name = ogonek;
position = "{1021, 0}";
},
{
name = tonos;
position = "{-39, 1455}";
},
{
name = top;
position = "{619, 1612}";
},
{
name = top0315;
position = "{1164, 1612}";
},
{
name = top_dd;
position = "{1164, 1600}";
}
);
layerId = "3A1161A8-2FC1-4350-92D1-D5E808DF9456";
paths = (
{
closed = 1;
nodes = (
"1095 166 LINE",
"335 166 LINE",
"335 0 LINE",
"1095 0 LINE"
);
},
{
closed = 1;
nodes = (
"374 1456 LINE",
"166 1456 LINE",
"166 0 LINE",
"374 0 LINE"
);
},
{
closed = 1;
nodes = (
"993 835 LINE",
"335 835 LINE",
"335 669 LINE",
"993 669 LINE"
);
},
{
closed = 1;
nodes = (
"1084 1456 LINE",
"335 1456 LINE",
"335 1289 LINE",
"1084 1289 LINE"
);
}
);
width = 1164;
},
{
anchors = (
{
name = bottom;
position = "{645, 10}";
},
{
name = bottom_dd;
position = "{1148, -407}";
},
{
name = ogonek;
position = "{930, 0}";
},
{
name = tonos;
position = "{-100, 1457}";
},
{
name = top;
position = "{641, 1600}";
},
{
name = top0315;
position = "{1148, 1600}";
},
{
name = top_dd;
position = "{1148, 1600}";
}
);
guideLines = (
{
position = "{0, 988}";
}
);
layerId = "0FAE9C79-C14E-4D62-87C8-5A68E12B9849";
paths = (
{
closed = 1;
nodes = (
"1111 270 LINE",
"337 270 LINE",
"337 0 LINE",
"1111 0 LINE"
);
},
{
closed = 1;
nodes = (
"452 1456 LINE",
"117 1456 LINE",
"117 0 LINE",
"452 0 LINE"
);
},
{
closed = 1;
nodes = (
"1011 878 LINE",
"337 878 LINE",
"337 617 LINE",
"1011 617 LINE"
);
},
{
closed = 1;
nodes = (
"1112 1456 LINE",
"337 1456 LINE",
"337 1185 LINE",
"1112 1185 LINE"
);
}
);
width = 1148;
}
);
unicode = 0045;
},
{
glyphname = F;
lastChange = "2016-01-02 15:30:31 +0000";
layers = (
{
anchors = (
{
name = bottom;
position = "{531, 10}";
},
{
name = bottom_dd;
position = "{1172, -407}";
},
{
name = cross;
position = "{331, 337}";
},
{
name = top;
position = "{619, 1612}";
},
{
name = top0315;
position = "{1172, 1612}";
},
{
name = top_dd;
position = "{1172, 1600}";
}
);
layerId = "445B0B85-2678-4800-8A4D-B1A9856CF63B";
paths = (
{
closed = 1;
nodes = (
"254 1456 LINE",
"200 1456 LINE",
"200 0 LINE",
"254 0 LINE"
);
},
{
closed = 1;
nodes = (
"1000 772 LINE",
"215 772 LINE",
"215 716 LINE",
"1000 716 LINE"
);
},
{
closed = 1;
nodes = (
"1102 1456 LINE",
"215 1456 LINE",
"215 1402 LINE",
"1102 1402 LINE"
);
}
);
width = 1172;
},
{
anchors = (
{
name = bottom;
position = "{531, 10}";
},
{
name = bottom_dd;
position = "{1128, -407}";
},
{
name = cross;
position = "{333, 337}";
},
{
name = top;
position = "{619, 1612}";
},
{
name = top0315;
position = "{1128, 1612}";
},
{
name = top_dd;
position = "{1128, 1600}";
}
);
layerId = "3A1161A8-2FC1-4350-92D1-D5E808DF9456";
paths = (
{
closed = 1;
nodes = (
"374 1456 LINE",
"166 1456 LINE",
"166 0 LINE",
"374 0 LINE"
);
},
{
closed = 1;
nodes = (
"969 803 LINE",
"332 803 LINE",
"332 637 LINE",
"969 637 LINE"
);
},
{
closed = 1;
nodes = (
"1068 1456 LINE",
"332 1456 LINE",
"332 1289 LINE",
"1068 1289 LINE"
);
}
);
width = 1128;
},
{
anchors = (
{
name = bottom;
position = "{531, 10}";
},
{
name = bottom_dd;
position = "{1121, -407}";
},
{
name = cross;
position = "{330, 291}";
},
{
name = top;
position = "{641, 1612}";
},
{
name = top0315;
position = "{1121, 1612}";
},
{
name = top_dd;
position = "{1121, 1600}";
}
);
guideLines = (
{
position = "{0, 960}";
}
);
layerId = "0FAE9C79-C14E-4D62-87C8-5A68E12B9849";
paths = (
{
closed = 1;
nodes = (
"452 1456 LINE",
"117 1456 LINE",
"117 0 LINE",
"452 0 LINE"
);
},
{
closed = 1;
nodes = (
"1021 850 LINE",
"359 850 LINE",
"359 580 LINE",
"1021 580 LINE"
);
},
{
closed = 1;
nodes = (
"1083 1456 LINE",
"359 1456 LINE",
"359 1185 LINE",
"1083 1185 LINE"
);
}
);
width = 1121;
}
);
unicode = 0046;
},
{
glyphname = G;
lastChange = "2016-01-02 15:30:31 +0000";
layers = (
{
anchors = (
{
name = bottom;
position = "{729, 0}";
},
{
name = bottom_dd;
position = "{1406, -407}";
},
{
name = top;
position = "{703, 1633}";
},
{
name = top0315;
position = "{1406, 1633}";
},
{
name = top_dd;
position = "{1406, 1600}";
}
);
guideLines = (
{
position = "{0, 901}";
},
{
position = "{0, 555}";
}
);
layerId = "445B0B85-2678-4800-8A4D-B1A9856CF63B";
paths = (
{
closed = 1;
nodes = (
"1226 660 LINE",
"727 660 LINE",
"727 605 LINE",
"1172 605 LINE",
"1172 181 LINE",
"1127 122 OFFCURVE",
"967 34 OFFCURVE",
"729 34 CURVE SMOOTH",
"421 34 OFFCURVE",
"222 277 OFFCURVE",
"222 620 CURVE SMOOTH",
"222 860 LINE SMOOTH",
"222 1188 OFFCURVE",
"415 1422 OFFCURVE",
"712 1422 CURVE SMOOTH",
"1015 1422 OFFCURVE",
"1140 1252 OFFCURVE",
"1170 1062 CURVE",
"1224 1062 LINE",
"1197 1295 OFFCURVE",
"1027 1476 OFFCURVE",
"712 1476 CURVE SMOOTH",
"391 1476 OFFCURVE",
"168 1225 OFFCURVE",
"168 858 CURVE SMOOTH",
"168 620 LINE SMOOTH",
"168 240 OFFCURVE",
"397 -20 OFFCURVE",
"729 -20 CURVE SMOOTH",
"1013 -20 OFFCURVE",
"1179 90 OFFCURVE",
"1226 156 CURVE"
);
}
);
width = 1406;
},
{
anchors = (
{
name = bottom;
position = "{730, -10}";
},
{
name = bottom_dd;
position = "{1394, -407}";
},
{
name = top;
position = "{668, 1633}";
},
{
name = top0315;
position = "{1394, 1633}";
},
{
name = top_dd;
position = "{1394, 1600}";
}
);
guideLines = (
{
position = "{0, 901}";
},
{
position = "{0, 555}";
}
);
layerId = "3A1161A8-2FC1-4350-92D1-D5E808DF9456";
paths = (
{
closed = 1;
nodes = (
"1247 731 LINE",
"715 731 LINE",
"715 566 LINE",
"1040 566 LINE",
"1040 248 LINE",
"1002 206 OFFCURVE",
"934 146 OFFCURVE",
"731 146 CURVE SMOOTH",
"489 146 OFFCURVE",
"326 341 OFFCURVE",
"326 676 CURVE SMOOTH",
"326 781 LINE SMOOTH",
"326 1108 OFFCURVE",
"440 1309 OFFCURVE",
"708 1309 CURVE SMOOTH",
"922 1309 OFFCURVE",
"1012 1181 OFFCURVE",
"1039 1027 CURVE",
"1247 1027 LINE",
"1209 1287 OFFCURVE",
"1042 1476 OFFCURVE",
"707 1476 CURVE SMOOTH",
"325 1476 OFFCURVE",
"117 1219 OFFCURVE",
"117 779 CURVE SMOOTH",
"117 676 LINE SMOOTH",
"117 236 OFFCURVE",
"373 -20 OFFCURVE",
"730 -20 CURVE SMOOTH",
"1061 -20 OFFCURVE",
"1191 114 OFFCURVE",
"1247 195 CURVE"
);
}
);
width = 1394;
},
{
anchors = (
{
name = bottom;
position = "{726, 0}";
},
{
name = bottom_dd;
position = "{1396, -407}";
},
{
name = top;
position = "{705, 1600}";
},
{
name = top0315;
position = "{1396, 1600}";
},
{
name = top_dd;
position = "{1396, 1600}";
}
);
guideLines = (
{
position = "{0, 901}";
},
{
position = "{0, 555}";
},
{
position = "{0, 1202}";
}
);
layerId = "0FAE9C79-C14E-4D62-87C8-5A68E12B9849";
paths = (
{
closed = 1;
nodes = (
"1296 778 LINE",
"708 778 LINE",
"708 537 LINE",
"961 537 LINE",
"961 311 LINE",
"931 284 OFFCURVE",
"868 250 OFFCURVE",
"746 250 CURVE SMOOTH",
"529 250 OFFCURVE",
"426 396 OFFCURVE",
"426 687 CURVE SMOOTH",
"426 770 LINE SMOOTH",
"426 1063 OFFCURVE",
"535 1207 OFFCURVE",
"715 1207 CURVE SMOOTH",
"883 1207 OFFCURVE",
"951 1125 OFFCURVE",
"972 981 CURVE",
"1295 981 LINE",
"1265 1272 OFFCURVE",
"1098 1477 OFFCURVE",
"704 1477 CURVE SMOOTH",
"340 1477 OFFCURVE",
"86 1221 OFFCURVE",
"86 768 CURVE SMOOTH",
"86 687 LINE SMOOTH",
"86 234 OFFCURVE",
"340 -20 OFFCURVE",
"724 -20 CURVE SMOOTH",
"1040 -20 OFFCURVE",
"1223 98 OFFCURVE",
"1296 180 CURVE"
);
}
);
width = 1396;
}
);
unicode = 0047;
userData = {
com.typemytype.robofont.guides = (
{
angle = 0;
isGlobal = 0;
magnetic = 5;
x = 0;
y = 901;
},
{
angle = 0;
isGlobal = 0;
magnetic = 5;
x = 0;
y = 555;
}
);
};
},
{
glyphname = H;
lastChange = "2016-01-02 15:30:31 +0000";
layers = (
{
anchors = (
{
name = bottom;
position = "{716, 10}";
},
{
name = bottom_dd;
position = "{1438, -407}";
},
{
name = right;
position = "{1238, 0}";
},
{
name = tonos;
position = "{-58, 1457}";
},
{
name = top;
position = "{716, 1612}";
},
{
name = top0315;
position = "{1438, 1612}";
},
{
name = top_dd;
position = "{1438, 1600}";
}
);
layerId = "445B0B85-2678-4800-8A4D-B1A9856CF63B";
paths = (
{
closed = 1;
nodes = (
"1207 776 LINE",
"227 776 LINE",
"227 722 LINE",
"1207 722 LINE"
);
},
{
closed = 1;
nodes = (
"254 1456 LINE",
"200 1456 LINE",
"200 0 LINE",
"254 0 LINE"
);
},
{
closed = 1;
nodes = (
"1238 1456 LINE",
"1184 1456 LINE",
"1184 0 LINE",
"1238 0 LINE"
);
}
);
width = 1438;
},
{
anchors = (
{
name = bottom;
position = "{714, 10}";
},
{
name = bottom_dd;
position = "{1463, -407}";
},
{
name = right;
position = "{1293, 0}";
},
{
name = tonos;
position = "{-25, 1457}";
},
{
name = top;
position = "{712, 1612}";
},
{
name = top0315;
position = "{1463, 1612}";
},
{
name = top_dd;
position = "{1463, 1600}";
}
);
layerId = "3A1161A8-2FC1-4350-92D1-D5E808DF9456";
paths = (
{
closed = 1;
nodes = (
"1110 835 LINE",
"344 835 LINE",
"344 669 LINE",
"1110 669 LINE"
);
},
{
closed = 1;
nodes = (
"374 1456 LINE",
"166 1456 LINE",
"166 0 LINE",
"374 0 LINE"
);
},
{
closed = 1;
nodes = (
"1294 1456 LINE",
"1086 1456 LINE",
"1086 0 LINE",
"1294 0 LINE"
);
}
);
width = 1463;
},
{
anchors = (
{
name = bottom;
position = "{729, 10}";
},
{
name = bottom_dd;
position = "{1442, -407}";
},
{
name = right;
position = "{1322, 0}";
},
{
name = tonos;
position = "{-100, 1451}";
},
{
name = top;
position = "{726, 1600}";
},
{
name = top0315;
position = "{1442, 1600}";
},
{
name = top_dd;
position = "{1442, 1600}";
}
);
guideLines = (
{
position = "{0, 1201}";
}
);
layerId = "0FAE9C79-C14E-4D62-87C8-5A68E12B9849";
paths = (
{
closed = 1;
nodes = (
"1094 878 LINE",
"345 878 LINE",
"345 608 LINE",
"1094 608 LINE"
);
},
{
closed = 1;
nodes = (
"452 1456 LINE",
"117 1456 LINE",
"117 0 LINE",
"452 0 LINE"
);
},
{
closed = 1;
nodes = (
"1324 1456 LINE",
"990 1456 LINE",
"990 0 LINE",
"1324 0 LINE"
);
}
);
width = 1442;
}
);
unicode = 0048;
},
{
glyphname = I;
lastChange = "2016-01-02 15:30:31 +0000";
layers = (
{
anchors = (
{
name = bottom;
position = "{268, 0}";
},
{
name = bottom_dd;
position = "{534, -407}";
},
{
name = ogonek;
position = "{288, 0}";
},
{
name = right;
position = "{294, 0}";
},
{
name = tonos;
position = "{-32, 1451}";
},
{
name = top;
position = "{268, 1612}";
},
{
name = top0315;
position = "{534, 1612}";
},
{
name = top_dd;
position = "{534, 1600}";
}
);
guideLines = (
{
position = "{0, 901}";
},
{
position = "{0, 555}";
}
);
layerId = "445B0B85-2678-4800-8A4D-B1A9856CF63B";
paths = (
{
closed = 1;
nodes = (
"294 1456 LINE",
"240 1456 LINE",
"240 0 LINE",
"294 0 LINE"
);
}
);
width = 534;
},
{
anchors = (
{
name = bottom;
position = "{280, 10}";
},
{
name = bottom_dd;
position = "{560, -407}";
},
{
name = ogonek;
position = "{347, 0}";
},
{
name = right;
position = "{380, 0}";
},
{
name = tonos;
position = "{-21, 1457}";
},
{
name = top;
position = "{280, 1612}";
},
{
name = top0315;
position = "{560, 1612}";
},
{
name = top_dd;
position = "{560, 1600}";
}
);
guideLines = (
{
position = "{0, 901}";
},
{
position = "{0, 555}";
}
);
layerId = "3A1161A8-2FC1-4350-92D1-D5E808DF9456";
paths = (
{
closed = 1;
nodes = (
"385 1456 LINE",
"177 1456 LINE",
"177 0 LINE",
"385 0 LINE"
);
}
);
width = 560;
},
{
anchors = (
{
name = bottom;
position = "{306, 0}";
},
{
name = bottom_dd;
position = "{612, -407}";
},
{
name = ogonek;
position = "{406, 0}";
},
{
name = right;
position = "{465, 0}";
},
{
name = tonos;
position = "{-100, 1457}";
},
{
name = top;
position = "{305, 1600}";
},
{
name = top0315;
position = "{612, 1600}";
},
{
name = top_dd;
position = "{612, 1600}";
}
);
guideLines = (
{
position = "{0, 901}";
},
{
position = "{0, 555}";
},
{
position = "{0, 213}";
}
);
layerId = "0FAE9C79-C14E-4D62-87C8-5A68E12B9849";
paths = (
{
closed = 1;
nodes = (
"473 1456 LINE",
"139 1456 LINE",
"139 0 LINE",
"473 0 LINE"
);
}
);
width = 612;
}
);
unicode = 0049;
userData = {
com.typemytype.robofont.guides = (
{
angle = 0;
isGlobal = 0;
magnetic = 5;
x = 0;
y = 901;
},
{
angle = 0;
isGlobal = 0;
magnetic = 5;
x = 0;
y = 555;
}
);
};
},
{
glyphname = J;
lastChange = "2016-01-02 15:30:31 +0000";
layers = (
{
anchors = (
{
name = bottom;
position = "{512, -10}";
},
{
name = bottom_dd;
position = "{1125, -407}";
},
{
name = top;
position = "{902, 1582}";
},
{
name = top0315;
position = "{1125, 1582}";
},
{
name = top_dd;
position = "{1125, 1600}";
}
);
guideLines = (
{
position = "{0, 901}";
},
{
position = "{0, 555}";
}
);
layerId = "445B0B85-2678-4800-8A4D-B1A9856CF63B";
paths = (
{
closed = 1;
nodes = (
"876 442 LINE",
"876 173 OFFCURVE",
"710 34 OFFCURVE",
"510 34 CURVE SMOOTH",
"267 34 OFFCURVE",
"144 165 OFFCURVE",
"144 401 CURVE",
"90 401 LINE",
"90 116 OFFCURVE",
"253 -20 OFFCURVE",
"510 -20 CURVE SMOOTH",
"747 -20 OFFCURVE",
"930 143 OFFCURVE",
"930 442 CURVE",
"930 1456 LINE",
"876 1456 LINE"
);
}
);
width = 1125;
},
{
anchors = (
{
name = bottom;
position = "{512, -10}";
},
{
name = bottom_dd;
position = "{1131, -407}";
},
{
name = top;
position = "{846, 1601}";
},
{
name = top0315;
position = "{1131, 1601}";
},
{
name = top_dd;
position = "{1131, 1600}";
}
);
guideLines = (
{
position = "{0, 901}";
},
{
position = "{0, 555}";
}
);
layerId = "3A1161A8-2FC1-4350-92D1-D5E808DF9456";
paths = (
{
closed = 1;
nodes = (
"769 424 LINE",
"769 242 OFFCURVE",
"660 146 OFFCURVE",
"513 146 CURVE SMOOTH",
"366 146 OFFCURVE",
"257 224 OFFCURVE",
"257 403 CURVE",
"49 403 LINE",
"49 116 OFFCURVE",
"244 -20 OFFCURVE",
"513 -20 CURVE SMOOTH",
"784 -20 OFFCURVE",
"977 136 OFFCURVE",
"977 424 CURVE",
"977 1456 LINE",
"769 1456 LINE"
);
}
);
width = 1131;
},
{
anchors = (
{
name = bottom;
position = "{512, -10}";
},
{
name = bottom_dd;
position = "{1149, -407}";
},
{
name = top;
position = "{858, 1600}";
},
{
name = top0315;
position = "{1149, 1600}";
},
{
name = top_dd;
position = "{1149, 1600}";
}
);
guideLines = (
{
position = "{0, 901}";
},
{
position = "{0, 555}";
},
{
position = "{0, 988}";
}
);
layerId = "0FAE9C79-C14E-4D62-87C8-5A68E12B9849";
paths = (
{
closed = 1;
nodes = (
"699 457 LINE",
"699 327 OFFCURVE",
"638 250 OFFCURVE",
"536 250 CURVE SMOOTH",
"433 250 OFFCURVE",
"374 292 OFFCURVE",
"374 440 CURVE",
"38 440 LINE",
"38 124 OFFCURVE",
"246 -20 OFFCURVE",
"536 -20 CURVE SMOOTH",
"816 -20 OFFCURVE",
"1033 165 OFFCURVE",
"1033 457 CURVE",
"1033 1456 LINE",
"699 1456 LINE"
);
}
);
width = 1149;
}
);
unicode = 004A;
userData = {
com.typemytype.robofont.guides = (
{
angle = 0;
isGlobal = 0;
magnetic = 5;
x = 0;
y = 901;
},
{
angle = 0;
isGlobal = 0;
magnetic = 5;
x = 0;
y = 555;
}
);
};
},
{
glyphname = K;
lastChange = "2016-01-02 15:30:31 +0000";
layers = (
{
anchors = (
{
name = bottom;
position = "{623, 110}";
},
{
name = bottom_dd;
position = "{1300, -407}";
},
{
name = cross;
position = "{273, 1229}";
},
{
name = right;
position = "{1180, -30}";
},
{
name = top;
position = "{602, 1524}";
},
{
name = top0315;
position = "{1300, 1524}";
},
{
name = top_dd;
position = "{1300, 1600}";
}
);
layerId = "445B0B85-2678-4800-8A4D-B1A9856CF63B";
paths = (
{
closed = 1;
nodes = (
"254 1456 LINE",
"200 1456 LINE",
"200 0 LINE",
"254 0 LINE"
);
},
{
closed = 1;
nodes = (
"1176 1456 LINE",
"1098 1456 LINE",
"492 847 LINE",
"240 601 LINE",
"232 531 LINE",
"525 801 LINE"
);
},
{
closed = 1;
nodes = (
"1156 0 LINE",
"1226 0 LINE",
"503 832 LINE",
"470 785 LINE"
);
}
);
width = 1300;
},
{
anchors = (
{
name = bottom;
position = "{664, 88}";
},
{
name = bottom_dd;
position = "{1283, -407}";
},
{
name = cross;
position = "{276, 1229}";
},
{
name = right;
position = "{1228, 0}";
},
{
name = top;
position = "{605, 1601}";
},
{
name = top0315;
position = "{1283, 1601}";
},
{
name = top_dd;
position = "{1283, 1600}";
}
);
layerId = "3A1161A8-2FC1-4350-92D1-D5E808DF9456";
paths = (
{
closed = 1;
nodes = (
"374 1456 LINE",
"166 1456 LINE",
"166 0 LINE",
"374 0 LINE"
);
},
{
closed = 1;
nodes = (
"1248 1456 LINE",
"999 1456 LINE",
"523 918 LINE",
"267 632 LINE",
"303 415 LINE",
"648 775 LINE"
);
},
{
closed = 1;
nodes = (
"1044 0 LINE",
"1292 0 LINE",
"645 866 LINE",
"521 703 LINE"
);
}
);
width = 1283;
},
{
anchors = (
{
name = bottom;
position = "{648, 53}";
},
{
name = bottom_dd;
position = "{1307, -407}";
},
{
name = cross;
position = "{248, 1225}";
},
{
name = right;
position = "{1198, 0}";
},
{
name = top;
position = "{594, 1600}";
},
{
name = top0315;
position = "{1307, 1600}";
},
{
name = top_dd;
position = "{1307, 1600}";
}
);
guideLines = (
{
position = "{0, 1201}";
}
);
layerId = "0FAE9C79-C14E-4D62-87C8-5A68E12B9849";
paths = (
{
closed = 1;
nodes = (
"452 1456 LINE",
"117 1456 LINE",
"117 0 LINE",
"452 0 LINE"
);
},
{
closed = 1;
nodes = (
"1322 1456 LINE",
"909 1456 LINE",
"577 999 LINE",
"361 679 LINE",
"422 357 LINE",
"754 718 LINE"
);
},
{
closed = 1;
nodes = (
"930 0 LINE",
"1327 0 LINE",
"794 857 LINE",
"538 656 LINE"
);
}
);
width = 1307;
}
);
unicode = 004B;
},
{
glyphname = L;
lastChange = "2016-01-02 15:30:31 +0000";
layers = (
{
anchors = (
{
name = bottom;
position = "{625, 10}";
},
{
name = bottom_dd;
position = "{1057, -407}";
},
{
name = caron;
position = "{568, 1455}";
},
{
name = dot;
position = "{601, 755}";
},
{
name = top;
position = "{232, 1549}";
},
{
name = top0315;
position = "{1057, 1549}";
},
{
name = top_dd;
position = "{1057, 1600}";
}
);
layerId = "445B0B85-2678-4800-8A4D-B1A9856CF63B";
paths = (
{
closed = 1;
nodes = (
"1002 54 LINE",
"220 54 LINE",
"220 0 LINE",
"1002 0 LINE"
);
},
{
closed = 1;
nodes = (
"255 1456 LINE",
"200 1456 LINE",
"200 0 LINE",
"255 0 LINE"
);
}
);
width = 1057;
},
{
anchors = (
{
name = bottom;
position = "{619, 10}";
},
{
name = bottom_dd;
position = "{1108, -407}";
},
{
name = caron;
position = "{608, 1455}";
},
{
name = dot;
position = "{600, 794}";
},
{
name = top;
position = "{267, 1600}";
},
{
name = top0315;
position = "{1108, 1600}";
},
{
name = top_dd;
position = "{1108, 1600}";
}
);
layerId = "3A1161A8-2FC1-4350-92D1-D5E808DF9456";
paths = (
{
closed = 1;
nodes = (
"1058 166 LINE",
"335 166 LINE",
"335 0 LINE",
"1058 0 LINE"
);
},
{
closed = 1;
nodes = (
"374 1456 LINE",
"166 1456 LINE",
"166 0 LINE",
"374 0 LINE"
);
}
);
width = 1108;
},
{
anchors = (
{
name = bottom;
position = "{595, 10}";
},
{
name = bottom_dd;
position = "{1110, -407}";
},
{
name = caron;
position = "{674, 1456}";
},
{
name = dot;
position = "{599, 848}";
},
{
name = top;
position = "{294, 1600}";
},
{
name = top0315;
position = "{1110, 1600}";
},
{
name = top_dd;
position = "{1110, 1600}";
}
);
guideLines = (
{
position = "{0, 949}";
}
);
layerId = "0FAE9C79-C14E-4D62-87C8-5A68E12B9849";
paths = (
{
closed = 1;
nodes = (
"1071 270 LINE",
"337 270 LINE",
"337 0 LINE",
"1071 0 LINE"
);
},
{
closed = 1;
nodes = (
"452 1456 LINE",
"117 1456 LINE",
"117 0 LINE",
"452 0 LINE"
);
}
);
width = 1110;
}
);
unicode = 004C;
},
{
glyphname = M;
lastChange = "2016-01-02 15:30:31 +0000";
layers = (
{
anchors = (
{
name = bottom;
position = "{879, 10}";
},
{
name = bottom_dd;
position = "{1756, -407}";
},
{
name = right;
position = "{1556, 0}";
},
{
name = top;
position = "{890, 1612}";
},
{
name = top0315;
position = "{1756, 1612}";
},
{
name = top_dd;
position = "{1756, 1600}";
}
);
layerId = "445B0B85-2678-4800-8A4D-B1A9856CF63B";
paths = (
{
closed = 1;
nodes = (
"216 1456 LINE",
"855 0 LINE",
"898 0 LINE",
"1537 1456 LINE",
"1477 1456 LINE",
"876 79 LINE",
"277 1456 LINE"
);
},
{
closed = 1;
nodes = (
"200 1456 LINE",
"200 0 LINE",
"254 0 LINE",
"254 703 LINE",
"254 1456 LINE"
);
},
{
closed = 1;
nodes = (
"1502 1456 LINE",
"1502 703 LINE",
"1502 0 LINE",
"1556 0 LINE",
"1556 1456 LINE"
);
}
);
width = 1756;
},
{
anchors = (
{
name = bottom;
position = "{895, 10}";
},
{
name = bottom_dd;
position = "{1792, -407}";
},
{
name = right;
position = "{1610, 0}";
},
{
name = top;
position = "{890, 1600}";
},
{
name = top0315;
position = "{1792, 1600}";
},
{
name = top_dd;
position = "{1792, 1600}";
}
);
layerId = "3A1161A8-2FC1-4350-92D1-D5E808DF9456";
paths = (
{
closed = 1;
nodes = (
"231 1456 LINE",
"816 0 LINE",
"974 0 LINE",
"1560 1456 LINE",
"1358 1456 LINE",
"896 285 LINE",
"433 1456 LINE"
);
},
{
closed = 1;
nodes = (
"166 1456 LINE",
"166 0 LINE",
"373 0 LINE",
"373 556 LINE",
"343 1456 LINE"
);
},
{
closed = 1;
nodes = (
"1448 1456 LINE",
"1418 556 LINE",
"1418 0 LINE",
"1625 0 LINE",
"1625 1456 LINE"
);
}
);
width = 1792;
},
{
anchors = (
{
name = bottom;
position = "{896, 10}";
},
{
name = bottom_dd;
position = "{1795, -407}";
},
{
name = right;
position = "{1673, 0}";
},
{
name = top;
position = "{893, 1600}";
},
{
name = top0315;
position = "{1795, 1600}";
},
{
name = top_dd;
position = "{1795, 1600}";
}
);
guideLines = (
{
position = "{0, 887}";
},
{
position = "{0, 1552}";
}
);
layerId = "0FAE9C79-C14E-4D62-87C8-5A68E12B9849";
paths = (
{
closed = 1;
nodes = (
"279 1456 LINE",
"784 0 LINE",
"1008 0 LINE",
"1513 1456 LINE",
"1236 1456 LINE",
"896 443 LINE",
"556 1456 LINE"
);
},
{
closed = 1;
nodes = (
"117 1456 LINE",
"117 0 LINE",
"452 0 LINE",
"452 340 LINE",
"400 1456 LINE"
);
},
{
closed = 1;
nodes = (
"1392 1456 LINE",
"1340 340 LINE",
"1340 0 LINE",
"1676 0 LINE",
"1676 1456 LINE"
);
}
);
width = 1795;
}
);
unicode = 004D;
},
{
glyphname = N;
lastChange = "2016-01-02 15:30:31 +0000";
layers = (
{
anchors = (
{
name = bottom;
position = "{726, 10}";
},
{
name = bottom_dd;
position = "{1449, -407}";
},
{
name = right;
position = "{1249, 0}";
},
{
name = top;
position = "{726, 1612}";
},
{
name = top0315;
position = "{1449, 1612}";
},
{
name = top_dd;
position = "{1449, 1600}";
}
);
layerId = "445B0B85-2678-4800-8A4D-B1A9856CF63B";
paths = (
{
closed = 1;
nodes = (
"1249 1456 LINE",
"1195 1456 LINE",
"1195 95 LINE",
"255 1456 LINE",
"200 1456 LINE",
"200 0 LINE",
"255 0 LINE",
"255 1364 LINE",
"1195 0 LINE",
"1249 0 LINE"
);
}
);
width = 1449;
},
{
anchors = (
{
name = bottom;
position = "{719, 10}";
},
{
name = bottom_dd;
position = "{1462, -407}";
},
{
name = right;
position = "{1292, 0}";
},
{
name = top;
position = "{726, 1600}";
},
{
name = top0315;
position = "{1462, 1600}";
},
{
name = top_dd;
position = "{1462, 1600}";
}
);
layerId = "3A1161A8-2FC1-4350-92D1-D5E808DF9456";
paths = (
{
closed = 1;
nodes = (
"1293 1456 LINE",
"1087 1456 LINE",
"1087 350 LINE",
"374 1456 LINE",
"166 1456 LINE",
"166 0 LINE",
"374 0 LINE",
"374 1102 LINE",
"1084 0 LINE",
"1293 0 LINE"
);
}
);
width = 1462;
},
{
anchors = (
{
name = bottom;
position = "{726, 0}";
},
{
name = bottom_dd;
position = "{1441, -407}";
},
{
name = right;
position = "{1321, 0}";
},
{
name = top;
position = "{726, 1600}";
},
{
name = top0315;
position = "{1441, 1600}";
},
{
name = top_dd;
position = "{1441, 1600}";
}
);
guideLines = (
{
position = "{0, 1200}";
}
);
layerId = "0FAE9C79-C14E-4D62-87C8-5A68E12B9849";
paths = (
{
closed = 1;
nodes = (
"1323 1456 LINE",
"989 1456 LINE",
"989 550 LINE",
"452 1456 LINE",
"117 1456 LINE",
"117 0 LINE",
"452 0 LINE",
"452 906 LINE",
"989 0 LINE",
"1323 0 LINE"
);
}
);
width = 1441;
}
);
unicode = 004E;
},
{
glyphname = O;
lastChange = "2016-01-02 15:30:31 +0000";
layers = (
{
anchors = (
{
name = bottom;
position = "{683, -2}";
},
{
name = bottom_dd;
position = "{1364, -407}";
},
{
name = tonos;
position = "{130, 1454}";
},
{
name = top;
position = "{676, 1633}";
},
{
name = top0315;
position = "{1364, 1633}";
},
{
name = top_dd;
position = "{1364, 1600}";
}
);
guideLines = (
{
position = "{0, 901}";
},
{
position = "{0, 555}";
}
);
layerId = "445B0B85-2678-4800-8A4D-B1A9856CF63B";
paths = (
{
closed = 1;
nodes = (
"1231 837 LINE",
"1231 1217 OFFCURVE",
"1016 1476 OFFCURVE",
"681 1476 CURVE SMOOTH",
"347 1476 OFFCURVE",
"133 1217 OFFCURVE",
"133 837 CURVE",
"133 619 LINE",
"133 239 OFFCURVE",
"349 -20 OFFCURVE",
"683 -20 CURVE SMOOTH",
"1018 -20 OFFCURVE",
"1231 239 OFFCURVE",
"1231 619 CURVE"
);
},
{
closed = 1;
nodes = (
"1177 619 LINE",
"1177 276 OFFCURVE",
"997 34 OFFCURVE",
"683 34 CURVE SMOOTH",
"371 34 OFFCURVE",
"188 276 OFFCURVE",
"188 619 CURVE SMOOTH",
"188 839 LINE SMOOTH",
"188 1180 OFFCURVE",
"369 1422 OFFCURVE",
"681 1422 CURVE SMOOTH",
"995 1422 OFFCURVE",
"1177 1180 OFFCURVE",
"1177 839 CURVE"
);
}
);
width = 1364;
},
{
anchors = (
{
name = bottom;
position = "{710, 0}";
},
{
name = bottom_dd;
position = "{1414, -407}";
},
{
name = tonos;
position = "{150, 1454}";
},
{
name = top;
position = "{710, 1600}";
},
{
name = top0315;
position = "{1414, 1600}";
},
{
name = top_dd;
position = "{1414, 1600}";
}
);
guideLines = (
{
position = "{0, 901}";
},
{
position = "{0, 555}";
},
{
angle = 90;
position = "{748, 0}";
}
);
layerId = "3A1161A8-2FC1-4350-92D1-D5E808DF9456";
paths = (
{
closed = 1;
nodes = (
"1296 768 LINE",
"1296 1209 OFFCURVE",
"1063 1476 OFFCURVE",
"706 1476 CURVE SMOOTH",
"360 1476 OFFCURVE",
"117 1209 OFFCURVE",
"117 768 CURVE",
"117 687 LINE",
"117 246 OFFCURVE",
"362 -20 OFFCURVE",
"708 -20 CURVE SMOOTH",
"1065 -20 OFFCURVE",
"1296 246 OFFCURVE",
"1296 687 CURVE"
);
},
{
closed = 1;
nodes = (
"1090 687 LINE",
"1090 338 OFFCURVE",
"952 153 OFFCURVE",
"708 153 CURVE SMOOTH",
"478 153 OFFCURVE",
"323 338 OFFCURVE",
"323 687 CURVE SMOOTH",
"323 770 LINE SMOOTH",
"323 1117 OFFCURVE",
"476 1302 OFFCURVE",
"706 1302 CURVE SMOOTH",
"948 1302 OFFCURVE",
"1090 1117 OFFCURVE",
"1090 770 CURVE"
);
}
);
width = 1414;
},
{
anchors = (
{
name = bottom;
position = "{712, 0}";
},
{
name = bottom_dd;
position = "{1414, -407}";
},
{
name = tonos;
position = "{100, 1454}";
},
{
name = top;
position = "{705, 1600}";
},
{
name = top0315;
position = "{1414, 1600}";
},
{
name = top_dd;
position = "{1414, 1600}";
}
);
guideLines = (
{
position = "{0, 901}";
},
{
position = "{0, 555}";
},
{
position = "{0, 1255}";
}
);
layerId = "0FAE9C79-C14E-4D62-87C8-5A68E12B9849";
paths = (
{
closed = 1;
nodes = (
"1338 757 LINE",
"1338 1202 OFFCURVE",
"1076 1476 OFFCURVE",
"706 1476 CURVE SMOOTH",
"334 1476 OFFCURVE",
"75 1202 OFFCURVE",
"75 757 CURVE",
"75 698 LINE",
"75 253 OFFCURVE",
"336 -20 OFFCURVE",
"708 -20 CURVE SMOOTH",
"1078 -20 OFFCURVE",
"1338 253 OFFCURVE",
"1338 698 CURVE"
);
},
{
closed = 1;
nodes = (
"998 698 LINE",
"998 413 OFFCURVE",
"894 254 OFFCURVE",
"708 254 CURVE SMOOTH",
"517 254 OFFCURVE",
"415 413 OFFCURVE",
"415 698 CURVE SMOOTH",
"415 759 LINE SMOOTH",
"415 1047 OFFCURVE",
"515 1201 OFFCURVE",
"706 1201 CURVE SMOOTH",
"892 1201 OFFCURVE",
"998 1047 OFFCURVE",
"998 759 CURVE"
);
}
);
width = 1414;
}
);
unicode = 004F;
userData = {
com.typemytype.robofont.guides = (
{
angle = 0;
isGlobal = 0;
magnetic = 5;
x = 0;
y = 901;
},
{
angle = 0;
isGlobal = 0;
magnetic = 5;
x = 0;
y = 555;
}
);
};
},
{
glyphname = Oslash;
lastChange = "2016-01-02 15:30:31 +0000";
layers = (
{
anchors = (
{
name = top;
position = "{712, 1674}";
},
{
name = top0315;
position = "{1364, 1674}";
},
{
name = top_dd;
position = "{1364, 1600}";
}
);
components = (
{
name = O;
}
);
layerId = "445B0B85-2678-4800-8A4D-B1A9856CF63B";
paths = (
{
closed = 1;
nodes = (
"1240 1495 LINE",
"1174 1495 LINE",
"177 -75 LINE",
"243 -75 LINE"
);
}
);
width = 1364;
},
{
anchors = (
{
name = top;
position = "{715, 1674}";
},
{
name = top0315;
position = "{1414, 1674}";
},
{
name = top_dd;
position = "{1414, 1600}";
}
);
components = (
{
name = O;
}
);
layerId = "3A1161A8-2FC1-4350-92D1-D5E808DF9456";
paths = (
{
closed = 1;
nodes = (
"1317 1518 LINE",
"1168 1518 LINE",
"163 -95 LINE",
"314 -95 LINE"
);
}
);
width = 1414;
},
{
anchors = (
{
name = top;
position = "{716, 1674}";
},
{
name = top0315;
position = "{1410, 1674}";
},
{
name = top_dd;
position = "{1410, 1600}";
}
);
components = (
{
name = O;
transform = "{1, 0, 0, 1, 10, 0}";
}
);
layerId = "0FAE9C79-C14E-4D62-87C8-5A68E12B9849";
paths = (
{
closed = 1;
nodes = (
"1278 1518 LINE",
"1077 1518 LINE",
"142 -95 LINE",
"343 -95 LINE"
);
}
);
width = 1410;
}
);
unicode = 00D8;
},
{
glyphname = OE;
lastChange = "2016-01-02 15:30:31 +0000";
layers = (
{
anchors = (
{
name = bottom;
position = "{957, -2}";
},
{
name = bottom_dd;
position = "{1873, -407}";
},
{
name = top;
position = "{957, 1633}";
},
{
name = top0315;
position = "{1873, 1633}";
},
{
name = top_dd;
position = "{1873, 1600}";
}
);
components = (
{
name = E;
transform = "{1, 0, 0, 1, 715, 0}";
}
);
layerId = "445B0B85-2678-4800-8A4D-B1A9856CF63B";
paths = (
{
closed = 1;
nodes = (
"629 1476 CURVE SMOOTH",
"322 1476 OFFCURVE",
"112 1233 OFFCURVE",
"112 880 CURVE",
"112 576 LINE",
"112 223 OFFCURVE",
"324 -21 OFFCURVE",
"631 -21 CURVE SMOOTH",
"748 -21 OFFCURVE",
"860 -10 OFFCURVE",
"961 0 CURVE",
"961 53 LINE",
"869 38 OFFCURVE",
"743 33 OFFCURVE",
"631 33 CURVE SMOOTH",
"349 33 OFFCURVE",
"166 260 OFFCURVE",
"166 576 CURVE",
"166 882 LINE",
"166 1205 OFFCURVE",
"347 1422 OFFCURVE",
"629 1422 CURVE SMOOTH",
"749 1422 OFFCURVE",
"862 1419 OFFCURVE",
"961 1403 CURVE",
"961 1456 LINE",
"860 1467 OFFCURVE",
"746 1476 OFFCURVE"
);
}
);
width = 1873;
},
{
anchors = (
{
name = bottom;
position = "{953, 0}";
},
{
name = bottom_dd;
position = "{1962, -407}";
},
{
name = top;
position = "{953, 1600}";
},
{
name = top0315;
position = "{1962, 1600}";
},
{
name = top_dd;
position = "{1962, 1600}";
}
);
components = (
{
name = E;
transform = "{1, 0, 0, 1, 706, 0}";
}
);
layerId = "3A1161A8-2FC1-4350-92D1-D5E808DF9456";
paths = (
{
closed = 1;
nodes = (
"663 1477 CURVE SMOOTH",
"330 1477 OFFCURVE",
"104 1233 OFFCURVE",
"104 880 CURVE",
"104 576 LINE",
"104 223 OFFCURVE",
"332 -21 OFFCURVE",
"665 -21 CURVE SMOOTH",
"766 -21 OFFCURVE",
"864 -10 OFFCURVE",
"953 0 CURVE",
"953 167 LINE",
"867 151 OFFCURVE",
"768 139 OFFCURVE",
"665 139 CURVE SMOOTH",
"445 139 OFFCURVE",
"304 287 OFFCURVE",
"304 576 CURVE",
"304 882 LINE",
"304 1169 OFFCURVE",
"443 1317 OFFCURVE",
"663 1317 CURVE SMOOTH",
"767 1317 OFFCURVE",
"866 1305 OFFCURVE",
"953 1289 CURVE",
"953 1456 LINE",
"864 1467 OFFCURVE",
"764 1477 OFFCURVE"
);
}
);
width = 1962;
},
{
anchors = (
{
name = bottom;
position = "{1000, 0}";
},
{
name = bottom_dd;
position = "{1991, -407}";
},
{
name = top;
position = "{1000, 1600}";
},
{
name = top0315;
position = "{1991, 1600}";
},
{
name = top_dd;
position = "{1991, 1600}";
}
);
components = (
{
name = E;
transform = "{1, 0, 0, 1, 794, 0}";
}
);
layerId = "0FAE9C79-C14E-4D62-87C8-5A68E12B9849";
paths = (
{
closed = 1;
nodes = (
"714 1476 CURVE SMOOTH",
"345 1476 OFFCURVE",
"94 1233 OFFCURVE",
"94 880 CURVE",
"94 576 LINE",
"94 223 OFFCURVE",
"347 -20 OFFCURVE",
"716 -20 CURVE SMOOTH",
"817 -20 OFFCURVE",
"915 -10 OFFCURVE",
"1004 0 CURVE",
"1004 267 LINE",
"918 251 OFFCURVE",
"819 240 OFFCURVE",
"716 240 CURVE SMOOTH",
"532 240 OFFCURVE",
"416 352 OFFCURVE",
"416 576 CURVE",
"416 882 LINE",
"416 1106 OFFCURVE",
"530 1216 OFFCURVE",
"714 1216 CURVE SMOOTH",
"818 1216 OFFCURVE",
"917 1204 OFFCURVE",
"1004 1189 CURVE",
"1004 1456 LINE",
"915 1467 OFFCURVE",
"815 1476 OFFCURVE"
);
}
);
width = 1991;
}
);
unicode = 0152;
},
{
glyphname = P;
lastChange = "2016-01-02 15:30:31 +0000";
layers = (
{
anchors = (
{
name = bottom;
position = "{530, 10}";
},
{
name = bottom_dd;
position = "{1230, -407}";
},
{
name = tonos;
position = "{-8, 1454}";
},
{
name = top;
position = "{560, 1612}";
},
{
name = top0315;
position = "{1230, 1612}";
},
{
name = top_dd;
position = "{1230, 1600}";
}
);
guideLines = (
{
position = "{0, 901}";
},
{
position = "{0, 555}";
}
);
layerId = "445B0B85-2678-4800-8A4D-B1A9856CF63B";
paths = (
{
closed = 1;
nodes = (
"655 615 LINE",
"966 615 OFFCURVE",
"1125 774 OFFCURVE",
"1125 1031 CURVE",
"1125 1287 OFFCURVE",
"965 1456 OFFCURVE",
"655 1456 CURVE",
"200 1456 LINE",
"200 0 LINE",
"254 0 LINE",
"254 1402 LINE",
"655 1402 LINE",
"949 1402 OFFCURVE",
"1071 1235 OFFCURVE",
"1071 1029 CURVE",
"1071 831 OFFCURVE",
"949 669 OFFCURVE",
"655 669 CURVE",
"213 669 LINE",
"213 615 LINE"
);
}
);
width = 1230;
},
{
anchors = (
{
name = bottom;
position = "{530, 10}";
},
{
name = bottom_dd;
position = "{1299, -407}";
},
{
name = tonos;
position = "{25, 1454}";
},
{
name = top;
position = "{611, 1612}";
},
{
name = top0315;
position = "{1299, 1612}";
},
{
name = top_dd;
position = "{1299, 1600}";
}
);
layerId = "3A1161A8-2FC1-4350-92D1-D5E808DF9456";
paths = (
{
closed = 1;
nodes = (
"712 567 LINE",
"1044 567 OFFCURVE",
"1227 727 OFFCURVE",
"1227 1010 CURVE",
"1227 1269 OFFCURVE",
"1044 1456 OFFCURVE",
"712 1456 CURVE",
"166 1456 LINE",
"166 0 LINE",
"374 0 LINE",
"374 1289 LINE",
"712 1289 LINE",
"930 1289 OFFCURVE",
"1019 1153 OFFCURVE",
"1019 1008 CURVE",
"1019 846 OFFCURVE",
"930 733 OFFCURVE",
"712 733 CURVE",
"329 733 LINE",
"329 567 LINE"
);
}
);
width = 1299;
},
{
anchors = (
{
name = bottom;
position = "{530, 10}";
},
{
name = bottom_dd;
position = "{1330, -407}";
},
{
name = tonos;
position = "{-50, 1454}";
},
{
name = top;
position = "{596, 1612}";
},
{
name = top0315;
position = "{1330, 1612}";
},
{
name = top_dd;
position = "{1330, 1600}";
}
);
guideLines = (
{
position = "{0, 901}";
},
{
position = "{0, 555}";
},
{
position = "{0, 1129}";
}
);
layerId = "0FAE9C79-C14E-4D62-87C8-5A68E12B9849";
paths = (
{
closed = 1;
nodes = (
"694 494 LINE",
"1042 494 OFFCURVE",
"1253 680 OFFCURVE",
"1253 962 CURVE",
"1253 1247 OFFCURVE",
"1042 1456 OFFCURVE",
"694 1456 CURVE",
"117 1456 LINE",
"117 0 LINE",
"452 0 LINE",
"452 1185 LINE",
"694 1185 LINE",
"849 1185 OFFCURVE",
"914 1079 OFFCURVE",
"914 960 CURVE",
"914 847 OFFCURVE",
"849 765 OFFCURVE",
"694 765 CURVE",
"330 765 LINE",
"330 494 LINE"
);
}
);
width = 1330;
}
);
unicode = 0050;
userData = {
com.typemytype.robofont.guides = (
{
angle = 0;
isGlobal = 0;
magnetic = 5;
x = 0;
y = 901;
},
{
angle = 0;
isGlobal = 0;
magnetic = 5;
x = 0;
y = 555;
}
);
};
},
{
glyphname = Thorn;
lastChange = "2016-01-02 15:30:31 +0000";
layers = (
{
guideLines = (
{
position = "{0, 901}";
},
{
position = "{0, 555}";
}
);
layerId = "445B0B85-2678-4800-8A4D-B1A9856CF63B";
paths = (
{
closed = 1;
nodes = (
"200 1456 LINE",
"200 0 LINE",
"254 0 LINE",
"254 1456 LINE"
);
},
{
closed = 1;
nodes = (
"218 1143 LINE",
"232 1089 LINE",
"625 1089 LINE SMOOTH",
"906 1089 OFFCURVE",
"1021 909 OFFCURVE",
"1021 736 CURVE SMOOTH",
"1021 571 OFFCURVE",
"906 388 OFFCURVE",
"625 388 CURVE SMOOTH",
"213 388 LINE",
"213 334 LINE",
"625 334 LINE SMOOTH",
"916 334 OFFCURVE",
"1075 505 OFFCURVE",
"1075 738 CURVE SMOOTH",
"1075 970 OFFCURVE",
"916 1143 OFFCURVE",
"625 1143 CURVE SMOOTH"
);
}
);
width = 1219;
},
{
guideLines = (
{
position = "{0, 901}";
},
{
position = "{0, 555}";
}
);
layerId = "3A1161A8-2FC1-4350-92D1-D5E808DF9456";
paths = (
{
closed = 1;
nodes = (
"163 1456 LINE",
"163 0 LINE",
"363 0 LINE",
"363 1456 LINE"
);
},
{
closed = 1;
nodes = (
"265 1165 LINE",
"363 1005 LINE",
"630 1005 LINE SMOOTH",
"838 1005 OFFCURVE",
"922 873 OFFCURVE",
"922 736 CURVE SMOOTH",
"922 603 OFFCURVE",
"838 472 OFFCURVE",
"630 472 CURVE SMOOTH",
"322 472 LINE",
"322 312 LINE",
"630 312 LINE SMOOTH",
"948 312 OFFCURVE",
"1122 493 OFFCURVE",
"1122 738 CURVE SMOOTH",
"1122 984 OFFCURVE",
"948 1165 OFFCURVE",
"630 1165 CURVE SMOOTH"
);
}
);
width = 1209;
},
{
guideLines = (
{
position = "{0, 901}";
},
{
position = "{0, 555}";
}
);
layerId = "0FAE9C79-C14E-4D62-87C8-5A68E12B9849";
paths = (
{
closed = 1;
nodes = (
"122 1456 LINE",
"122 0 LINE",
"445 0 LINE",
"445 1456 LINE"
);
},
{
closed = 1;
nodes = (
"224 1198 LINE",
"445 938 LINE",
"651 938 LINE SMOOTH",
"816 938 OFFCURVE",
"881 842 OFFCURVE",
"881 736 CURVE SMOOTH",
"881 632 OFFCURVE",
"816 538 OFFCURVE",
"651 538 CURVE SMOOTH",
"404 538 LINE",
"404 278 LINE",
"651 278 LINE SMOOTH",
"1009 278 OFFCURVE",
"1204 470 OFFCURVE",
"1204 738 CURVE SMOOTH",
"1204 1007 OFFCURVE",
"1009 1198 OFFCURVE",
"651 1198 CURVE SMOOTH"
);
}
);
width = 1260;
}
);
unicode = 00DE;
userData = {
com.typemytype.robofont.guides = (
{
angle = 0;
isGlobal = 0;
magnetic = 5;
x = 0;
y = 901;
},
{
angle = 0;
isGlobal = 0;
magnetic = 5;
x = 0;
y = 555;
}
);
};
},
{
glyphname = Q;
lastChange = "2016-01-02 15:30:31 +0000";
layers = (
{
anchors = (
{
name = bottom;
position = "{698, -10}";
},
{
name = bottom_dd;
position = "{1364, -407}";
},
{
name = top;
position = "{700, 1600}";
},
{
name = top0315;
position = "{1364, 1600}";
},
{
name = top_dd;
position = "{1364, 1600}";
}
);
guideLines = (
{
position = "{0, 901}";
},
{
position = "{0, 555}";
}
);
layerId = "445B0B85-2678-4800-8A4D-B1A9856CF63B";
paths = (
{
closed = 1;
nodes = (
"894 63 LINE",
"853 25 LINE",
"1152 -263 LINE",
"1191 -228 LINE"
);
},
{
closed = 1;
nodes = (
"1231 837 LINE",
"1231 1217 OFFCURVE",
"1016 1476 OFFCURVE",
"681 1476 CURVE SMOOTH",
"347 1476 OFFCURVE",
"133 1217 OFFCURVE",
"133 837 CURVE",
"133 619 LINE",
"133 239 OFFCURVE",
"349 -20 OFFCURVE",
"683 -20 CURVE SMOOTH",
"1018 -20 OFFCURVE",
"1231 239 OFFCURVE",
"1231 619 CURVE"
);
},
{
closed = 1;
nodes = (
"1177 619 LINE",
"1177 276 OFFCURVE",
"997 34 OFFCURVE",
"683 34 CURVE SMOOTH",
"371 34 OFFCURVE",
"188 276 OFFCURVE",
"188 619 CURVE SMOOTH",
"188 839 LINE SMOOTH",
"188 1180 OFFCURVE",
"369 1422 OFFCURVE",
"681 1422 CURVE SMOOTH",
"995 1422 OFFCURVE",
"1177 1180 OFFCURVE",
"1177 839 CURVE"
);
}
);
width = 1364;
},
{
anchors = (
{
name = bottom;
position = "{698, -10}";
},
{
name = bottom_dd;
position = "{1414, -407}";
},
{
name = top;
position = "{700, 1600}";
},
{
name = top0315;
position = "{1414, 1600}";
},
{
name = top_dd;
position = "{1414, 1600}";
}
);
guideLines = (
{
position = "{0, 901}";
},
{
position = "{0, 555}";
}
);
layerId = "3A1161A8-2FC1-4350-92D1-D5E808DF9456";
paths = (
{
closed = 1;
nodes = (
"918 176 LINE",
"785 45 LINE",
"1156 -245 LINE",
"1297 -117 LINE"
);
},
{
closed = 1;
nodes = (
"1287 768 LINE",
"1287 1209 OFFCURVE",
"1054 1476 OFFCURVE",
"696 1476 CURVE SMOOTH",
"350 1476 OFFCURVE",
"107 1209 OFFCURVE",
"107 768 CURVE",
"107 687 LINE",
"107 246 OFFCURVE",
"352 -20 OFFCURVE",
"698 -20 CURVE SMOOTH",
"1056 -20 OFFCURVE",
"1287 246 OFFCURVE",
"1287 687 CURVE"
);
},
{
closed = 1;
nodes = (
"1080 687 LINE",
"1080 338 OFFCURVE",
"942 153 OFFCURVE",
"698 153 CURVE SMOOTH",
"469 153 OFFCURVE",
"314 338 OFFCURVE",
"314 687 CURVE SMOOTH",
"314 770 LINE SMOOTH",
"314 1117 OFFCURVE",
"467 1302 OFFCURVE",
"696 1302 CURVE SMOOTH",
"939 1302 OFFCURVE",
"1080 1117 OFFCURVE",
"1080 770 CURVE"
);
}
);
width = 1414;
},
{
anchors = (
{
name = bottom;
position = "{698, -10}";
},
{
name = bottom_dd;
position = "{1414, -407}";
},
{
name = top;
position = "{700, 1600}";
},
{
name = top0315;
position = "{1414, 1600}";
},
{
name = top_dd;
position = "{1414, 1600}";
}
);
guideLines = (
{
position = "{0, 901}";
},
{
position = "{0, 555}";
},
{
position = "{0, 1257}";
}
);
layerId = "0FAE9C79-C14E-4D62-87C8-5A68E12B9849";
paths = (
{
closed = 1;
nodes = (
"922 240 LINE",
"720 56 LINE",
"1116 -266 LINE",
"1325 -82 LINE"
);
},
{
closed = 1;
nodes = (
"1339 757 LINE",
"1339 1202 OFFCURVE",
"1077 1476 OFFCURVE",
"707 1476 CURVE SMOOTH",
"335 1476 OFFCURVE",
"76 1202 OFFCURVE",
"76 757 CURVE",
"76 698 LINE",
"76 253 OFFCURVE",
"337 -20 OFFCURVE",
"709 -20 CURVE SMOOTH",
"1079 -20 OFFCURVE",
"1339 253 OFFCURVE",
"1339 698 CURVE"
);
},
{
closed = 1;
nodes = (
"999 698 LINE",
"999 413 OFFCURVE",
"895 254 OFFCURVE",
"709 254 CURVE SMOOTH",
"518 254 OFFCURVE",
"416 413 OFFCURVE",
"416 698 CURVE SMOOTH",
"416 759 LINE SMOOTH",
"416 1047 OFFCURVE",
"516 1201 OFFCURVE",
"707 1201 CURVE SMOOTH",
"893 1201 OFFCURVE",
"999 1047 OFFCURVE",
"999 759 CURVE"
);
}
);
width = 1414;
}
);
unicode = 0051;
userData = {
com.typemytype.robofont.guides = (
{
angle = 0;
isGlobal = 0;
magnetic = 5;
x = 0;
y = 901;
},
{
angle = 0;
isGlobal = 0;
magnetic = 5;
x = 0;
y = 555;
}
);
};
},
{
glyphname = R;
lastChange = "2016-01-02 15:30:31 +0000";
layers = (
{
anchors = (
{
name = bottom;
position = "{606, 10}";
},
{
name = bottom_dd;
position = "{1340, -407}";
},
{
name = top;
position = "{606, 1612}";
},
{
name = top0315;
position = "{1340, 1612}";
},
{
name = top_dd;
position = "{1340, 1600}";
}
);
layerId = "445B0B85-2678-4800-8A4D-B1A9856CF63B";
paths = (
{
closed = 1;
nodes = (
"195 1456 LINE",
"195 0 LINE",
"249 0 LINE",
"249 1402 LINE",
"659 1402 LINE SMOOTH",
"917 1402 OFFCURVE",
"1083 1265 OFFCURVE",
"1083 1036 CURVE SMOOTH",
"1083 855 OFFCURVE",
"957 677 OFFCURVE",
"708 677 CURVE SMOOTH",
"206 677 LINE",
"208 623 LINE",
"765 623 LINE",
"796 635 LINE",
"985 663 OFFCURVE",
"1137 824 OFFCURVE",
"1137 1036 CURVE SMOOTH",
"1137 1307 OFFCURVE",
"937 1456 OFFCURVE",
"659 1456 CURVE SMOOTH"
);
},
{
closed = 1;
nodes = (
"1141 0 LINE",
"1198 0 LINE",
"1198 14 LINE",
"805 644 LINE",
"742 642 LINE"
);
}
);
width = 1340;
},
{
anchors = (
{
name = bottom;
position = "{611, 10}";
},
{
name = bottom_dd;
position = "{1253, -407}";
},
{
name = top;
position = "{610, 1600}";
},
{
name = top0315;
position = "{1253, 1600}";
},
{
name = top_dd;
position = "{1253, 1600}";
}
);
layerId = "3A1161A8-2FC1-4350-92D1-D5E808DF9456";
paths = (
{
closed = 1;
nodes = (
"166 1456 LINE",
"166 0 LINE",
"374 0 LINE",
"374 1289 LINE",
"650 1289 LINE SMOOTH",
"868 1289 OFFCURVE",
"956 1180 OFFCURVE",
"956 1017 CURVE SMOOTH",
"956 869 OFFCURVE",
"854 753 OFFCURVE",
"651 753 CURVE SMOOTH",
"327 753 LINE",
"329 587 LINE",
"770 587 LINE",
"827 609 LINE",
"1039 666 OFFCURVE",
"1164 818 OFFCURVE",
"1164 1017 CURVE SMOOTH",
"1164 1303 OFFCURVE",
"983 1456 OFFCURVE",
"650 1456 CURVE SMOOTH"
);
},
{
closed = 1;
nodes = (
"1006 0 LINE",
"1229 0 LINE",
"1229 12 LINE",
"874 662 LINE",
"657 662 LINE"
);
}
);
width = 1253;
},
{
anchors = (
{
name = bottom;
position = "{613, 10}";
},
{
name = bottom_dd;
position = "{1327, -407}";
},
{
name = top;
position = "{594, 1600}";
},
{
name = top0315;
position = "{1327, 1600}";
},
{
name = top_dd;
position = "{1327, 1600}";
}
);
guideLines = (
{
position = "{0, 1129}";
},
{
angle = 90;
position = "{1042, 0}";
}
);
hints = (
{
horizontal = 1;
place = "{-2147483648, 0}";
type = Tag;
name = hr00;
}
);
layerId = "0FAE9C79-C14E-4D62-87C8-5A68E12B9849";
paths = (
{
closed = 1;
nodes = (
"117 1456 LINE",
"117 0 LINE",
"452 0 LINE",
"452 1185 LINE",
"680 1185 LINE SMOOTH",
"820 1185 OFFCURVE",
"892 1109 OFFCURVE",
"892 984 CURVE SMOOTH",
"892 860 OFFCURVE",
"821 785 OFFCURVE",
"680 785 CURVE SMOOTH",
"328 785 LINE",
"330 514 LINE",
"806 514 LINE",
"915 579 LINE",
"1102 649 OFFCURVE",
"1227 766 OFFCURVE",
"1227 1016 CURVE SMOOTH",
"1227 1303 OFFCURVE",
"1016 1456 OFFCURVE",
"680 1456 CURVE SMOOTH"
);
},
{
closed = 1;
nodes = (
"919 0 LINE",
"1278 0 LINE",
"1278 15 LINE",
"949 646 LINE",
"594 644 LINE"
);
}
);
width = 1327;
}
);
unicode = 0052;
},
{
glyphname = S;
lastChange = "2016-01-02 15:30:31 +0000";
layers = (
{
anchors = (
{
name = bottom;
position = "{632, -10}";
},
{
name = bottom_dd;
position = "{1211, -407}";
},
{
name = top;
position = "{632, 1633}";
},
{
name = top0315;
position = "{1211, 1633}";
},
{
name = top_dd;
position = "{1211, 1600}";
}
);
guideLines = (
{
position = "{0, 1658}";
},
{
position = "{0, 555}";
}
);
layerId = "445B0B85-2678-4800-8A4D-B1A9856CF63B";
paths = (
{
closed = 1;
nodes = (
"1072 349 CURVE",
"1072 162 OFFCURVE",
"889 34 OFFCURVE",
"633 34 CURVE SMOOTH",
"423 34 OFFCURVE",
"150 120 OFFCURVE",
"150 411 CURVE",
"96 411 LINE",
"96 85 OFFCURVE",
"384 -20 OFFCURVE",
"633 -20 CURVE SMOOTH",
"905 -20 OFFCURVE",
"1127 113 OFFCURVE",
"1127 351 CURVE",
"1127 596 OFFCURVE",
"925 695 OFFCURVE",
"638 770 CURVE",
"290 860 OFFCURVE",
"197 967 OFFCURVE",
"197 1122 CURVE",
"197 1280 OFFCURVE",
"351 1422 OFFCURVE",
"626 1422 CURVE SMOOTH",
"885 1422 OFFCURVE",
"1057 1261 OFFCURVE",
"1057 1046 CURVE",
"1111 1046 LINE",
"1111 1303 OFFCURVE",
"909 1476 OFFCURVE",
"626 1476 CURVE SMOOTH",
"351 1476 OFFCURVE",
"143 1342 OFFCURVE",
"143 1120 CURVE",
"143 886 OFFCURVE",
"326 799 OFFCURVE",
"623 718 CURVE SMOOTH",
"953 628 OFFCURVE",
"1072 533 OFFCURVE"
);
}
);
width = 1211;
},
{
anchors = (
{
name = bottom;
position = "{628, 0}";
},
{
name = bottom_dd;
position = "{1216, -407}";
},
{
name = top;
position = "{621, 1600}";
},
{
name = top0315;
position = "{1216, 1600}";
},
{
name = top_dd;
position = "{1216, 1600}";
}
);
guideLines = (
{
position = "{0, 1658}";
},
{
position = "{0, 555}";
}
);
layerId = "3A1161A8-2FC1-4350-92D1-D5E808DF9456";
paths = (
{
closed = 1;
nodes = (
"931 370 CURVE SMOOTH",
"931 232 OFFCURVE",
"826 146 OFFCURVE",
"631 146 CURVE SMOOTH",
"446 146 OFFCURVE",
"287 232 OFFCURVE",
"287 423 CURVE",
"79 423 LINE",
"79 136 OFFCURVE",
"360 -20 OFFCURVE",
"631 -20 CURVE SMOOTH",
"942 -20 OFFCURVE",
"1140 135 OFFCURVE",
"1140 372 CURVE",
"1140 596 OFFCURVE",
"998 727 OFFCURVE",
"663 822 CURVE",
"435 886 OFFCURVE",
"334 959 OFFCURVE",
"334 1079 CURVE",
"334 1212 OFFCURVE",
"423 1309 OFFCURVE",
"621 1309 CURVE SMOOTH",
"834 1309 OFFCURVE",
"930 1194 OFFCURVE",
"930 1035 CURVE",
"1138 1035 LINE",
"1138 1260 OFFCURVE",
"955 1476 OFFCURVE",
"621 1476 CURVE SMOOTH",
"320 1476 OFFCURVE",
"125 1303 OFFCURVE",
"125 1076 CURVE",
"125 851 OFFCURVE",
"309 728 OFFCURVE",
"596 644 CURVE",
"865 565 OFFCURVE",
"931 502 OFFCURVE"
);
}
);
width = 1216;
},
{
anchors = (
{
name = bottom;
position = "{658, 0}";
},
{
name = bottom_dd;
position = "{1275, -407}";
},
{
name = top;
position = "{658, 1600}";
},
{
name = top0315;
position = "{1275, 1600}";
},
{
name = top_dd;
position = "{1275, 1600}";
}
);
guideLines = (
{
position = "{0, 1658}";
},
{
position = "{0, 555}";
},
{
position = "{0, 1129}";
}
);
hints = (
{
horizontal = 1;
place = "{-2147483648, 0}";
type = Tag;
name = hr00;
}
);
layerId = "0FAE9C79-C14E-4D62-87C8-5A68E12B9849";
paths = (
{
closed = 1;
nodes = (
"869 387 CURVE SMOOTH",
"869 309 OFFCURVE",
"809 244 OFFCURVE",
"669 244 CURVE SMOOTH",
"502 244 OFFCURVE",
"402 301 OFFCURVE",
"402 472 CURVE",
"66 472 LINE",
"66 127 OFFCURVE",
"373 -20 OFFCURVE",
"669 -20 CURVE SMOOTH",
"993 -20 OFFCURVE",
"1204 127 OFFCURVE",
"1204 389 CURVE",
"1204 634 OFFCURVE",
"1030 772 OFFCURVE",
"718 870 CURVE",
"545 924 OFFCURVE",
"444 977 OFFCURVE",
"444 1064 CURVE",
"444 1144 OFFCURVE",
"515 1211 OFFCURVE",
"656 1211 CURVE SMOOTH",
"800 1211 OFFCURVE",
"870 1134 OFFCURVE",
"870 1024 CURVE",
"1204 1024 LINE",
"1204 1299 OFFCURVE",
"983 1476 OFFCURVE",
"663 1476 CURVE SMOOTH",
"343 1476 OFFCURVE",
"110 1317 OFFCURVE",
"110 1067 CURVE",
"110 805 OFFCURVE",
"344 685 OFFCURVE",
"603 600 CURVE",
"827 527 OFFCURVE",
"869 478 OFFCURVE"
);
}
);
width = 1275;
}
);
unicode = 0053;
userData = {
com.typemytype.robofont.guides = (
{
angle = 0;
isGlobal = 0;
magnetic = 5;
x = 0;
y = 1658;
},
{
angle = 0;
isGlobal = 0;
magnetic = 5;
x = 0;
y = 555;
}
);
};
},
{
glyphname = Germandbls;
lastChange = "2016-01-02 15:30:31 +0000";
layers = (
{
layerId = "445B0B85-2678-4800-8A4D-B1A9856CF63B";
paths = (
{
closed = 1;
nodes = (
"253 998 LINE",
"200 998 LINE",
"200 0 LINE",
"253 0 LINE"
);
},
{
closed = 1;
nodes = (
"253 996 LINE",
"253 1300 OFFCURVE",
"359 1422 OFFCURVE",
"613 1422 CURVE SMOOTH",
"765 1422 OFFCURVE",
"897 1349 OFFCURVE",
"979 1236 CURVE",
"579 833 LINE",
"579 779 LINE",
"610 779 LINE",
"1061 1234 LINE",
"950 1381 OFFCURVE",
"811 1476 OFFCURVE",
"613 1476 CURVE SMOOTH",
"286 1476 OFFCURVE",
"200 1283 OFFCURVE",
"200 996 CURVE"
);
},
{
closed = 1;
nodes = (
"482 29 LINE",
"576 -6 OFFCURVE",
"657 -20 OFFCURVE",
"750 -20 CURVE SMOOTH",
"1038 -20 OFFCURVE",
"1206 135 OFFCURVE",
"1206 408 CURVE SMOOTH",
"1206 657 OFFCURVE",
"1056 829 OFFCURVE",
"730 829 CURVE SMOOTH",
"579 829 LINE",
"579 775 LINE",
"730 775 LINE SMOOTH",
"1039 775 OFFCURVE",
"1152 621 OFFCURVE",
"1152 408 CURVE SMOOTH",
"1152 152 OFFCURVE",
"991 34 OFFCURVE",
"750 34 CURVE SMOOTH",
"654 34 OFFCURVE",
"569 61 OFFCURVE",
"514 87 CURVE"
);
}
);
width = 1325;
},
{
layerId = "3A1161A8-2FC1-4350-92D1-D5E808DF9456";
paths = (
{
closed = 1;
nodes = (
"336 958 LINE",
"137 958 LINE",
"137 0 LINE",
"336 0 LINE"
);
},
{
closed = 1;
nodes = (
"336 956 LINE",
"336 1144 OFFCURVE",
"376 1316 OFFCURVE",
"591 1316 CURVE SMOOTH",
"724 1316 OFFCURVE",
"802 1269 OFFCURVE",
"865 1223 CURVE",
"567 853 LINE",
"567 728 LINE",
"677 728 LINE",
"1100 1254 LINE",
"968 1375 OFFCURVE",
"810 1476 OFFCURVE",
"591 1476 CURVE SMOOTH",
"288 1476 OFFCURVE",
"137 1303 OFFCURVE",
"137 956 CURVE"
);
},
{
closed = 1;
nodes = (
"456 29 LINE",
"550 -6 OFFCURVE",
"645 -21 OFFCURVE",
"738 -21 CURVE SMOOTH",
"1026 -21 OFFCURVE",
"1234 135 OFFCURVE",
"1234 408 CURVE SMOOTH",
"1234 692 OFFCURVE",
"1044 849 OFFCURVE",
"718 849 CURVE SMOOTH",
"567 849 LINE",
"567 694 LINE",
"714 694 LINE SMOOTH",
"922 694 OFFCURVE",
"1034 609 OFFCURVE",
"1034 404 CURVE SMOOTH",
"1034 252 OFFCURVE",
"926 139 OFFCURVE",
"738 139 CURVE SMOOTH",
"642 139 OFFCURVE",
"567 164 OFFCURVE",
"512 190 CURVE"
);
}
);
width = 1323;
},
{
guideLines = (
{
position = "{0, 1522}";
}
);
layerId = "0FAE9C79-C14E-4D62-87C8-5A68E12B9849";
paths = (
{
closed = 1;
nodes = (
"400 958 LINE",
"77 958 LINE",
"77 0 LINE",
"400 0 LINE"
);
},
{
closed = 1;
nodes = (
"400 956 LINE",
"400 1157 OFFCURVE",
"488 1217 OFFCURVE",
"603 1217 CURVE SMOOTH",
"713 1217 OFFCURVE",
"794 1179 OFFCURVE",
"864 1127 CURVE",
"608 844 LINE",
"608 719 LINE",
"830 719 LINE",
"1267 1219 LINE",
"1054 1381 OFFCURVE",
"855 1477 OFFCURVE",
"603 1477 CURVE SMOOTH",
"250 1477 OFFCURVE",
"77 1299 OFFCURVE",
"77 956 CURVE"
);
},
{
closed = 1;
nodes = (
"480 41 LINE",
"561 7 OFFCURVE",
"669 -21 OFFCURVE",
"828 -21 CURVE SMOOTH",
"1100 -21 OFFCURVE",
"1328 125 OFFCURVE",
"1328 423 CURVE SMOOTH",
"1328 709 OFFCURVE",
"1131 860 OFFCURVE",
"792 860 CURVE",
"608 839 LINE",
"608 650 LINE",
"739 650 LINE SMOOTH",
"913 650 OFFCURVE",
"1006 595 OFFCURVE",
"1006 423 CURVE SMOOTH",
"1006 307 OFFCURVE",
"924 239 OFFCURVE",
"784 239 CURVE SMOOTH",
"693 239 OFFCURVE",
"612 268 OFFCURVE",
"572 285 CURVE"
);
}
);
width = 1414;
}
);
unicode = 1E9E;
},
{
glyphname = T;
lastChange = "2016-01-02 15:30:31 +0000";
layers = (
{
anchors = (
{
name = bottom;
position = "{612, 0}";
},
{
name = bottom_dd;
position = "{1224, -407}";
},
{
name = cross;
position = "{600, 872}";
},
{
name = right;
position = "{639, 0}";
},
{
name = top;
position = "{609, 1604}";
},
{
name = top0315;
position = "{1224, 1604}";
},
{
name = top_dd;
position = "{1224, 1600}";
}
);
layerId = "445B0B85-2678-4800-8A4D-B1A9856CF63B";
paths = (
{
closed = 1;
nodes = (
"639 1456 LINE",
"585 1456 LINE",
"585 0 LINE",
"639 0 LINE"
);
},
{
closed = 1;
nodes = (
"1169 1456 LINE",
"55 1456 LINE",
"55 1402 LINE",
"1169 1402 LINE"
);
}
);
width = 1224;
},
{
anchors = (
{
name = bottom;
position = "{614, 0}";
},
{
name = bottom_dd;
position = "{1222, -407}";
},
{
name = cross;
position = "{619, 897}";
},
{
name = right;
position = "{710, 0}";
},
{
name = top;
position = "{612, 1600}";
},
{
name = top0315;
position = "{1222, 1600}";
},
{
name = top_dd;
position = "{1222, 1600}";
}
);
layerId = "3A1161A8-2FC1-4350-92D1-D5E808DF9456";
paths = (
{
closed = 1;
nodes = (
"715 1456 LINE",
"509 1456 LINE",
"509 0 LINE",
"715 0 LINE"
);
},
{
closed = 1;
nodes = (
"1176 1456 LINE",
"49 1456 LINE",
"49 1289 LINE",
"1176 1289 LINE"
);
}
);
width = 1222;
},
{
anchors = (
{
name = bottom;
position = "{634, 10}";
},
{
name = bottom_dd;
position = "{1284, -407}";
},
{
name = cross;
position = "{606, 814}";
},
{
name = right;
position = "{764, 0}";
},
{
name = top;
position = "{634, 1600}";
},
{
name = top0315;
position = "{1284, 1600}";
},
{
name = top_dd;
position = "{1284, 1600}";
}
);
guideLines = (
{
position = "{0, 1200}";
}
);
layerId = "0FAE9C79-C14E-4D62-87C8-5A68E12B9849";
paths = (
{
closed = 1;
nodes = (
"805 1456 LINE",
"470 1456 LINE",
"470 0 LINE",
"805 0 LINE"
);
},
{
closed = 1;
nodes = (
"1245 1456 LINE",
"38 1456 LINE",
"38 1185 LINE",
"1245 1185 LINE"
);
}
);
width = 1284;
}
);
unicode = 0054;
},
{
glyphname = U;
lastChange = "2016-01-02 15:30:31 +0000";
layers = (
{
anchors = (
{
name = bottom;
position = "{683, 0}";
},
{
name = bottom_dd;
position = "{1365, -407}";
},
{
name = ogonek;
position = "{936, 33}";
},
{
name = right;
position = "{799, 0}";
},
{
name = top;
position = "{697, 1612}";
},
{
name = top0315;
position = "{1365, 1612}";
},
{
name = top_dd;
position = "{1365, 1600}";
}
);
guideLines = (
{
position = "{0, 901}";
},
{
position = "{0, 555}";
}
);
layerId = "445B0B85-2678-4800-8A4D-B1A9856CF63B";
paths = (
{
closed = 1;
nodes = (
"1126 1456 LINE",
"1126 469 LINE SMOOTH",
"1126 188 OFFCURVE",
"935 34 OFFCURVE",
"683 34 CURVE SMOOTH",
"431 34 OFFCURVE",
"239 188 OFFCURVE",
"239 469 CURVE SMOOTH",
"239 1456 LINE",
"185 1456 LINE",
"185 469 LINE",
"185 142 OFFCURVE",
"399 -20 OFFCURVE",
"683 -20 CURVE SMOOTH",
"967 -20 OFFCURVE",
"1180 142 OFFCURVE",
"1180 469 CURVE",
"1180 1456 LINE"
);
}
);
width = 1365;
},
{
anchors = (
{
name = bottom;
position = "{664, 0}";
},
{
name = bottom_dd;
position = "{1324, -407}";
},
{
name = ogonek;
position = "{941, 45}";
},
{
name = right;
position = "{838, 0}";
},
{
name = top;
position = "{664, 1600}";
},
{
name = top0315;
position = "{1324, 1600}";
},
{
name = top_dd;
position = "{1324, 1600}";
}
);
guideLines = (
{
position = "{0, 901}";
},
{
position = "{0, 555}";
},
{
angle = 90;
position = "{664, 0}";
}
);
layerId = "3A1161A8-2FC1-4350-92D1-D5E808DF9456";
paths = (
{
closed = 1;
nodes = (
"988 1456 LINE",
"988 471 LINE SMOOTH",
"988 248 OFFCURVE",
"860 146 OFFCURVE",
"664 146 CURVE SMOOTH",
"470 146 OFFCURVE",
"341 248 OFFCURVE",
"341 471 CURVE SMOOTH",
"341 1456 LINE",
"135 1456 LINE",
"135 471 LINE",
"135 143 OFFCURVE",
"366 -20 OFFCURVE",
"664 -20 CURVE SMOOTH",
"946 -20 OFFCURVE",
"1196 143 OFFCURVE",
"1196 471 CURVE",
"1196 1456 LINE"
);
}
);
width = 1324;
},
{
anchors = (
{
name = bottom;
position = "{673, 0}";
},
{
name = bottom_dd;
position = "{1357, -407}";
},
{
name = ogonek;
position = "{1039, 76}";
},
{
name = right;
position = "{836, 0}";
},
{
name = top;
position = "{673, 1600}";
},
{
name = top0315;
position = "{1357, 1600}";
},
{
name = top_dd;
position = "{1357, 1600}";
}
);
guideLines = (
{
position = "{0, 901}";
},
{
position = "{0, 555}";
},
{
position = "{0, 1129}";
}
);
layerId = "0FAE9C79-C14E-4D62-87C8-5A68E12B9849";
paths = (
{
closed = 1;
nodes = (
"911 1456 LINE",
"911 505 LINE SMOOTH",
"911 325 OFFCURVE",
"829 250 OFFCURVE",
"679 250 CURVE SMOOTH",
"530 250 OFFCURVE",
"445 325 OFFCURVE",
"445 505 CURVE SMOOTH",
"445 1456 LINE",
"109 1456 LINE",
"109 505 LINE",
"109 164 OFFCURVE",
"342 -20 OFFCURVE",
"679 -20 CURVE SMOOTH",
"1017 -20 OFFCURVE",
"1246 164 OFFCURVE",
"1246 505 CURVE",
"1246 1456 LINE"
);
}
);
width = 1357;
}
);
unicode = 0055;
userData = {
com.typemytype.robofont.guides = (
{
angle = 0;
isGlobal = 0;
magnetic = 5;
x = 0;
y = 901;
},
{
angle = 0;
isGlobal = 0;
magnetic = 5;
x = 0;
y = 555;
}
);
};
},
{
glyphname = V;
lastChange = "2016-01-02 15:30:31 +0000";
layers = (
{
anchors = (
{
name = bottom;
position = "{614, 10}";
},
{
name = bottom_dd;
position = "{1223, -407}";
},
{
name = top;
position = "{611, 1612}";
},
{
name = top0315;
position = "{1223, 1612}";
},
{
name = top_dd;
position = "{1223, 1600}";
}
);
guideLines = (
{
position = "{0, 901}";
},
{
position = "{0, 555}";
}
);
layerId = "445B0B85-2678-4800-8A4D-B1A9856CF63B";
paths = (
{
closed = 1;
nodes = (
"641 142 LINE",
"594 0 LINE",
"645 0 LINE",
"1189 1456 LINE",
"1130 1456 LINE"
);
},
{
closed = 1;
nodes = (
"94 1456 LINE",
"35 1456 LINE",
"579 0 LINE",
"630 0 LINE",
"583 142 LINE"
);
}
);
width = 1223;
},
{
anchors = (
{
name = bottom;
position = "{660, 10}";
},
{
name = bottom_dd;
position = "{1313, -407}";
},
{
name = top;
position = "{660, 1612}";
},
{
name = top0315;
position = "{1313, 1612}";
},
{
name = top_dd;
position = "{1313, 1600}";
}
);
guideLines = (
{
position = "{0, 901}";
},
{
position = "{0, 555}";
}
);
layerId = "3A1161A8-2FC1-4350-92D1-D5E808DF9456";
paths = (
{
closed = 1;
nodes = (
"639 228 LINE",
"588 0 LINE",
"748 0 LINE",
"1287 1456 LINE",
"1061 1456 LINE"
);
},
{
closed = 1;
nodes = (
"254 1456 LINE",
"28 1456 LINE",
"566 0 LINE",
"726 0 LINE",
"672 228 LINE"
);
}
);
width = 1313;
},
{
anchors = (
{
name = bottom;
position = "{673, 10}";
},
{
name = bottom_dd;
position = "{1349, -407}";
},
{
name = top;
position = "{673, 1612}";
},
{
name = top0315;
position = "{1349, 1612}";
},
{
name = top_dd;
position = "{1349, 1600}";
}
);
guideLines = (
{
position = "{0, 901}";
},
{
position = "{0, 555}";
},
{
position = "{0, 1340}";
}
);
layerId = "0FAE9C79-C14E-4D62-87C8-5A68E12B9849";
paths = (
{
closed = 1;
nodes = (
"659 343 LINE",
"610 0 LINE",
"854 0 LINE",
"1350 1456 LINE",
"976 1456 LINE"
);
},
{
closed = 1;
nodes = (
"372 1456 LINE",
"0 1456 LINE",
"493 0 LINE",
"739 0 LINE",
"688 343 LINE"
);
}
);
width = 1349;
}
);
unicode = 0056;
userData = {
com.typemytype.robofont.guides = (
{
angle = 0;
isGlobal = 0;
magnetic = 5;
x = 0;
y = 901;
},
{
angle = 0;
isGlobal = 0;
magnetic = 5;
x = 0;
y = 555;
}
);
};
},
{
glyphname = W;
lastChange = "2016-01-02 15:30:31 +0000";
layers = (
{
anchors = (
{
name = bottom;
position = "{926, 10}";
},
{
name = bottom_dd;
position = "{1855, -407}";
},
{
name = top;
position = "{926, 1612}";
},
{
name = top0315;
position = "{1855, 1612}";
},
{
name = top_dd;
position = "{1855, 1600}";
}
);
guideLines = (
{
position = "{0, 901}";
},
{
position = "{0, 555}";
}
);
layerId = "445B0B85-2678-4800-8A4D-B1A9856CF63B";
paths = (
{
closed = 1;
nodes = (
"555 330 LINE",
"464 0 LINE",
"515 0 LINE",
"879 1214 LINE",
"957 1456 LINE",
"899 1456 LINE"
);
},
{
closed = 1;
nodes = (
"121 1456 LINE",
"61 1456 LINE",
"454 0 LINE",
"514 0 LINE",
"423 330 LINE"
);
},
{
closed = 1;
nodes = (
"1434 330 LINE",
"1341 0 LINE",
"1401 0 LINE",
"1793 1456 LINE",
"1734 1456 LINE"
);
},
{
closed = 1;
nodes = (
"959 1456 LINE",
"900 1456 LINE",
"979 1214 LINE",
"1340 0 LINE",
"1391 0 LINE",
"1301 330 LINE"
);
}
);
width = 1855;
},
{
anchors = (
{
name = bottom;
position = "{922, 10}";
},
{
name = bottom_dd;
position = "{1813, -407}";
},
{
name = top;
position = "{924, 1600}";
},
{
name = top0315;
position = "{1813, 1600}";
},
{
name = top_dd;
position = "{1813, 1600}";
}
);
guideLines = (
{
position = "{0, 901}";
},
{
position = "{0, 555}";
}
);
layerId = "3A1161A8-2FC1-4350-92D1-D5E808DF9456";
paths = (
{
closed = 1;
nodes = (
"552 450 LINE",
"448 0 LINE",
"597 0 LINE",
"902 1048 LINE",
"984 1456 LINE",
"834 1456 LINE"
);
},
{
closed = 1;
nodes = (
"268 1456 LINE",
"61 1456 LINE",
"409 0 LINE",
"556 0 LINE",
"490 471 LINE"
);
},
{
closed = 1;
nodes = (
"1346 472 LINE",
"1276 0 LINE",
"1423 0 LINE",
"1771 1456 LINE",
"1563 1456 LINE"
);
},
{
closed = 1;
nodes = (
"1007 1456 LINE",
"860 1456 LINE",
"942 1048 LINE",
"1235 0 LINE",
"1384 0 LINE",
"1281 450 LINE"
);
}
);
width = 1813;
},
{
anchors = (
{
name = bottom;
position = "{891, 10}";
},
{
name = bottom_dd;
position = "{1784, -407}";
},
{
name = top;
position = "{896, 1600}";
},
{
name = top0315;
position = "{1784, 1600}";
},
{
name = top_dd;
position = "{1784, 1600}";
}
);
guideLines = (
{
position = "{0, 901}";
},
{
position = "{0, 555}";
},
{
position = "{0, 1827}";
}
);
layerId = "0FAE9C79-C14E-4D62-87C8-5A68E12B9849";
paths = (
{
closed = 1;
nodes = (
"459 132 LINE",
"498 0 LINE",
"684 0 LINE",
"993 1343 LINE",
"918 1456 LINE",
"748 1456 LINE"
);
},
{
closed = 1;
nodes = (
"359 1456 LINE",
"26 1456 LINE",
"340 0 LINE",
"552 0 LINE",
"601 122 LINE"
);
},
{
closed = 1;
nodes = (
"1183 129 LINE",
"1230 0 LINE",
"1442 0 LINE",
"1755 1456 LINE",
"1423 1456 LINE"
);
},
{
closed = 1;
nodes = (
"1032 1456 LINE",
"863 1456 LINE",
"785 1345 LINE",
"1098 0 LINE",
"1284 0 LINE",
"1326 124 LINE"
);
}
);
width = 1784;
}
);
unicode = 0057;
userData = {
com.typemytype.robofont.guides = (
{
angle = 0;
isGlobal = 0;
magnetic = 5;
x = 0;
y = 901;
},
{
angle = 0;
isGlobal = 0;
magnetic = 5;
x = 0;
y = 555;
}
);
};
},
{
glyphname = X;
lastChange = "2016-01-02 15:30:31 +0000";
layers = (
{
anchors = (
{
name = bottom;
position = "{655, 10}";
},
{
name = bottom_dd;
position = "{1223, -407}";
},
{
name = cross;
position = "{612, 748}";
},
{
name = right;
position = "{1120, 0}";
},
{
name = top;
position = "{663, 1612}";
},
{
name = top0315;
position = "{1223, 1612}";
},
{
name = top_dd;
position = "{1223, 1600}";
}
);
guideLines = (
{
position = "{0, 901}";
},
{
position = "{0, 555}";
},
{
angle = 90;
position = "{709, 0}";
}
);
layerId = "445B0B85-2678-4800-8A4D-B1A9856CF63B";
paths = (
{
closed = 1;
nodes = (
"141 1456 LINE",
"73 1456 LINE",
"577 743 LINE",
"54 0 LINE",
"119 0 LINE",
"611 701 LINE",
"1101 0 LINE",
"1168 0 LINE",
"645 743 LINE",
"1149 1456 LINE",
"1081 1456 LINE",
"611 785 LINE"
);
}
);
width = 1223;
},
{
anchors = (
{
name = bottom;
position = "{644, 10}";
},
{
name = bottom_dd;
position = "{1291, -407}";
},
{
name = cross;
position = "{647, 742}";
},
{
name = right;
position = "{1109, 0}";
},
{
name = top;
position = "{652, 1612}";
},
{
name = top0315;
position = "{1291, 1612}";
},
{
name = top_dd;
position = "{1291, 1600}";
}
);
guideLines = (
{
position = "{0, 901}";
},
{
position = "{0, 555}";
},
{
angle = 90;
position = "{698, 0}";
}
);
layerId = "3A1161A8-2FC1-4350-92D1-D5E808DF9456";
paths = (
{
closed = 1;
nodes = (
"311 1456 LINE",
"68 1456 LINE",
"524 734 LINE",
"58 0 LINE",
"303 0 LINE",
"648 557 LINE",
"992 0 LINE",
"1237 0 LINE",
"772 734 LINE",
"1227 1456 LINE",
"984 1456 LINE",
"648 908 LINE"
);
}
);
width = 1291;
},
{
anchors = (
{
name = bottom;
position = "{654, 19}";
},
{
name = bottom_dd;
position = "{1306, -407}";
},
{
name = cross;
position = "{650, 742}";
},
{
name = right;
position = "{1136, 0}";
},
{
name = top;
position = "{638, 1612}";
},
{
name = top0315;
position = "{1306, 1612}";
},
{
name = top_dd;
position = "{1306, 1600}";
}
);
guideLines = (
{
position = "{0, 901}";
},
{
position = "{0, 555}";
},
{
position = "{0, 1269}";
},
{
angle = 90;
position = "{623, 0}";
}
);
layerId = "0FAE9C79-C14E-4D62-87C8-5A68E12B9849";
paths = (
{
closed = 1;
nodes = (
"404 1456 LINE",
"21 1456 LINE",
"433 734 LINE",
"10 0 LINE",
"397 0 LINE",
"653 493 LINE",
"909 0 LINE",
"1296 0 LINE",
"873 734 LINE",
"1285 1456 LINE",
"902 1456 LINE",
"653 972 LINE"
);
}
);
width = 1306;
}
);
unicode = 0058;
userData = {
com.typemytype.robofont.guides = (
{
angle = 0;
isGlobal = 0;
magnetic = 5;
x = 0;
y = 901;
},
{
angle = 0;
isGlobal = 0;
magnetic = 5;
x = 0;
y = 555;
},
{
angle = 90;
isGlobal = 0;
magnetic = 5;
x = 709;
y = 0;
}
);
};
},
{
glyphname = Y;
lastChange = "2016-01-02 15:30:31 +0000";
layers = (
{
anchors = (
{
name = bottom;
position = "{612, 10}";
},
{
name = bottom_dd;
position = "{1223, -407}";
},
{
name = cross;
position = "{609, 583}";
},
{
name = tonos;
position = "{-72, 1454}";
},
{
name = top;
position = "{608, 1601}";
},
{
name = top0315;
position = "{1223, 1601}";
},
{
name = top_dd;
position = "{1223, 1600}";
}
);
guideLines = (
{
position = "{0, 901}";
},
{
position = "{0, 555}";
}
);
layerId = "445B0B85-2678-4800-8A4D-B1A9856CF63B";
paths = (
{
closed = 1;
nodes = (
"105 1456 LINE",
"33 1456 LINE",
"582 553 LINE",
"582 0 LINE",
"636 0 LINE",
"636 553 LINE",
"1185 1456 LINE",
"1119 1456 LINE",
"609 602 LINE"
);
}
);
width = 1223;
},
{
anchors = (
{
name = bottom;
position = "{615, 0}";
},
{
name = bottom_dd;
position = "{1231, -407}";
},
{
name = cross;
position = "{614, 594}";
},
{
name = tonos;
position = "{-63, 1454}";
},
{
name = top;
position = "{619, 1600}";
},
{
name = top0315;
position = "{1231, 1600}";
},
{
name = top_dd;
position = "{1231, 1600}";
}
);
guideLines = (
{
position = "{0, 901}";
},
{
position = "{0, 555}";
}
);
layerId = "3A1161A8-2FC1-4350-92D1-D5E808DF9456";
paths = (
{
closed = 1;
nodes = (
"250 1456 LINE",
"13 1456 LINE",
"510 543 LINE",
"510 0 LINE",
"718 0 LINE",
"718 543 LINE",
"1215 1456 LINE",
"979 1456 LINE",
"614 736 LINE"
);
}
);
width = 1231;
},
{
anchors = (
{
name = bottom;
position = "{638, 47}";
},
{
name = bottom_dd;
position = "{1280, -407}";
},
{
name = cross;
position = "{644, 604}";
},
{
name = tonos;
position = "{-72, 1454}";
},
{
name = top;
position = "{641, 1600}";
},
{
name = top0315;
position = "{1280, 1600}";
},
{
name = top_dd;
position = "{1280, 1600}";
}
);
guideLines = (
{
position = "{0, 901}";
},
{
position = "{0, 555}";
},
{
position = "{0, 1273}";
}
);
layerId = "0FAE9C79-C14E-4D62-87C8-5A68E12B9849";
paths = (
{
closed = 1;
nodes = (
"361 1456 LINE",
"-2 1456 LINE",
"470 523 LINE",
"470 0 LINE",
"810 0 LINE",
"810 523 LINE",
"1282 1456 LINE",
"919 1456 LINE",
"640 824 LINE"
);
}
);
width = 1280;
}
);
unicode = 0059;
userData = {
com.typemytype.robofont.guides = (
{
angle = 0;
isGlobal = 0;
magnetic = 5;
x = 0;
y = 901;
},
{
angle = 0;
isGlobal = 0;
magnetic = 5;
x = 0;
y = 555;
}
);
};
},
{
glyphname = Z;
lastChange = "2016-01-02 15:30:31 +0000";
layers = (
{
anchors = (
{
name = bottom;
position = "{643, 10}";
},
{
name = bottom_dd;
position = "{1224, -407}";
},
{
name = top;
position = "{609, 1612}";
},
{
name = top0315;
position = "{1224, 1612}";
},
{
name = top_dd;
position = "{1224, 1600}";
}
);
layerId = "445B0B85-2678-4800-8A4D-B1A9856CF63B";
paths = (
{
closed = 1;
nodes = (
"1130 54 LINE",
"111 54 LINE",
"111 0 LINE",
"1130 0 LINE"
);
},
{
closed = 1;
nodes = (
"1098 1418 LINE",
"1098 1456 LINE",
"1059 1456 LINE",
"94 44 LINE",
"94 0 LINE",
"131 0 LINE"
);
},
{
closed = 1;
nodes = (
"1072 1456 LINE",
"134 1456 LINE",
"134 1403 LINE",
"1072 1403 LINE"
);
}
);
width = 1224;
},
{
anchors = (
{
name = bottom;
position = "{610, 10}";
},
{
name = bottom_dd;
position = "{1227, -407}";
},
{
name = top;
position = "{617, 1600}";
},
{
name = top0315;
position = "{1227, 1600}";
},
{
name = top_dd;
position = "{1227, 1600}";
}
);
layerId = "3A1161A8-2FC1-4350-92D1-D5E808DF9456";
paths = (
{
closed = 1;
nodes = (
"1148 166 LINE",
"165 166 LINE",
"165 0 LINE",
"1148 0 LINE"
);
},
{
closed = 1;
nodes = (
"1116 1307 LINE",
"1116 1456 LINE",
"987 1456 LINE",
"86 153 LINE",
"86 0 LINE",
"214 0 LINE"
);
},
{
closed = 1;
nodes = (
"1028 1456 LINE",
"96 1456 LINE",
"96 1289 LINE",
"1028 1289 LINE"
);
}
);
width = 1227;
},
{
anchors = (
{
name = bottom;
position = "{634, 10}";
},
{
name = bottom_dd;
position = "{1247, -407}";
},
{
name = top;
position = "{634, 1600}";
},
{
name = top0315;
position = "{1247, 1600}";
},
{
name = top_dd;
position = "{1247, 1600}";
}
);
guideLines = (
{
position = "{0, 1130}";
}
);
layerId = "0FAE9C79-C14E-4D62-87C8-5A68E12B9849";
paths = (
{
closed = 1;
nodes = (
"1195 270 LINE",
"149 270 LINE",
"149 0 LINE",
"1195 0 LINE"
);
},
{
closed = 1;
nodes = (
"1185 1276 LINE",
"1185 1456 LINE",
"954 1456 LINE",
"69 185 LINE",
"69 0 LINE",
"309 0 LINE"
);
},
{
closed = 1;
nodes = (
"1075 1456 LINE",
"66 1456 LINE",
"66 1185 LINE",
"1075 1185 LINE"
);
}
);
width = 1247;
}
);
unicode = 005A;
},
{
glyphname = K.alt;
lastChange = "2016-01-02 15:30:31 +0000";
layers = (
{
anchors = (
{
name = cross;
position = "{282, 1130}";
},
{
name = right;
position = "{1180, -35}";
}
);
layerId = "445B0B85-2678-4800-8A4D-B1A9856CF63B";
paths = (
{
closed = 1;
nodes = (
"254 1456 LINE",
"200 1456 LINE",
"200 0 LINE",
"254 0 LINE"
);
},
{
closed = 1;
nodes = (
"1181 1456 LINE",
"1110 1456 LINE",
"492 764 LINE",
"240 764 LINE",
"232 711 LINE",
"520 711 LINE"
);
},
{
closed = 1;
nodes = (
"1156 0 LINE",
"1227 0 LINE",
"508 761 LINE",
"474 714 LINE"
);
}
);
width = 1300;
},
{
anchors = (
{
name = cross;
position = "{309, 1153}";
},
{
name = right;
position = "{1187, 0}";
}
);
layerId = "3A1161A8-2FC1-4350-92D1-D5E808DF9456";
paths = (
{
closed = 1;
nodes = (
"384 1456 LINE",
"176 1456 LINE",
"176 0 LINE",
"384 0 LINE"
);
},
{
closed = 1;
nodes = (
"1278 1456 LINE",
"1020 1456 LINE",
"524 819 LINE",
"267 819 LINE",
"301 650 LINE",
"649 650 LINE"
);
},
{
closed = 1;
nodes = (
"1065 0 LINE",
"1319 0 LINE",
"649 857 LINE",
"533 677 LINE"
);
}
);
width = 1318;
},
{
anchors = (
{
name = cross;
position = "{287, 1197}";
},
{
name = right;
position = "{1255, 0}";
}
);
layerId = "0FAE9C79-C14E-4D62-87C8-5A68E12B9849";
paths = (
{
closed = 1;
nodes = (
"451 1456 LINE",
"116 1456 LINE",
"116 0 LINE",
"451 0 LINE"
);
},
{
closed = 1;
nodes = (
"1297 1456 LINE",
"891 1456 LINE",
"587 893 LINE",
"346 893 LINE",
"387 576 LINE",
"762 576 LINE"
);
},
{
closed = 1;
nodes = (
"949 0 LINE",
"1346 0 LINE",
"827 872 LINE",
"587 637 LINE"
);
}
);
width = 1325;
}
);
},
{
glyphname = R.alt;
lastChange = "2016-01-02 15:30:31 +0000";
layers = (
{
anchors = (
{
name = bottom;
position = "{606, 10}";
},
{
name = top;
position = "{606, 1612}";
},
{
name = top0315;
position = "{1340, 1612}";
}
);
layerId = "445B0B85-2678-4800-8A4D-B1A9856CF63B";
paths = (
{
closed = 1;
nodes = (
"706 683 LINE",
"716 703 LINE",
"790 703 LINE",
"1014 724 OFFCURVE",
"1137 896 OFFCURVE",
"1137 1065 CURVE",
"1137 1323 OFFCURVE",
"964 1455 OFFCURVE",
"659 1455 CURVE",
"195 1455 LINE",
"195 -1 LINE",
"249 -1 LINE",
"249 1401 LINE",
"659 1401 LINE",
"944 1401 OFFCURVE",
"1083 1281 OFFCURVE",
"1083 1065 CURVE",
"1083 899 OFFCURVE",
"970 737 OFFCURVE",
"649 737 CURVE",
"206 737 LINE",
"208 683 LINE"
);
},
{
closed = 1;
nodes = (
"692 683 LINE",
"946 683 OFFCURVE",
"1077 565 OFFCURVE",
"1077 369 CURVE",
"1077 236 LINE",
"1077 136 OFFCURVE",
"1102 54 OFFCURVE",
"1149 -1 CURVE",
"1202 -1 LINE",
"1202 24 LINE",
"1149 73 OFFCURVE",
"1131 151 OFFCURVE",
"1131 234 CURVE",
"1131 371 LINE",
"1131 574 OFFCURVE",
"1036 722 OFFCURVE",
"704 722 CURVE"
);
}
);
width = 1340;
},
{
anchors = (
{
name = bottom;
position = "{621, 10}";
},
{
name = top;
position = "{621, 1612}";
},
{
name = top0315;
position = "{1358, 1612}";
}
);
layerId = "3A1161A8-2FC1-4350-92D1-D5E808DF9456";
paths = (
{
closed = 1;
nodes = (
"738 624 LINE",
"824 643 LINE",
"842 673 LINE",
"1069 727 OFFCURVE",
"1201 850 OFFCURVE",
"1201 1039 CURVE",
"1201 1311 OFFCURVE",
"1028 1456 OFFCURVE",
"708 1456 CURVE",
"176 1456 LINE",
"176 0 LINE",
"384 0 LINE",
"384 1289 LINE",
"706 1289 LINE",
"911 1289 OFFCURVE",
"993 1190 OFFCURVE",
"993 1039 CURVE",
"993 875 OFFCURVE",
"908 790 OFFCURVE",
"687 790 CURVE",
"336 790 LINE",
"338 624 LINE"
);
},
{
closed = 1;
nodes = (
"733 624 LINE",
"887 624 OFFCURVE",
"982 521 OFFCURVE",
"982 367 CURVE",
"982 238 LINE",
"982 190 OFFCURVE",
"982 54 OFFCURVE",
"1043 0 CURVE",
"1257 0 LINE",
"1257 25 LINE",
"1205 74 OFFCURVE",
"1190 155 OFFCURVE",
"1190 236 CURVE",
"1190 369 LINE",
"1190 586 OFFCURVE",
"1089 742 OFFCURVE",
"756 742 CURVE"
);
}
);
width = 1358;
},
{
anchors = (
{
name = bottom;
position = "{634, 10}";
},
{
name = top;
position = "{634, 1612}";
},
{
name = top0315;
position = "{1330, 1612}";
}
);
guideLines = (
{
angle = 90;
position = "{1222, 0}";
}
);
hints = (
{
horizontal = 1;
place = "{-2147483648, 0}";
type = Tag;
name = hr00;
}
);
layerId = "0FAE9C79-C14E-4D62-87C8-5A68E12B9849";
paths = (
{
closed = 1;
nodes = (
"743 550 LINE",
"829 580 LINE",
"847 661 LINE",
"1072 722 OFFCURVE",
"1223 815 OFFCURVE",
"1223 1025 CURVE",
"1223 1298 OFFCURVE",
"1044 1456 OFFCURVE",
"708 1456 CURVE",
"116 1456 LINE",
"116 0 LINE",
"451 0 LINE",
"451 1185 LINE",
"685 1185 LINE",
"826 1185 OFFCURVE",
"888 1105 OFFCURVE",
"888 993 CURVE",
"888 883 OFFCURVE",
"815 820 OFFCURVE",
"676 820 CURVE",
"329 820 LINE",
"329 550 LINE"
);
},
{
closed = 1;
nodes = (
"669 550 LINE",
"812 550 OFFCURVE",
"873 478 OFFCURVE",
"873 341 CURVE",
"873 257 LINE",
"873 216 OFFCURVE",
"878 48 OFFCURVE",
"939 0 CURVE",
"1283 0 LINE",
"1283 30 LINE",
"1220 78 OFFCURVE",
"1207 212 OFFCURVE",
"1207 255 CURVE",
"1207 343 LINE",
"1207 560 OFFCURVE",
"1107 713 OFFCURVE",
"757 721 CURVE"
);
}
);
width = 1330;
}
);
},
{
glyphname = K.alt2;
lastChange = "2016-01-02 15:30:31 +0000";
layers = (
{
layerId = "445B0B85-2678-4800-8A4D-B1A9856CF63B";
paths = (
{
closed = 1;
nodes = (
"254 1456 LINE",
"200 1456 LINE",
"200 0 LINE",
"254 0 LINE"
);
},
{
closed = 1;
nodes = (
"1101 1456 LINE",
"1020 1456 LINE",
"266 747 LINE",
"220 747 LINE",
"232 711 LINE",
"307 711 LINE"
);
},
{
closed = 1;
nodes = (
"1066 0 LINE",
"1147 0 LINE",
"298 758 LINE",
"264 714 LINE"
);
}
);
width = 1300;
},
{
layerId = "3A1161A8-2FC1-4350-92D1-D5E808DF9456";
paths = (
{
closed = 1;
nodes = (
"384 1456 LINE",
"176 1456 LINE",
"176 0 LINE",
"384 0 LINE"
);
},
{
closed = 1;
nodes = (
"1249 1456 LINE",
"991 1456 LINE",
"395 815 LINE",
"267 815 LINE",
"277 720 LINE",
"574 720 LINE"
);
},
{
closed = 1;
nodes = (
"1034 0 LINE",
"1289 0 LINE",
"503 853 LINE",
"328 747 LINE"
);
}
);
width = 1346;
},
{
layerId = "0FAE9C79-C14E-4D62-87C8-5A68E12B9849";
paths = (
{
closed = 1;
nodes = (
"451 1456 LINE",
"116 1456 LINE",
"116 0 LINE",
"451 0 LINE"
);
},
{
closed = 1;
nodes = (
"1288 1456 LINE",
"874 1456 LINE",
"447 816 LINE",
"346 816 LINE",
"356 652 LINE",
"711 652 LINE"
);
},
{
closed = 1;
nodes = (
"897 0 LINE",
"1316 0 LINE",
"718 803 LINE",
"398 701 LINE"
);
}
);
width = 1322;
}
);
},
{
glyphname = C.ss06;
lastChange = "2016-01-02 15:30:31 +0000";
layers = (
{
layerId = "445B0B85-2678-4800-8A4D-B1A9856CF63B";
paths = (
{
closed = 1;
nodes = (
"1182 446 LINE",
"1142 175 OFFCURVE",
"987 33 OFFCURVE",
"717 33 CURVE SMOOTH",
"398 33 OFFCURVE",
"184 322 OFFCURVE",
"184 699 CURVE SMOOTH",
"184 759 LINE SMOOTH",
"184 1134 OFFCURVE",
"398 1423 OFFCURVE",
"717 1423 CURVE SMOOTH",
"993 1423 OFFCURVE",
"1142 1266 OFFCURVE",
"1182 1012 CURVE",
"1236 1012 LINE",
"1196 1310 OFFCURVE",
"1009 1477 OFFCURVE",
"717 1477 CURVE SMOOTH",
"361 1477 OFFCURVE",
"130 1161 OFFCURVE",
"130 757 CURVE",
"130 699 LINE",
"130 295 OFFCURVE",
"361 -21 OFFCURVE",
"717 -21 CURVE SMOOTH",
"1009 -21 OFFCURVE",
"1198 144 OFFCURVE",
"1236 446 CURVE"
);
}
);
width = 1336;
},
{
layerId = "3A1161A8-2FC1-4350-92D1-D5E808DF9456";
paths = (
{
closed = 1;
nodes = (
"1109 464 LINE",
"1078 266 OFFCURVE",
"988 145 OFFCURVE",
"758 145 CURVE SMOOTH",
"513 145 OFFCURVE",
"334 369 OFFCURVE",
"334 697 CURVE SMOOTH",
"334 760 LINE SMOOTH",
"334 1087 OFFCURVE",
"493 1310 OFFCURVE",
"748 1310 CURVE SMOOTH",
"967 1310 OFFCURVE",
"1080 1184 OFFCURVE",
"1109 987 CURVE",
"1318 987 LINE",
"1288 1274 OFFCURVE",
"1082 1477 OFFCURVE",
"748 1477 CURVE SMOOTH",
"383 1477 OFFCURVE",
"126 1192 OFFCURVE",
"126 758 CURVE",
"126 697 LINE",
"126 263 OFFCURVE",
"402 -21 OFFCURVE",
"758 -21 CURVE SMOOTH",
"1102 -21 OFFCURVE",
"1287 190 OFFCURVE",
"1317 464 CURVE"
);
}
);
width = 1418;
},
{
layerId = "0FAE9C79-C14E-4D62-87C8-5A68E12B9849";
paths = (
{
closed = 1;
nodes = (
"982 493 LINE",
"963 340 OFFCURVE",
"883 249 OFFCURVE",
"713 249 CURVE SMOOTH",
"514 249 OFFCURVE",
"409 416 OFFCURVE",
"409 706 CURVE SMOOTH",
"409 751 LINE SMOOTH",
"409 1043 OFFCURVE",
"532 1206 OFFCURVE",
"714 1206 CURVE SMOOTH",
"904 1206 OFFCURVE",
"963 1117 OFFCURVE",
"984 953 CURVE",
"1319 953 LINE",
"1289 1274 OFFCURVE",
"1090 1477 OFFCURVE",
"714 1477 CURVE SMOOTH",
"345 1477 OFFCURVE",
"74 1200 OFFCURVE",
"74 749 CURVE",
"74 706 LINE",
"74 255 OFFCURVE",
"329 -21 OFFCURVE",
"713 -21 CURVE SMOOTH",
"1075 -21 OFFCURVE",
"1287 159 OFFCURVE",
"1316 493 CURVE"
);
}
);
width = 1375;
}
);
},
{
glyphname = D.ss06;
lastChange = "2016-01-02 15:30:31 +0000";
layers = (
{
layerId = "445B0B85-2678-4800-8A4D-B1A9856CF63B";
paths = (
{
closed = 1;
nodes = (
"583 0 LINE",
"960 0 OFFCURVE",
"1244 284 OFFCURVE",
"1244 699 CURVE",
"1244 757 LINE",
"1244 1172 OFFCURVE",
"960 1456 OFFCURVE",
"583 1456 CURVE",
"242 1456 LINE",
"242 1402 LINE",
"583 1402 LINE",
"929 1402 OFFCURVE",
"1190 1135 OFFCURVE",
"1190 760 CURVE",
"1190 699 LINE SMOOTH",
"1190 321 OFFCURVE",
"929 54 OFFCURVE",
"583 54 CURVE",
"250 54 LINE",
"248 0 LINE"
);
},
{
closed = 1;
nodes = (
"254 1456 LINE",
"200 1456 LINE",
"200 0 LINE",
"254 0 LINE"
);
}
);
width = 1374;
},
{
layerId = "3A1161A8-2FC1-4350-92D1-D5E808DF9456";
paths = (
{
closed = 1;
nodes = (
"596 0 LINE",
"1009 0 OFFCURVE",
"1303 272 OFFCURVE",
"1303 707 CURVE",
"1303 748 LINE",
"1303 1183 OFFCURVE",
"1005 1456 OFFCURVE",
"615 1456 CURVE",
"263 1456 LINE",
"263 1289 LINE",
"614 1289 LINE",
"904 1289 OFFCURVE",
"1093 1093 OFFCURVE",
"1093 750 CURVE",
"1093 707 LINE SMOOTH",
"1093 382 OFFCURVE",
"910 166 OFFCURVE",
"595 166 CURVE",
"271 166 LINE",
"269 0 LINE"
);
},
{
closed = 1;
nodes = (
"384 1456 LINE",
"176 1456 LINE",
"176 0 LINE",
"384 0 LINE"
);
}
);
width = 1433;
},
{
layerId = "0FAE9C79-C14E-4D62-87C8-5A68E12B9849";
paths = (
{
closed = 1;
nodes = (
"577 0 LINE",
"1021 0 OFFCURVE",
"1305 308 OFFCURVE",
"1305 706 CURVE",
"1305 749 LINE",
"1305 1147 OFFCURVE",
"1021 1456 OFFCURVE",
"575 1456 CURVE",
"254 1456 LINE",
"254 1185 LINE",
"553 1185 LINE",
"858 1185 OFFCURVE",
"970 986 OFFCURVE",
"970 751 CURVE",
"970 706 LINE SMOOTH",
"970 469 OFFCURVE",
"857 270 OFFCURVE",
"555 270 CURVE",
"262 270 LINE",
"260 0 LINE"
);
},
{
closed = 1;
nodes = (
"451 1456 LINE",
"116 1456 LINE",
"116 0 LINE",
"451 0 LINE"
);
}
);
width = 1380;
}
);
},
{
glyphname = G.ss06;
lastChange = "2016-01-02 15:30:31 +0000";
layers = (
{
layerId = "445B0B85-2678-4800-8A4D-B1A9856CF63B";
paths = (
{
closed = 1;
nodes = (
"1248 660 LINE",
"749 660 LINE",
"749 605 LINE",
"1194 605 LINE",
"1194 181 LINE",
"1151 122 OFFCURVE",
"998 33 OFFCURVE",
"771 33 CURVE SMOOTH",
"415 33 OFFCURVE",
"184 341 OFFCURVE",
"184 720 CURVE SMOOTH",
"184 760 LINE SMOOTH",
"184 1124 OFFCURVE",
"393 1422 OFFCURVE",
"714 1422 CURVE SMOOTH",
"1030 1422 OFFCURVE",
"1161 1252 OFFCURVE",
"1192 1062 CURVE",
"1246 1062 LINE",
"1218 1295 OFFCURVE",
"1041 1476 OFFCURVE",
"714 1476 CURVE SMOOTH",
"369 1476 OFFCURVE",
"130 1161 OFFCURVE",
"130 758 CURVE SMOOTH",
"130 720 LINE SMOOTH",
"130 304 OFFCURVE",
"391 -21 OFFCURVE",
"771 -21 CURVE SMOOTH",
"1044 -21 OFFCURVE",
"1203 90 OFFCURVE",
"1248 156 CURVE"
);
}
);
width = 1428;
},
{
layerId = "3A1161A8-2FC1-4350-92D1-D5E808DF9456";
paths = (
{
closed = 1;
nodes = (
"1318 729 LINE",
"787 729 LINE",
"787 565 LINE",
"1111 565 LINE",
"1111 248 LINE",
"1075 206 OFFCURVE",
"975 145 OFFCURVE",
"784 145 CURVE SMOOTH",
"530 145 OFFCURVE",
"334 356 OFFCURVE",
"334 714 CURVE SMOOTH",
"334 742 LINE SMOOTH",
"334 1090 OFFCURVE",
"507 1310 OFFCURVE",
"750 1310 CURVE SMOOTH",
"990 1310 OFFCURVE",
"1079 1181 OFFCURVE",
"1110 1027 CURVE",
"1318 1027 LINE",
"1277 1287 OFFCURVE",
"1108 1477 OFFCURVE",
"750 1477 CURVE SMOOTH",
"391 1477 OFFCURVE",
"126 1203 OFFCURVE",
"126 740 CURVE SMOOTH",
"126 714 LINE SMOOTH",
"126 252 OFFCURVE",
"415 -21 OFFCURVE",
"784 -21 CURVE SMOOTH",
"1102 -21 OFFCURVE",
"1264 114 OFFCURVE",
"1318 194 CURVE"
);
}
);
width = 1458;
},
{
layerId = "0FAE9C79-C14E-4D62-87C8-5A68E12B9849";
paths = (
{
closed = 1;
nodes = (
"1319 761 LINE",
"753 761 LINE",
"753 519 LINE",
"983 519 LINE",
"983 298 LINE",
"956 272 OFFCURVE",
"886 249 OFFCURVE",
"775 249 CURVE SMOOTH",
"546 249 OFFCURVE",
"409 434 OFFCURVE",
"409 693 CURVE SMOOTH",
"409 753 LINE SMOOTH",
"409 1028 OFFCURVE",
"537 1206 OFFCURVE",
"734 1206 CURVE SMOOTH",
"885 1206 OFFCURVE",
"975 1125 OFFCURVE",
"994 981 CURVE",
"1318 981 LINE",
"1289 1272 OFFCURVE",
"1100 1477 OFFCURVE",
"723 1477 CURVE SMOOTH",
"343 1477 OFFCURVE",
"74 1186 OFFCURVE",
"74 751 CURVE SMOOTH",
"74 693 LINE SMOOTH",
"74 273 OFFCURVE",
"366 -21 OFFCURVE",
"775 -21 CURVE SMOOTH",
"1068 -21 OFFCURVE",
"1250 97 OFFCURVE",
"1319 179 CURVE"
);
}
);
width = 1415;
}
);
},
{
glyphname = O.ss06;
lastChange = "2016-01-02 15:30:31 +0000";
layers = (
{
layerId = "445B0B85-2678-4800-8A4D-B1A9856CF63B";
paths = (
{
closed = 1;
nodes = (
"1288 757 LINE",
"1288 1173 OFFCURVE",
"1043 1477 OFFCURVE",
"708 1477 CURVE SMOOTH",
"374 1477 OFFCURVE",
"130 1173 OFFCURVE",
"130 757 CURVE",
"130 699 LINE",
"130 283 OFFCURVE",
"376 -21 OFFCURVE",
"710 -21 CURVE SMOOTH",
"1045 -21 OFFCURVE",
"1288 283 OFFCURVE",
"1288 699 CURVE"
);
},
{
closed = 1;
nodes = (
"1234 699 LINE",
"1234 321 OFFCURVE",
"1024 33 OFFCURVE",
"710 33 CURVE SMOOTH",
"398 33 OFFCURVE",
"185 321 OFFCURVE",
"185 699 CURVE SMOOTH",
"185 759 LINE SMOOTH",
"185 1135 OFFCURVE",
"396 1423 OFFCURVE",
"708 1423 CURVE SMOOTH",
"1022 1423 OFFCURVE",
"1234 1135 OFFCURVE",
"1234 759 CURVE"
);
}
);
width = 1418;
},
{
layerId = "3A1161A8-2FC1-4350-92D1-D5E808DF9456";
paths = (
{
closed = 1;
nodes = (
"1385 749 LINE",
"1385 1176 OFFCURVE",
"1114 1477 OFFCURVE",
"755 1477 CURVE SMOOTH",
"407 1477 OFFCURVE",
"126 1176 OFFCURVE",
"126 749 CURVE",
"126 707 LINE",
"126 279 OFFCURVE",
"409 -21 OFFCURVE",
"757 -21 CURVE SMOOTH",
"1116 -21 OFFCURVE",
"1385 279 OFFCURVE",
"1385 707 CURVE"
);
},
{
closed = 1;
nodes = (
"1179 707 LINE",
"1179 373 OFFCURVE",
"1003 152 OFFCURVE",
"757 152 CURVE SMOOTH",
"526 152 OFFCURVE",
"332 373 OFFCURVE",
"332 707 CURVE SMOOTH",
"332 751 LINE SMOOTH",
"332 1082 OFFCURVE",
"524 1303 OFFCURVE",
"755 1303 CURVE SMOOTH",
"999 1303 OFFCURVE",
"1179 1082 OFFCURVE",
"1179 751 CURVE"
);
}
);
width = 1514;
},
{
layerId = "0FAE9C79-C14E-4D62-87C8-5A68E12B9849";
paths = (
{
closed = 1;
nodes = (
"1412 749 LINE",
"1412 1154 OFFCURVE",
"1139 1477 OFFCURVE",
"742 1477 CURVE SMOOTH",
"344 1477 OFFCURVE",
"74 1154 OFFCURVE",
"74 749 CURVE",
"74 707 LINE",
"74 301 OFFCURVE",
"346 -21 OFFCURVE",
"744 -21 CURVE SMOOTH",
"1141 -21 OFFCURVE",
"1412 301 OFFCURVE",
"1412 707 CURVE"
);
},
{
closed = 1;
nodes = (
"1078 707 LINE",
"1078 460 OFFCURVE",
"959 248 OFFCURVE",
"744 248 CURVE SMOOTH",
"526 248 OFFCURVE",
"409 460 OFFCURVE",
"409 707 CURVE SMOOTH",
"409 751 LINE SMOOTH",
"409 997 OFFCURVE",
"524 1207 OFFCURVE",
"742 1207 CURVE SMOOTH",
"957 1207 OFFCURVE",
"1078 997 OFFCURVE",
"1078 751 CURVE"
);
}
);
width = 1487;
}
);
},
{
glyphname = Q.ss06;
lastChange = "2016-01-02 15:30:31 +0000";
layers = (
{
layerId = "445B0B85-2678-4800-8A4D-B1A9856CF63B";
paths = (
{
closed = 1;
nodes = (
"943 73 LINE",
"902 35 LINE",
"1231 -243 LINE",
"1270 -208 LINE"
);
},
{
closed = 1;
nodes = (
"1288 747 LINE",
"1288 1163 OFFCURVE",
"1043 1477 OFFCURVE",
"708 1477 CURVE SMOOTH",
"374 1477 OFFCURVE",
"130 1163 OFFCURVE",
"130 747 CURVE SMOOTH",
"130 699 LINE SMOOTH",
"130 283 OFFCURVE",
"376 -21 OFFCURVE",
"710 -21 CURVE SMOOTH",
"1045 -21 OFFCURVE",
"1288 283 OFFCURVE",
"1288 699 CURVE SMOOTH"
);
},
{
closed = 1;
nodes = (
"1234 699 LINE",
"1234 320 OFFCURVE",
"1024 33 OFFCURVE",
"710 33 CURVE SMOOTH",
"398 33 OFFCURVE",
"185 320 OFFCURVE",
"185 699 CURVE SMOOTH",
"185 749 LINE SMOOTH",
"185 1126 OFFCURVE",
"396 1423 OFFCURVE",
"708 1423 CURVE SMOOTH",
"1022 1423 OFFCURVE",
"1234 1126 OFFCURVE",
"1234 749 CURVE SMOOTH"
);
}
);
width = 1418;
},
{
layerId = "3A1161A8-2FC1-4350-92D1-D5E808DF9456";
paths = (
{
closed = 1;
nodes = (
"936 168 LINE",
"803 37 LINE",
"1172 -253 LINE",
"1313 -125 LINE"
);
},
{
closed = 1;
nodes = (
"1385 748 LINE",
"1385 1177 OFFCURVE",
"1114 1477 OFFCURVE",
"755 1477 CURVE SMOOTH",
"407 1477 OFFCURVE",
"126 1177 OFFCURVE",
"126 748 CURVE SMOOTH",
"126 707 LINE SMOOTH",
"126 278 OFFCURVE",
"409 -21 OFFCURVE",
"757 -21 CURVE SMOOTH",
"1116 -21 OFFCURVE",
"1385 278 OFFCURVE",
"1385 707 CURVE SMOOTH"
);
},
{
closed = 1;
nodes = (
"1179 707 LINE",
"1179 372 OFFCURVE",
"1003 152 OFFCURVE",
"757 152 CURVE SMOOTH",
"526 152 OFFCURVE",
"332 372 OFFCURVE",
"332 707 CURVE SMOOTH",
"332 750 LINE SMOOTH",
"332 1083 OFFCURVE",
"524 1303 OFFCURVE",
"755 1303 CURVE SMOOTH",
"999 1303 OFFCURVE",
"1179 1083 OFFCURVE",
"1179 750 CURVE SMOOTH"
);
}
);
width = 1517;
},
{
layerId = "0FAE9C79-C14E-4D62-87C8-5A68E12B9849";
paths = (
{
closed = 1;
nodes = (
"1035 253 LINE",
"833 69 LINE",
"1196 -253 LINE",
"1405 -69 LINE"
);
},
{
closed = 1;
nodes = (
"1412 737 LINE",
"1412 1170 OFFCURVE",
"1139 1477 OFFCURVE",
"742 1477 CURVE SMOOTH",
"344 1477 OFFCURVE",
"74 1170 OFFCURVE",
"74 737 CURVE SMOOTH",
"74 718 LINE SMOOTH",
"74 285 OFFCURVE",
"346 -21 OFFCURVE",
"744 -21 CURVE SMOOTH",
"1141 -21 OFFCURVE",
"1412 285 OFFCURVE",
"1412 718 CURVE SMOOTH"
);
},
{
closed = 1;
nodes = (
"1078 718 LINE",
"1078 445 OFFCURVE",
"959 248 OFFCURVE",
"744 248 CURVE SMOOTH",
"526 248 OFFCURVE",
"409 445 OFFCURVE",
"409 718 CURVE SMOOTH",
"409 739 LINE SMOOTH",
"409 1014 OFFCURVE",
"524 1207 OFFCURVE",
"742 1207 CURVE SMOOTH",
"957 1207 OFFCURVE",
"1078 1014 OFFCURVE",
"1078 739 CURVE SMOOTH"
);
}
);
width = 1487;
}
);
},
{
glyphname = a;
lastChange = "2016-01-02 15:30:31 +0000";
layers = (
{
anchors = (
{
name = bottom;
position = "{507, 0}";
},
{
name = bottom_dd;
position = "{1081, -407}";
},
{
name = ogonek;
position = "{933, 0}";
},
{
name = rhalfring;
position = "{700, 1263}";
},
{
name = rhotichook;
position = "{878, 654}";
},
{
name = top;
position = "{577, 1292}";
},
{
name = top0315;
position = "{1081, 1292}";
},
{
name = top_dd;
position = "{1081, 1600}";
}
);
guideLines = (
{
position = "{0, 1658}";
},
{
position = "{0, 555}";
}
);
layerId = "445B0B85-2678-4800-8A4D-B1A9856CF63B";
paths = (
{
closed = 1;
nodes = (
"851 203 LINE",
"851 132 OFFCURVE",
"857 52 OFFCURVE",
"871 0 CURVE",
"933 0 LINE",
"933 9 LINE",
"915 53 OFFCURVE",
"905 140 OFFCURVE",
"905 218 CURVE SMOOTH",
"905 760 LINE",
"905 988 OFFCURVE",
"746 1102 OFFCURVE",
"521 1102 CURVE SMOOTH",
"288 1102 OFFCURVE",
"121 955 OFFCURVE",
"121 786 CURVE",
"175 784 LINE",
"175 934 OFFCURVE",
"325 1048 OFFCURVE",
"521 1048 CURVE SMOOTH",
"732 1048 OFFCURVE",
"851 942 OFFCURVE",
"851 762 CURVE"
);
},
{
closed = 1;
nodes = (
"875 604 LINE",
"592 604 LINE",
"279 604 OFFCURVE",
"92 467 OFFCURVE",
"92 274 CURVE SMOOTH",
"92 102 OFFCURVE",
"223 -20 OFFCURVE",
"425 -20 CURVE SMOOTH",
"694 -20 OFFCURVE",
"843 138 OFFCURVE",
"893 287 CURVE",
"869 337 LINE",
"805 152 OFFCURVE",
"653 33 OFFCURVE",
"425 33 CURVE SMOOTH",
"261 33 OFFCURVE",
"146 139 OFFCURVE",
"146 270 CURVE SMOOTH",
"146 434 OFFCURVE",
"316 549 OFFCURVE",
"595 549 CURVE",
"877 549 LINE"
);
}
);
width = 1081;
},
{
anchors = (
{
name = bottom;
position = "{501, 0}";
},
{
name = bottom_dd;
position = "{1118, -407}";
},
{
name = ogonek;
position = "{974, 0}";
},
{
name = rhalfring;
position = "{700, 1290}";
},
{
name = rhotichook;
position = "{879, 654}";
},
{
name = top;
position = "{582, 1290}";
},
{
name = top0315;
position = "{1118, 1290}";
},
{
name = top_dd;
position = "{1118, 1600}";
}
);
guideLines = (
{
position = "{0, 1658}";
},
{
position = "{0, 555}";
}
);
layerId = "3A1161A8-2FC1-4350-92D1-D5E808DF9456";
paths = (
{
closed = 1;
nodes = (
"771 183 LINE",
"771 123 OFFCURVE",
"782 41 OFFCURVE",
"802 0 CURVE",
"1010 0 LINE",
"1010 17 LINE",
"984 76 OFFCURVE",
"971 166 OFFCURVE",
"971 238 CURVE SMOOTH",
"971 738 LINE",
"971 981 OFFCURVE",
"803 1102 OFFCURVE",
"566 1102 CURVE SMOOTH",
"301 1102 OFFCURVE",
"133 935 OFFCURVE",
"133 782 CURVE",
"333 782 LINE",
"333 867 OFFCURVE",
"421 945 OFFCURVE",
"554 945 CURVE SMOOTH",
"697 945 OFFCURVE",
"771 864 OFFCURVE",
"771 740 CURVE"
);
},
{
closed = 1;
nodes = (
"804 661 LINE",
"596 661 LINE",
"301 661 OFFCURVE",
"111 539 OFFCURVE",
"111 303 CURVE SMOOTH",
"111 123 OFFCURVE",
"257 -20 OFFCURVE",
"480 -20 CURVE SMOOTH",
"711 -20 OFFCURVE",
"857 170 OFFCURVE",
"874 277 CURVE",
"789 370 LINE",
"789 279 OFFCURVE",
"673 151 OFFCURVE",
"510 151 CURVE SMOOTH",
"377 151 OFFCURVE",
"311 230 OFFCURVE",
"311 331 CURVE SMOOTH",
"311 462 OFFCURVE",
"425 524 OFFCURVE",
"629 524 CURVE",
"806 524 LINE"
);
}
);
width = 1118;
},
{
anchors = (
{
name = bottom;
position = "{467, 22}";
},
{
name = bottom_dd;
position = "{1091, -407}";
},
{
name = ogonek;
position = "{985, 0}";
},
{
name = rhalfring;
position = "{691, 1290}";
},
{
name = rhotichook;
position = "{856, 654}";
},
{
name = top;
position = "{540, 1290}";
},
{
name = top0315;
position = "{1091, 1290}";
},
{
name = top_dd;
position = "{1091, 1600}";
}
);
guideLines = (
{
position = "{0, 1658}";
},
{
position = "{0, 555}";
}
);
hints = (
{
horizontal = 1;
place = "{-2147483648, 0}";
type = Tag;
name = hr00;
}
);
layerId = "0FAE9C79-C14E-4D62-87C8-5A68E12B9849";
paths = (
{
closed = 1;
nodes = (
"670 272 LINE",
"670 169 OFFCURVE",
"684 66 OFFCURVE",
"715 0 CURVE",
"1038 0 LINE",
"1038 17 LINE",
"1009 71 OFFCURVE",
"993 132 OFFCURVE",
"993 273 CURVE SMOOTH",
"993 716 LINE",
"993 973 OFFCURVE",
"803 1102 OFFCURVE",
"548 1102 CURVE SMOOTH",
"262 1102 OFFCURVE",
"78 950 OFFCURVE",
"78 749 CURVE",
"400 749 LINE",
"400 828 OFFCURVE",
"448 867 OFFCURVE",
"531 867 CURVE SMOOTH",
"629 867 OFFCURVE",
"670 809 OFFCURVE",
"670 718 CURVE"
);
},
{
closed = 1;
nodes = (
"710 661 LINE",
"558 661 LINE",
"216 661 OFFCURVE",
"53 528 OFFCURVE",
"53 305 CURVE SMOOTH",
"53 113 OFFCURVE",
"218 -20 OFFCURVE",
"420 -20 CURVE SMOOTH",
"627 -20 OFFCURVE",
"709 108 OFFCURVE",
"758 214 CURVE",
"683 352 LINE",
"683 297 OFFCURVE",
"612 220 OFFCURVE",
"495 220 CURVE SMOOTH",
"424 220 OFFCURVE",
"375 262 OFFCURVE",
"375 323 CURVE SMOOTH",
"375 405 OFFCURVE",
"425 481 OFFCURVE",
"560 481 CURVE",
"712 481 LINE"
);
}
);
width = 1091;
}
);
unicode = 0061;
userData = {
com.typemytype.robofont.guides = (
{
angle = 0;
isGlobal = 0;
magnetic = 5;
x = 0;
y = 1658;
},
{
angle = 0;
isGlobal = 0;
magnetic = 5;
x = 0;
y = 555;
}
);
};
},
{
glyphname = ae;
lastChange = "2016-01-02 15:30:31 +0000";
layers = (
{
anchors = (
{
name = top;
position = "{859, 1291}";
},
{
name = top0315;
position = "{1735, 1291}";
},
{
name = top_dd;
position = "{1735, 1600}";
}
);
layerId = "445B0B85-2678-4800-8A4D-B1A9856CF63B";
paths = (
{
closed = 1;
nodes = (
"813 183 LINE",
"868 218 LINE",
"868 718 LINE",
"868 973 OFFCURVE",
"732 1102 OFFCURVE",
"521 1102 CURVE SMOOTH",
"276 1102 OFFCURVE",
"121 965 OFFCURVE",
"121 778 CURVE",
"174 771 LINE",
"174 929 OFFCURVE",
"300 1048 OFFCURVE",
"521 1048 CURVE SMOOTH",
"719 1048 OFFCURVE",
"813 928 OFFCURVE",
"813 720 CURVE"
);
},
{
closed = 1;
nodes = (
"838 630 LINE",
"523 630 LINE",
"241 630 OFFCURVE",
"93 489 OFFCURVE",
"93 284 CURVE SMOOTH",
"93 100 OFFCURVE",
"220 -20 OFFCURVE",
"448 -20 CURVE SMOOTH",
"681 -20 OFFCURVE",
"820 111 OFFCURVE",
"869 218 CURVE",
"814 229 LINE",
"794 158 OFFCURVE",
"640 32 OFFCURVE",
"447 32 CURVE SMOOTH",
"254 32 OFFCURVE",
"148 126 OFFCURVE",
"148 280 CURVE SMOOTH",
"148 438 OFFCURVE",
"266 575 OFFCURVE",
"525 575 CURVE",
"838 575 LINE"
);
},
{
closed = 1;
nodes = (
"1268 -20 CURVE",
"1460 -20 OFFCURVE",
"1559 50 OFFCURVE",
"1630 122 CURVE",
"1600 164 LINE",
"1523 86 OFFCURVE",
"1410 34 OFFCURVE",
"1268 34 CURVE SMOOTH",
"989 34 OFFCURVE",
"870 241 OFFCURVE",
"870 500 CURVE SMOOTH",
"870 564 LINE SMOOTH",
"870 832 OFFCURVE",
"1015 1048 OFFCURVE",
"1253 1048 CURVE",
"1484 1048 OFFCURVE",
"1603 880 OFFCURVE",
"1603 664 CURVE",
"1603 632 LINE",
"850 632 LINE",
"850 577 LINE",
"1657 577 LINE",
"1657 660 LINE SMOOTH",
"1657 934 OFFCURVE",
"1505 1102 OFFCURVE",
"1253 1102 CURVE SMOOTH",
"1003 1102 OFFCURVE",
"815 880 OFFCURVE",
"815 564 CURVE SMOOTH",
"815 500 LINE SMOOTH",
"815 198 OFFCURVE",
"976 -20 OFFCURVE"
);
}
);
width = 1735;
},
{
anchors = (
{
name = top;
position = "{859, 1291}";
},
{
name = top0315;
position = "{1729, 1291}";
},
{
name = top_dd;
position = "{1729, 1600}";
}
);
layerId = "3A1161A8-2FC1-4350-92D1-D5E808DF9456";
paths = (
{
closed = 1;
nodes = (
"742 183 LINE",
"936 218 LINE",
"936 718 LINE",
"936 973 OFFCURVE",
"774 1102 OFFCURVE",
"537 1102 CURVE SMOOTH",
"280 1102 OFFCURVE",
"105 965 OFFCURVE",
"105 778 CURVE",
"304 759 LINE",
"304 857 OFFCURVE",
"396 942 OFFCURVE",
"537 942 CURVE SMOOTH",
"668 942 OFFCURVE",
"742 857 OFFCURVE",
"742 720 CURVE"
);
},
{
closed = 1;
nodes = (
"785 636 LINE",
"527 636 LINE",
"232 636 OFFCURVE",
"77 516 OFFCURVE",
"77 306 CURVE SMOOTH",
"77 108 OFFCURVE",
"203 -21 OFFCURVE",
"432 -21 CURVE SMOOTH",
"688 -21 OFFCURVE",
"836 96 OFFCURVE",
"890 193 CURVE",
"789 349 LINE",
"789 266 OFFCURVE",
"612 139 OFFCURVE",
"472 139 CURVE SMOOTH",
"338 139 OFFCURVE",
"277 212 OFFCURVE",
"277 302 CURVE SMOOTH",
"277 401 OFFCURVE",
"364 489 OFFCURVE",
"529 489 CURVE",
"785 489 LINE"
);
},
{
closed = 1;
nodes = (
"1262 -21 CURVE",
"1479 -21 OFFCURVE",
"1603 68 OFFCURVE",
"1644 100 CURVE",
"1576 244 LINE",
"1510 202 OFFCURVE",
"1422 139 OFFCURVE",
"1262 139 CURVE SMOOTH",
"1037 139 OFFCURVE",
"940 311 OFFCURVE",
"940 522 CURVE SMOOTH",
"940 564 LINE SMOOTH",
"940 773 OFFCURVE",
"1038 942 OFFCURVE",
"1215 942 CURVE",
"1397 942 OFFCURVE",
"1461 817 OFFCURVE",
"1461 672 CURVE",
"1461 641 LINE",
"858 641 LINE",
"858 491 LINE",
"1661 491 LINE",
"1661 612 LINE SMOOTH",
"1661 913 OFFCURVE",
"1506 1102 OFFCURVE",
"1215 1102 CURVE SMOOTH",
"950 1104 OFFCURVE",
"752 880 OFFCURVE",
"752 564 CURVE SMOOTH",
"752 522 LINE SMOOTH",
"752 206 OFFCURVE",
"932 -21 OFFCURVE"
);
}
);
width = 1729;
},
{
anchors = (
{
name = top;
position = "{863, 1291}";
},
{
name = top0315;
position = "{1730, 1291}";
},
{
name = top_dd;
position = "{1730, 1600}";
}
);
guideLines = (
{
position = "{0, 834}";
}
);
hints = (
{
horizontal = 1;
place = "{-2147483648, 0}";
type = Tag;
name = hr01;
},
{
horizontal = 1;
place = "{-2147483648, 0}";
type = Tag;
name = hr02;
}
);
layerId = "0FAE9C79-C14E-4D62-87C8-5A68E12B9849";
paths = (
{
closed = 1;
nodes = (
"720 183 LINE",
"1032 218 LINE",
"1032 699 LINE",
"1032 967 OFFCURVE",
"856 1102 OFFCURVE",
"583 1102 CURVE SMOOTH",
"289 1102 OFFCURVE",
"100 958 OFFCURVE",
"100 759 CURVE",
"422 740 LINE",
"422 797 OFFCURVE",
"478 842 OFFCURVE",
"579 842 CURVE SMOOTH",
"670 842 OFFCURVE",
"720 789 OFFCURVE",
"720 701 CURVE"
);
},
{
closed = 1;
nodes = (
"764 655 LINE",
"575 655 LINE",
"239 655 OFFCURVE",
"63 535 OFFCURVE",
"63 324 CURVE SMOOTH",
"63 115 OFFCURVE",
"210 -20 OFFCURVE",
"479 -20 CURVE SMOOTH",
"723 -20 OFFCURVE",
"864 96 OFFCURVE",
"915 193 CURVE",
"768 349 LINE",
"768 290 OFFCURVE",
"643 212 OFFCURVE",
"540 212 CURVE SMOOTH",
"434 212 OFFCURVE",
"385 253 OFFCURVE",
"385 320 CURVE SMOOTH",
"385 388 OFFCURVE",
"451 451 OFFCURVE",
"577 451 CURVE",
"766 451 LINE"
);
},
{
closed = 1;
nodes = (
"1241 -20 CURVE",
"1416 -20 OFFCURVE",
"1572 38 OFFCURVE",
"1650 101 CURVE",
"1570 307 LINE",
"1489 269 OFFCURVE",
"1415 240 OFFCURVE",
"1282 240 CURVE SMOOTH",
"1103 240 OFFCURVE",
"1032 344 OFFCURVE",
"1032 485 CURVE SMOOTH",
"1032 564 LINE SMOOTH",
"1032 725 OFFCURVE",
"1077 842 OFFCURVE",
"1226 842 CURVE",
"1320 842 OFFCURVE",
"1368 779 OFFCURVE",
"1368 672 CURVE",
"1368 646 LINE",
"846 646 LINE",
"846 435 LINE",
"1683 435 LINE",
"1683 612 LINE SMOOTH",
"1683 913 OFFCURVE",
"1509 1102 OFFCURVE",
"1226 1102 CURVE SMOOTH",
"891 1104 OFFCURVE",
"720 880 OFFCURVE",
"720 564 CURVE SMOOTH",
"720 485 LINE SMOOTH",
"720 191 OFFCURVE",
"905 -20 OFFCURVE"
);
}
);
width = 1730;
}
);
unicode = 00E6;
},
{
glyphname = b;
lastChange = "2016-01-02 15:30:31 +0000";
layers = (
{
anchors = (
{
name = bottom;
position = "{584, -10}";
},
{
name = bottom_dd;
position = "{1121, -407}";
},
{
name = top;
position = "{577, 1612}";
},
{
name = top0315;
position = "{1121, 1612}";
},
{
name = top_dd;
position = "{1121, 1600}";
}
);
layerId = "445B0B85-2678-4800-8A4D-B1A9856CF63B";
paths = (
{
closed = 1;
nodes = (
"170 1536 LINE",
"170 0 LINE",
"224 0 LINE",
"224 210 LINE",
"224 1536 LINE"
);
},
{
closed = 1;
nodes = (
"999 552 LINE",
"999 893 OFFCURVE",
"848 1102 OFFCURVE",
"591 1102 CURVE SMOOTH",
"356 1102 OFFCURVE",
"219 948 OFFCURVE",
"172 745 CURVE",
"172 304 LINE",
"206 133 OFFCURVE",
"349 -20 OFFCURVE",
"593 -20 CURVE SMOOTH",
"849 -20 OFFCURVE",
"999 201 OFFCURVE",
"999 531 CURVE SMOOTH"
);
},
{
closed = 1;
nodes = (
"943 531 LINE",
"943 243 OFFCURVE",
"830 34 OFFCURVE",
"594 34 CURVE SMOOTH",
"367 34 OFFCURVE",
"244 166 OFFCURVE",
"208 329 CURVE",
"208 709 LINE",
"237 843 OFFCURVE",
"320 1048 OFFCURVE",
"592 1048 CURVE SMOOTH",
"830 1048 OFFCURVE",
"943 839 OFFCURVE",
"943 552 CURVE SMOOTH"
);
}
);
width = 1121;
},
{
anchors = (
{
name = bottom;
position = "{600, -10}";
},
{
name = bottom_dd;
position = "{1153, -407}";
},
{
name = top;
position = "{640, 1611}";
},
{
name = top0315;
position = "{1153, 1611}";
},
{
name = top_dd;
position = "{1153, 1600}";
}
);
layerId = "3A1161A8-2FC1-4350-92D1-D5E808DF9456";
paths = (
{
closed = 1;
nodes = (
"137 1536 LINE",
"137 0 LINE",
"320 0 LINE",
"337 210 LINE",
"337 1536 LINE"
);
},
{
closed = 1;
nodes = (
"1063 550 LINE",
"1063 879 OFFCURVE",
"912 1102 OFFCURVE",
"639 1102 CURVE SMOOTH",
"362 1102 OFFCURVE",
"230 901 OFFCURVE",
"200 572 CURVE",
"200 510 LINE",
"230 181 OFFCURVE",
"362 -20 OFFCURVE",
"641 -20 CURVE SMOOTH",
"910 -20 OFFCURVE",
"1063 214 OFFCURVE",
"1063 529 CURVE SMOOTH"
);
},
{
closed = 1;
nodes = (
"863 529 LINE",
"863 320 OFFCURVE",
"785 146 OFFCURVE",
"590 146 CURVE SMOOTH",
"411 146 OFFCURVE",
"327 287 OFFCURVE",
"296 426 CURVE",
"296 655 LINE",
"326 803 OFFCURVE",
"411 937 OFFCURVE",
"588 937 CURVE SMOOTH",
"794 937 OFFCURVE",
"863 759 OFFCURVE",
"863 550 CURVE SMOOTH"
);
}
);
width = 1153;
},
{
anchors = (
{
name = bottom;
position = "{681, -10}";
},
{
name = bottom_dd;
position = "{1153, -407}";
},
{
name = top;
position = "{676, 1600}";
},
{
name = top0315;
position = "{1153, 1600}";
},
{
name = top_dd;
position = "{1153, 1600}";
}
);
layerId = "0FAE9C79-C14E-4D62-87C8-5A68E12B9849";
paths = (
{
closed = 1;
nodes = (
"102 1536 LINE",
"102 0 LINE",
"391 0 LINE",
"424 266 LINE",
"424 1536 LINE"
);
},
{
closed = 1;
nodes = (
"1095 553 LINE",
"1095 870 OFFCURVE",
"961 1102 OFFCURVE",
"673 1102 CURVE SMOOTH",
"412 1102 OFFCURVE",
"306 856 OFFCURVE",
"264 554 CURVE",
"264 529 LINE",
"306 225 OFFCURVE",
"412 -20 OFFCURVE",
"675 -20 CURVE SMOOTH",
"961 -20 OFFCURVE",
"1095 205 OFFCURVE",
"1095 532 CURVE SMOOTH"
);
},
{
closed = 1;
nodes = (
"773 532 LINE",
"773 358 OFFCURVE",
"745 239 OFFCURVE",
"594 239 CURVE SMOOTH",
"445 239 OFFCURVE",
"394 335 OFFCURVE",
"394 502 CURVE SMOOTH",
"394 581 LINE SMOOTH",
"394 744 OFFCURVE",
"445 842 OFFCURVE",
"592 842 CURVE SMOOTH",
"741 842 OFFCURVE",
"773 710 OFFCURVE",
"773 553 CURVE SMOOTH"
);
}
);
width = 1153;
}
);
unicode = 0062;
},
{
glyphname = c;
lastChange = "2016-01-02 15:30:31 +0000";
layers = (
{
anchors = (
{
name = bottom;
position = "{547, -10}";
},
{
name = bottom_dd;
position = "{1039, -407}";
},
{
name = marktop;
position = "{547, 1290}";
},
{
name = top;
position = "{547, 1290}";
},
{
name = top0315;
position = "{1039, 1290}";
},
{
name = top_dd;
position = "{1039, 1600}";
}
);
layerId = "445B0B85-2678-4800-8A4D-B1A9856CF63B";
paths = (
{
closed = 1;
nodes = (
"539 34 CURVE SMOOTH",
"272 34 OFFCURVE",
"151 249 OFFCURVE",
"151 520 CURVE SMOOTH",
"151 562 LINE SMOOTH",
"151 831 OFFCURVE",
"272 1048 OFFCURVE",
"537 1048 CURVE",
"715 1048 OFFCURVE",
"876 940 OFFCURVE",
"886 725 CURVE",
"940 725 LINE",
"930 973 OFFCURVE",
"746 1102 OFFCURVE",
"537 1102 CURVE SMOOTH",
"258 1102 OFFCURVE",
"97 879 OFFCURVE",
"97 562 CURVE SMOOTH",
"97 520 LINE SMOOTH",
"97 203 OFFCURVE",
"258 -20 OFFCURVE",
"539 -20 CURVE",
"750 -20 OFFCURVE",
"929 108 OFFCURVE",
"940 328 CURVE",
"886 328 LINE",
"873 121 OFFCURVE",
"708 34 OFFCURVE"
);
}
);
width = 1039;
},
{
anchors = (
{
name = bottom;
position = "{531, -10}";
},
{
name = bottom_dd;
position = "{1076, -407}";
},
{
name = marktop;
position = "{531, 1290}";
},
{
name = top;
position = "{531, 1290}";
},
{
name = top0315;
position = "{1076, 1290}";
},
{
name = top_dd;
position = "{1076, 1600}";
}
);
layerId = "3A1161A8-2FC1-4350-92D1-D5E808DF9456";
paths = (
{
closed = 1;
nodes = (
"578 140 CURVE SMOOTH",
"352 140 OFFCURVE",
"292 337 OFFCURVE",
"292 520 CURVE SMOOTH",
"292 562 LINE SMOOTH",
"292 743 OFFCURVE",
"354 942 OFFCURVE",
"578 942 CURVE",
"723 942 OFFCURVE",
"813 835 OFFCURVE",
"823 709 CURVE",
"1012 709 LINE",
"1002 929 OFFCURVE",
"836 1102 OFFCURVE",
"578 1102 CURVE SMOOTH",
"248 1102 OFFCURVE",
"92 850 OFFCURVE",
"92 562 CURVE SMOOTH",
"92 520 LINE SMOOTH",
"92 232 OFFCURVE",
"247 -20 OFFCURVE",
"578 -20 CURVE",
"809 -20 OFFCURVE",
"1002 153 OFFCURVE",
"1012 343 CURVE",
"823 343 LINE",
"813 229 OFFCURVE",
"706 140 OFFCURVE"
);
}
);
width = 1076;
},
{
anchors = (
{
name = bottom;
position = "{563, 0}";
},
{
name = bottom_dd;
position = "{1066, -407}";
},
{
name = marktop;
position = "{536, 1290}";
},
{
name = top;
position = "{536, 1290}";
},
{
name = top0315;
position = "{1066, 1290}";
},
{
name = top_dd;
position = "{1066, 1600}";
}
);
layerId = "0FAE9C79-C14E-4D62-87C8-5A68E12B9849";
paths = (
{
closed = 1;
nodes = (
"555 240 CURVE SMOOTH",
"404 240 OFFCURVE",
"379 369 OFFCURVE",
"379 529 CURVE SMOOTH",
"379 552 LINE SMOOTH",
"379 708 OFFCURVE",
"405 842 OFFCURVE",
"553 842 CURVE",
"661 842 OFFCURVE",
"714 765 OFFCURVE",
"714 668 CURVE",
"1016 668 LINE",
"1016 943 OFFCURVE",
"829 1102 OFFCURVE",
"560 1102 CURVE SMOOTH",
"225 1102 OFFCURVE",
"57 865 OFFCURVE",
"57 552 CURVE SMOOTH",
"57 529 LINE SMOOTH",
"57 216 OFFCURVE",
"225 -20 OFFCURVE",
"562 -20 CURVE",
"819 -20 OFFCURVE",
"1016 142 OFFCURVE",
"1016 386 CURVE",
"714 386 LINE",
"714 294 OFFCURVE",
"653 240 OFFCURVE"
);
}
);
width = 1066;
}
);
unicode = 0063;
},
{
glyphname = d;
lastChange = "2016-01-02 15:30:31 +0000";
layers = (
{
anchors = (
{
name = bottom;
position = "{597, 0}";
},
{
name = bottom_dd;
position = "{1121, -407}";
},
{
name = caron;
position = "{1102, 1536}";
},
{
name = cross;
position = "{823, 1306}";
},
{
name = top;
position = "{536, 1620}";
},
{
name = top0315;
position = "{1121, 1620}";
},
{
name = top_dd;
position = "{1121, 1600}";
}
);
layerId = "445B0B85-2678-4800-8A4D-B1A9856CF63B";
paths = (
{
closed = 1;
nodes = (
"897 210 LINE",
"897 0 LINE",
"951 0 LINE",
"951 1536 LINE",
"897 1536 LINE"
);
},
{
closed = 1;
nodes = (
"122 531 LINE",
"122 201 OFFCURVE",
"272 -20 OFFCURVE",
"528 -20 CURVE SMOOTH",
"772 -20 OFFCURVE",
"913 133 OFFCURVE",
"947 304 CURVE",
"947 745 LINE",
"900 948 OFFCURVE",
"766 1102 OFFCURVE",
"530 1102 CURVE SMOOTH",
"273 1102 OFFCURVE",
"122 893 OFFCURVE",
"122 552 CURVE SMOOTH"
);
},
{
closed = 1;
nodes = (
"178 552 LINE",
"178 839 OFFCURVE",
"291 1048 OFFCURVE",
"529 1048 CURVE SMOOTH",
"801 1048 OFFCURVE",
"886 843 OFFCURVE",
"915 709 CURVE",
"915 329 LINE",
"879 166 OFFCURVE",
"754 34 OFFCURVE",
"527 34 CURVE SMOOTH",
"291 34 OFFCURVE",
"178 243 OFFCURVE",
"178 531 CURVE SMOOTH"
);
}
);
width = 1121;
},
{
anchors = (
{
name = bottom;
position = "{619, 0}";
},
{
name = bottom_dd;
position = "{1159, -407}";
},
{
name = caron;
position = "{1116, 1536}";
},
{
name = cross;
position = "{881, 1306}";
},
{
name = top;
position = "{550, 1611}";
},
{
name = top0315;
position = "{1159, 1611}";
},
{
name = top_dd;
position = "{1159, 1600}";
}
);
layerId = "3A1161A8-2FC1-4350-92D1-D5E808DF9456";
paths = (
{
closed = 1;
nodes = (
"815 210 LINE",
"832 0 LINE",
"1015 0 LINE",
"1015 1536 LINE",
"815 1536 LINE"
);
},
{
closed = 1;
nodes = (
"92 529 LINE",
"92 214 OFFCURVE",
"266 -20 OFFCURVE",
"520 -20 CURVE SMOOTH",
"798 -20 OFFCURVE",
"931 181 OFFCURVE",
"960 510 CURVE",
"960 572 LINE",
"931 901 OFFCURVE",
"798 1102 OFFCURVE",
"522 1102 CURVE SMOOTH",
"264 1102 OFFCURVE",
"92 879 OFFCURVE",
"92 550 CURVE SMOOTH"
);
},
{
closed = 1;
nodes = (
"292 550 LINE",
"292 759 OFFCURVE",
"375 937 OFFCURVE",
"573 937 CURVE SMOOTH",
"750 937 OFFCURVE",
"834 803 OFFCURVE",
"865 655 CURVE",
"865 426 LINE",
"824 277 OFFCURVE",
"750 146 OFFCURVE",
"571 146 CURVE SMOOTH",
"375 146 OFFCURVE",
"292 320 OFFCURVE",
"292 529 CURVE SMOOTH"
);
}
);
width = 1159;
},
{
anchors = (
{
name = bottom;
position = "{579, 0}";
},
{
name = bottom_dd;
position = "{1153, -407}";
},
{
name = caron;
position = "{1170, 1536}";
},
{
name = cross;
position = "{830, 1306}";
},
{
name = top;
position = "{479, 1600}";
},
{
name = top0315;
position = "{1153, 1600}";
},
{
name = top_dd;
position = "{1153, 1600}";
}
);
layerId = "0FAE9C79-C14E-4D62-87C8-5A68E12B9849";
paths = (
{
closed = 1;
nodes = (
"728 248 LINE",
"761 0 LINE",
"1051 0 LINE",
"1051 1536 LINE",
"728 1536 LINE"
);
},
{
closed = 1;
nodes = (
"57 528 LINE",
"57 213 OFFCURVE",
"205 -20 OFFCURVE",
"477 -20 CURVE SMOOTH",
"728 -20 OFFCURVE",
"848 227 OFFCURVE",
"889 520 CURVE",
"889 545 LINE",
"848 858 OFFCURVE",
"728 1102 OFFCURVE",
"479 1102 CURVE SMOOTH",
"205 1102 OFFCURVE",
"57 878 OFFCURVE",
"57 549 CURVE SMOOTH"
);
},
{
closed = 1;
nodes = (
"379 549 LINE",
"379 717 OFFCURVE",
"427 842 OFFCURVE",
"561 842 CURVE SMOOTH",
"695 842 OFFCURVE",
"759 748 OFFCURVE",
"759 572 CURVE SMOOTH",
"759 493 LINE SMOOTH",
"759 339 OFFCURVE",
"694 240 OFFCURVE",
"559 240 CURVE SMOOTH",
"423 240 OFFCURVE",
"379 366 OFFCURVE",
"379 528 CURVE SMOOTH"
);
}
);
width = 1153;
}
);
unicode = 0064;
},
{
glyphname = eth;
lastChange = "2016-01-02 15:30:31 +0000";
layers = (
{
layerId = "445B0B85-2678-4800-8A4D-B1A9856CF63B";
paths = (
{
closed = 1;
nodes = (
"338 1527 LINE",
"705 1390 OFFCURVE",
"987 1167 OFFCURVE",
"987 617 CURVE SMOOTH",
"987 535 LINE SMOOTH",
"987 246 OFFCURVE",
"850 38 OFFCURVE",
"633 38 CURVE SMOOTH",
"372 38 OFFCURVE",
"228 251 OFFCURVE",
"228 465 CURVE",
"228 705 OFFCURVE",
"339 895 OFFCURVE",
"601 895 CURVE",
"882 895 OFFCURVE",
"1008 699 OFFCURVE",
"1008 574 CURVE",
"1039 583 LINE",
"1039 819 OFFCURVE",
"824 953 OFFCURVE",
"601 953 CURVE",
"333 953 OFFCURVE",
"173 775 OFFCURVE",
"173 465 CURVE",
"173 194 OFFCURVE",
"361 -20 OFFCURVE",
"629 -20 CURVE SMOOTH",
"869 -20 OFFCURVE",
"1041 206 OFFCURVE",
"1041 535 CURVE",
"1041 615 LINE",
"1041 1128 OFFCURVE",
"816 1409 OFFCURVE",
"358 1577 CURVE"
);
},
{
closed = 1;
nodes = (
"991 1413 LINE",
"962 1461 LINE",
"489 1197 LINE",
"517 1149 LINE"
);
}
);
width = 1183;
},
{
layerId = "3A1161A8-2FC1-4350-92D1-D5E808DF9456";
paths = (
{
closed = 1;
nodes = (
"246 1412 LINE",
"584 1327 OFFCURVE",
"873 1097 OFFCURVE",
"873 637 CURVE SMOOTH",
"873 535 LINE SMOOTH",
"873 310 OFFCURVE",
"770 140 OFFCURVE",
"603 140 CURVE SMOOTH",
"422 140 OFFCURVE",
"321 308 OFFCURVE",
"321 468 CURVE",
"321 686 OFFCURVE",
"432 820 OFFCURVE",
"620 820 CURVE",
"802 820 OFFCURVE",
"893 703 OFFCURVE",
"893 618 CURVE",
"967 616 LINE",
"967 792 OFFCURVE",
"797 980 OFFCURVE",
"571 980 CURVE",
"314 980 OFFCURVE",
"121 776 OFFCURVE",
"121 468 CURVE",
"121 196 OFFCURVE",
"317 -20 OFFCURVE",
"599 -20 CURVE SMOOTH",
"873 -20 OFFCURVE",
"1073 206 OFFCURVE",
"1073 535 CURVE",
"1073 635 LINE",
"1073 1137 OFFCURVE",
"757 1486 OFFCURVE",
"307 1581 CURVE"
);
},
{
closed = 1;
nodes = (
"988 1417 LINE",
"910 1521 LINE",
"366 1147 LINE",
"444 1043 LINE"
);
}
);
width = 1203;
},
{
layerId = "0FAE9C79-C14E-4D62-87C8-5A68E12B9849";
paths = (
{
closed = 1;
nodes = (
"229 1335 LINE",
"517 1260 OFFCURVE",
"795 1061 OFFCURVE",
"795 658 CURVE SMOOTH",
"795 553 LINE SMOOTH",
"795 374 OFFCURVE",
"727 240 OFFCURVE",
"587 240 CURVE SMOOTH",
"465 240 OFFCURVE",
"393 336 OFFCURVE",
"393 468 CURVE",
"393 624 OFFCURVE",
"458 720 OFFCURVE",
"595 720 CURVE",
"753 720 OFFCURVE",
"828 641 OFFCURVE",
"828 580 CURVE",
"942 578 LINE",
"922 806 OFFCURVE",
"750 961 OFFCURVE",
"524 961 CURVE",
"230 961 OFFCURVE",
"71 764 OFFCURVE",
"71 468 CURVE",
"71 196 OFFCURVE",
"276 -20 OFFCURVE",
"583 -20 CURVE SMOOTH",
"891 -20 OFFCURVE",
"1118 229 OFFCURVE",
"1118 593 CURVE",
"1118 656 LINE",
"1118 1146 OFFCURVE",
"793 1486 OFFCURVE",
"331 1579 CURVE"
);
},
{
closed = 1;
nodes = (
"989 1386 LINE",
"912 1504 LINE",
"338 1148 LINE",
"416 1030 LINE"
);
}
);
width = 1170;
}
);
unicode = 00F0;
},
{
glyphname = e;
lastChange = "2016-01-02 15:30:31 +0000";
layers = (
{
anchors = (
{
name = bottom;
position = "{565, 4}";
},
{
name = bottom_dd;
position = "{1032, -407}";
},
{
name = ogonek;
position = "{832, 58}";
},
{
name = rhotichook;
position = "{926, 654}";
},
{
name = top;
position = "{567, 1291}";
},
{
name = top0315;
position = "{1032, 1291}";
},
{
name = top_dd;
position = "{1032, 1600}";
}
);
layerId = "445B0B85-2678-4800-8A4D-B1A9856CF63B";
paths = (
{
closed = 1;
nodes = (
"561 -20 CURVE",
"734 -20 OFFCURVE",
"848 52 OFFCURVE",
"920 155 CURVE",
"882 182 LINE",
"792 66 OFFCURVE",
"685 33 OFFCURVE",
"561 33 CURVE SMOOTH",
"323 33 OFFCURVE",
"141 248 OFFCURVE",
"141 518 CURVE SMOOTH",
"141 562 LINE SMOOTH",
"141 830 OFFCURVE",
"302 1048 OFFCURVE",
"541 1048 CURVE",
"758 1048 OFFCURVE",
"898 861 OFFCURVE",
"898 644 CURVE",
"898 631 LINE",
"122 631 LINE",
"122 577 LINE",
"952 577 LINE",
"952 640 LINE SMOOTH",
"952 915 OFFCURVE",
"781 1102 OFFCURVE",
"541 1102 CURVE SMOOTH",
"291 1102 OFFCURVE",
"87 878 OFFCURVE",
"87 562 CURVE SMOOTH",
"87 518 LINE SMOOTH",
"87 204 OFFCURVE",
"298 -20 OFFCURVE"
);
}
);
width = 1032;
},
{
anchors = (
{
name = bottom;
position = "{568, 0}";
},
{
name = bottom_dd;
position = "{1092, -407}";
},
{
name = ogonek;
position = "{810, 23}";
},
{
name = rhotichook;
position = "{910, 654}";
},
{
name = top;
position = "{565, 1290}";
},
{
name = top0315;
position = "{1092, 1290}";
},
{
name = top_dd;
position = "{1092, 1600}";
}
);
layerId = "3A1161A8-2FC1-4350-92D1-D5E808DF9456";
paths = (
{
closed = 1;
nodes = (
"593 -20 CURVE",
"812 -20 OFFCURVE",
"936 85 OFFCURVE",
"1006 192 CURVE",
"885 286 LINE",
"820 200 OFFCURVE",
"735 140 OFFCURVE",
"604 140 CURVE SMOOTH",
"406 140 OFFCURVE",
"294 302 OFFCURVE",
"294 502 CURVE SMOOTH",
"294 544 LINE SMOOTH",
"294 803 OFFCURVE",
"407 942 OFFCURVE",
"569 942 CURVE",
"755 942 OFFCURVE",
"808 792 OFFCURVE",
"818 655 CURVE",
"818 641 LINE",
"212 641 LINE",
"212 481 LINE",
"1018 481 LINE",
"1018 566 LINE SMOOTH",
"1018 871 OFFCURVE",
"887 1102 OFFCURVE",
"569 1102 CURVE SMOOTH",
"326 1102 OFFCURVE",
"94 900 OFFCURVE",
"94 544 CURVE SMOOTH",
"94 502 LINE SMOOTH",
"94 198 OFFCURVE",
"287 -20 OFFCURVE"
);
}
);
width = 1092;
},
{
anchors = (
{
name = bottom;
position = "{570, 0}";
},
{
name = bottom_dd;
position = "{1113, -407}";
},
{
name = ogonek;
position = "{873, 35}";
},
{
name = rhotichook;
position = "{920, 654}";
},
{
name = top;
position = "{537, 1291}";
},
{
name = top0315;
position = "{1113, 1291}";
},
{
name = top_dd;
position = "{1113, 1600}";
}
);
guideLines = (
{
angle = 90;
position = "{767, 0}";
}
);
hints = (
{
horizontal = 1;
place = "{-2147483648, 0}";
type = Tag;
name = hr01;
},
{
horizontal = 1;
place = "{-2147483648, 0}";
type = Tag;
name = hr02;
}
);
layerId = "0FAE9C79-C14E-4D62-87C8-5A68E12B9849";
paths = (
{
closed = 1;
nodes = (
"616 -20 CURVE SMOOTH",
"825 -20 OFFCURVE",
"973 75 OFFCURVE",
"1041 170 CURVE",
"891 352 LINE",
"827 272 OFFCURVE",
"733 240 OFFCURVE",
"637 240 CURVE SMOOTH",
"481 240 OFFCURVE",
"387 345 OFFCURVE",
"387 505 CURVE SMOOTH",
"387 543 LINE SMOOTH",
"387 704 OFFCURVE",
"430 842 OFFCURVE",
"579 842 CURVE SMOOTH",
"694 842 OFFCURVE",
"753 779 OFFCURVE",
"753 672 CURVE SMOOTH",
"753 646 LINE",
"192 646 LINE",
"192 435 LINE",
"1068 435 LINE",
"1068 572 LINE SMOOTH",
"1068 897 OFFCURVE",
"890 1102 OFFCURVE",
"581 1102 CURVE SMOOTH",
"246 1102 OFFCURVE",
"65 859 OFFCURVE",
"65 543 CURVE SMOOTH",
"65 505 LINE SMOOTH",
"65 221 OFFCURVE",
"268 -20 OFFCURVE"
);
}
);
width = 1113;
}
);
unicode = 0065;
},
{
glyphname = f;
lastChange = "2016-01-02 15:30:31 +0000";
layers = (
{
anchors = (
{
name = bottom;
position = "{330, 10}";
},
{
name = bottom_dd;
position = "{645, -407}";
},
{
name = top;
position = "{518, 1680}";
},
{
name = top0315;
position = "{645, 1680}";
},
{
name = top_dd;
position = "{645, 1600}";
}
);
guideLines = (
{
position = "{0, 894}";
},
{
position = "{0, 187}";
}
);
layerId = "445B0B85-2678-4800-8A4D-B1A9856CF63B";
paths = (
{
closed = 1;
nodes = (
"308 0 LINE",
"308 1236 LINE",
"308 1405 OFFCURVE",
"396 1503 OFFCURVE",
"538 1503 CURVE SMOOTH",
"592 1503 OFFCURVE",
"619 1498 OFFCURVE",
"657 1488 CURVE",
"665 1540 LINE",
"623 1553 OFFCURVE",
"578 1557 OFFCURVE",
"537 1557 CURVE SMOOTH",
"361 1557 OFFCURVE",
"254 1443 OFFCURVE",
"254 1236 CURVE",
"254 0 LINE"
);
},
{
closed = 1;
nodes = (
"594 1082 LINE",
"66 1082 LINE",
"66 1027 LINE",
"594 1027 LINE"
);
}
);
width = 645;
},
{
anchors = (
{
name = bottom;
position = "{330, 10}";
},
{
name = bottom_dd;
position = "{719, -407}";
},
{
name = top;
position = "{500, 1760}";
},
{
name = top0315;
position = "{719, 1760}";
},
{
name = top_dd;
position = "{719, 1600}";
}
);
guideLines = (
{
position = "{0, 894}";
},
{
position = "{0, 187}";
}
);
layerId = "3A1161A8-2FC1-4350-92D1-D5E808DF9456";
paths = (
{
closed = 1;
nodes = (
"429 0 LINE",
"429 1193 LINE",
"429 1320 OFFCURVE",
"496 1390 OFFCURVE",
"612 1390 CURVE SMOOTH",
"645 1390 OFFCURVE",
"683 1387 OFFCURVE",
"710 1382 CURVE",
"720 1541 LINE",
"679 1551 OFFCURVE",
"635 1557 OFFCURVE",
"593 1557 CURVE SMOOTH",
"367 1557 OFFCURVE",
"229 1428 OFFCURVE",
"229 1193 CURVE",
"229 0 LINE"
);
},
{
closed = 1;
nodes = (
"653 1082 LINE",
"60 1082 LINE",
"60 932 LINE",
"653 932 LINE"
);
}
);
width = 719;
},
{
anchors = (
{
name = bottom;
position = "{330, 10}";
},
{
name = bottom_dd;
position = "{740, -407}";
},
{
name = top;
position = "{444, 1662}";
},
{
name = top0315;
position = "{740, 1662}";
},
{
name = top_dd;
position = "{740, 1600}";
}
);
guideLines = (
{
position = "{0, 894}";
},
{
position = "{0, 187}";
}
);
hints = (
{
horizontal = 1;
place = "{-2147483648, 0}";
type = Tag;
name = hr00;
}
);
layerId = "0FAE9C79-C14E-4D62-87C8-5A68E12B9849";
paths = (
{
closed = 1;
nodes = (
"499 0 LINE",
"499 1170 LINE",
"499 1252 OFFCURVE",
"555 1297 OFFCURVE",
"655 1297 CURVE SMOOTH",
"691 1297 OFFCURVE",
"716 1294 OFFCURVE",
"740 1288 CURVE",
"740 1536 LINE",
"692 1548 OFFCURVE",
"641 1557 OFFCURVE",
"585 1557 CURVE SMOOTH",
"334 1557 OFFCURVE",
"176 1421 OFFCURVE",
"176 1170 CURVE",
"176 0 LINE"
);
},
{
closed = 1;
nodes = (
"711 1082 LINE",
"18 1082 LINE",
"18 848 LINE",
"711 848 LINE"
);
}
);
width = 740;
}
);
unicode = 0066;
userData = {
com.typemytype.robofont.guides = (
{
angle = 0;
isGlobal = 0;
magnetic = 5;
x = 0;
y = 894;
},
{
angle = 0;
isGlobal = 0;
magnetic = 5;
x = 0;
y = 187;
}
);
};
},
{
glyphname = g;
lastChange = "2016-01-02 15:30:31 +0000";
layers = (
{
anchors = (
{
name = bottom;
position = "{554, -447}";
},
{
name = bottom_dd;
position = "{1123, -407}";
},
{
name = top;
position = "{567, 1290}";
},
{
name = top0315;
position = "{1123, 1290}";
},
{
name = top_dd;
position = "{1123, 1600}";
}
);
layerId = "445B0B85-2678-4800-8A4D-B1A9856CF63B";
paths = (
{
closed = 1;
nodes = (
"895 1082 LINE",
"895 844 LINE",
"895 15 LINE SMOOTH",
"895 -228 OFFCURVE",
"774 -383 OFFCURVE",
"539 -383 CURVE SMOOTH",
"405 -383 OFFCURVE",
"309 -324 OFFCURVE",
"225 -218 CURVE",
"187 -254 LINE",
"265 -361 OFFCURVE",
"383 -436 OFFCURVE",
"541 -436 CURVE SMOOTH",
"796 -436 OFFCURVE",
"950 -262 OFFCURVE",
"950 15 CURVE SMOOTH",
"950 1082 LINE"
);
},
{
closed = 1;
nodes = (
"121 531 LINE",
"121 201 OFFCURVE",
"271 -20 OFFCURVE",
"527 -20 CURVE SMOOTH",
"771 -20 OFFCURVE",
"912 133 OFFCURVE",
"946 304 CURVE",
"946 745 LINE",
"899 948 OFFCURVE",
"764 1102 OFFCURVE",
"529 1102 CURVE SMOOTH",
"272 1102 OFFCURVE",
"121 893 OFFCURVE",
"121 552 CURVE SMOOTH"
);
},
{
closed = 1;
nodes = (
"176 552 LINE",
"176 839 OFFCURVE",
"290 1048 OFFCURVE",
"528 1048 CURVE SMOOTH",
"800 1048 OFFCURVE",
"881 843 OFFCURVE",
"910 709 CURVE",
"910 329 LINE",
"874 166 OFFCURVE",
"753 34 OFFCURVE",
"526 34 CURVE SMOOTH",
"290 34 OFFCURVE",
"176 243 OFFCURVE",
"176 531 CURVE SMOOTH"
);
}
);
width = 1123;
},
{
anchors = (
{
name = bottom;
position = "{554, -447}";
},
{
name = bottom_dd;
position = "{1153, -407}";
},
{
name = top;
position = "{555, 1290}";
},
{
name = top0315;
position = "{1153, 1290}";
},
{
name = top_dd;
position = "{1153, 1600}";
}
);
layerId = "3A1161A8-2FC1-4350-92D1-D5E808DF9456";
paths = (
{
closed = 1;
nodes = (
"836 1082 LINE",
"817 844 LINE",
"817 14 LINE SMOOTH",
"817 -170 OFFCURVE",
"706 -266 OFFCURVE",
"538 -266 CURVE SMOOTH",
"444 -266 OFFCURVE",
"341 -232 OFFCURVE",
"250 -121 CURVE",
"147 -238 LINE",
"246 -382 OFFCURVE",
"446 -426 OFFCURVE",
"553 -426 CURVE SMOOTH",
"825 -426 OFFCURVE",
"1017 -264 OFFCURVE",
"1017 24 CURVE SMOOTH",
"1017 1082 LINE"
);
},
{
closed = 1;
nodes = (
"94 529 LINE",
"94 214 OFFCURVE",
"261 -20 OFFCURVE",
"521 -20 CURVE SMOOTH",
"799 -20 OFFCURVE",
"932 181 OFFCURVE",
"962 510 CURVE",
"962 572 LINE",
"932 901 OFFCURVE",
"799 1102 OFFCURVE",
"523 1102 CURVE SMOOTH",
"259 1102 OFFCURVE",
"94 879 OFFCURVE",
"94 550 CURVE SMOOTH"
);
},
{
closed = 1;
nodes = (
"294 550 LINE",
"294 759 OFFCURVE",
"376 937 OFFCURVE",
"574 937 CURVE SMOOTH",
"751 937 OFFCURVE",
"835 803 OFFCURVE",
"866 655 CURVE",
"866 426 LINE",
"825 277 OFFCURVE",
"751 146 OFFCURVE",
"572 146 CURVE SMOOTH",
"376 146 OFFCURVE",
"294 320 OFFCURVE",
"294 529 CURVE SMOOTH"
);
}
);
width = 1153;
},
{
anchors = (
{
name = bottom;
position = "{554, -447}";
},
{
name = bottom_dd;
position = "{1176, -407}";
},
{
name = top;
position = "{554, 1290}";
},
{
name = top0315;
position = "{1176, 1290}";
},
{
name = top_dd;
position = "{1176, 1600}";
}
);
layerId = "0FAE9C79-C14E-4D62-87C8-5A68E12B9849";
paths = (
{
closed = 1;
nodes = (
"782 1082 LINE",
"751 826 LINE",
"751 44 LINE SMOOTH",
"751 -96 OFFCURVE",
"669 -177 OFFCURVE",
"521 -177 CURVE SMOOTH",
"411 -177 OFFCURVE",
"326 -128 OFFCURVE",
"268 -66 CURVE",
"131 -264 LINE",
"221 -370 OFFCURVE",
"392 -426 OFFCURVE",
"533 -426 CURVE SMOOTH",
"856 -426 OFFCURVE",
"1074 -258 OFFCURVE",
"1074 42 CURVE SMOOTH",
"1074 1082 LINE"
);
},
{
closed = 1;
nodes = (
"60 528 LINE",
"60 213 OFFCURVE",
"228 -20 OFFCURVE",
"500 -20 CURVE SMOOTH",
"763 -20 OFFCURVE",
"869 227 OFFCURVE",
"912 520 CURVE",
"912 545 LINE",
"869 858 OFFCURVE",
"795 1102 OFFCURVE",
"502 1102 CURVE SMOOTH",
"228 1102 OFFCURVE",
"60 878 OFFCURVE",
"60 549 CURVE SMOOTH"
);
},
{
closed = 1;
nodes = (
"382 549 LINE",
"382 717 OFFCURVE",
"450 842 OFFCURVE",
"584 842 CURVE SMOOTH",
"731 842 OFFCURVE",
"792 748 OFFCURVE",
"792 572 CURVE SMOOTH",
"792 493 LINE SMOOTH",
"792 339 OFFCURVE",
"731 240 OFFCURVE",
"582 240 CURVE SMOOTH",
"446 240 OFFCURVE",
"382 366 OFFCURVE",
"382 528 CURVE SMOOTH"
);
}
);
width = 1176;
}
);
unicode = 0067;
},
{
glyphname = h;
lastChange = "2016-01-02 15:30:31 +0000";
layers = (
{
anchors = (
{
name = bottom;
position = "{572, 10}";
},
{
name = bottom_dd;
position = "{1121, -407}";
},
{
name = cross;
position = "{330, 1306}";
},
{
name = right;
position = "{955, 0}";
},
{
name = top;
position = "{473, 1611}";
},
{
name = top0315;
position = "{1121, 1611}";
},
{
name = top_dd;
position = "{1121, 1600}";
}
);
guideLines = (
{
position = "{0, 901}";
},
{
position = "{0, 555}";
}
);
layerId = "445B0B85-2678-4800-8A4D-B1A9856CF63B";
paths = (
{
closed = 1;
nodes = (
"226 1536 LINE",
"172 1536 LINE",
"172 0 LINE",
"226 0 LINE"
);
},
{
closed = 1;
nodes = (
"217 634 LINE",
"226 763 OFFCURVE",
"335 1049 OFFCURVE",
"607 1049 CURVE",
"779 1049 OFFCURVE",
"900 975 OFFCURVE",
"900 700 CURVE SMOOTH",
"900 0 LINE",
"954 0 LINE",
"954 700 LINE SMOOTH",
"954 987 OFFCURVE",
"829 1102 OFFCURVE",
"610 1102 CURVE SMOOTH",
"375 1102 OFFCURVE",
"215 904 OFFCURVE",
"188 691 CURVE"
);
}
);
width = 1121;
},
{
anchors = (
{
name = bottom;
position = "{590, 10}";
},
{
name = bottom_dd;
position = "{1129, -407}";
},
{
name = cross;
position = "{281, 1306}";
},
{
name = right;
position = "{996, 0}";
},
{
name = top;
position = "{504, 1611}";
},
{
name = top0315;
position = "{1129, 1611}";
},
{
name = top_dd;
position = "{1129, 1600}";
}
);
guideLines = (
{
position = "{0, 901}";
},
{
position = "{0, 555}";
}
);
layerId = "3A1161A8-2FC1-4350-92D1-D5E808DF9456";
paths = (
{
closed = 1;
nodes = (
"337 1536 LINE",
"137 1536 LINE",
"137 0 LINE",
"337 0 LINE"
);
},
{
closed = 1;
nodes = (
"289 578 LINE",
"289 778 OFFCURVE",
"414 937 OFFCURVE",
"588 937 CURVE SMOOTH",
"725 937 OFFCURVE",
"796 872 OFFCURVE",
"796 712 CURVE SMOOTH",
"796 0 LINE",
"996 0 LINE",
"996 710 LINE SMOOTH",
"996 993 OFFCURVE",
"861 1102 OFFCURVE",
"649 1102 CURVE SMOOTH",
"384 1102 OFFCURVE",
"207 880 OFFCURVE",
"207 576 CURVE"
);
}
);
width = 1129;
},
{
anchors = (
{
name = bottom;
position = "{581, 10}";
},
{
name = bottom_dd;
position = "{1153, -407}";
},
{
name = cross;
position = "{296, 1302}";
},
{
name = right;
position = "{1056, 0}";
},
{
name = top;
position = "{532, 1693}";
},
{
name = top0315;
position = "{1153, 1693}";
},
{
name = top_dd;
position = "{1153, 1600}";
}
);
guideLines = (
{
position = "{0, 901}";
},
{
position = "{0, 555}";
}
);
layerId = "0FAE9C79-C14E-4D62-87C8-5A68E12B9849";
paths = (
{
closed = 1;
nodes = (
"415 1536 LINE",
"93 1536 LINE",
"93 0 LINE",
"415 0 LINE"
);
},
{
closed = 1;
nodes = (
"374 578 LINE",
"374 729 OFFCURVE",
"413 842 OFFCURVE",
"573 842 CURVE SMOOTH",
"674 842 OFFCURVE",
"733 806 OFFCURVE",
"733 674 CURVE SMOOTH",
"733 0 LINE",
"1056 0 LINE",
"1056 672 LINE SMOOTH",
"1056 986 OFFCURVE",
"909 1102 OFFCURVE",
"695 1102 CURVE SMOOTH",
"454 1102 OFFCURVE",
"295 880 OFFCURVE",
"295 576 CURVE"
);
}
);
width = 1153;
}
);
unicode = 0068;
userData = {
com.typemytype.robofont.guides = (
{
angle = 0;
isGlobal = 0;
magnetic = 5;
x = 0;
y = 901;
},
{
angle = 0;
isGlobal = 0;
magnetic = 5;
x = 0;
y = 555;
}
);
};
},
{
glyphname = i;
lastChange = "2016-01-02 15:30:31 +0000";
layers = (
{
anchors = (
{
name = bottom;
position = "{210, 10}";
},
{
name = bottom_dd;
position = "{422, -407}";
},
{
name = ogonek;
position = "{238, 0}";
},
{
name = rhotichook;
position = "{212, 654}";
},
{
name = top;
position = "{218, 1600}";
},
{
name = top0315;
position = "{422, 1600}";
},
{
name = top_dd;
position = "{422, 1600}";
}
);
guideLines = (
{
position = "{0, 901}";
},
{
position = "{0, 555}";
}
);
layerId = "445B0B85-2678-4800-8A4D-B1A9856CF63B";
paths = (
{
closed = 1;
nodes = (
"239 1082 LINE",
"185 1082 LINE",
"185 0 LINE",
"239 0 LINE"
);
},
{
closed = 1;
nodes = (
"157 1420 CURVE SMOOTH",
"157 1389 OFFCURVE",
"181 1365 OFFCURVE",
"212 1365 CURVE SMOOTH",
"243 1365 OFFCURVE",
"268 1389 OFFCURVE",
"268 1420 CURVE SMOOTH",
"268 1451 OFFCURVE",
"243 1476 OFFCURVE",
"212 1476 CURVE SMOOTH",
"181 1476 OFFCURVE",
"157 1451 OFFCURVE"
);
}
);
width = 422;
},
{
anchors = (
{
name = bottom;
position = "{253, 10}";
},
{
name = bottom_dd;
position = "{506, -407}";
},
{
name = ogonek;
position = "{336, 0}";
},
{
name = rhotichook;
position = "{284, 654}";
},
{
name = top;
position = "{255, 1600}";
},
{
name = top0315;
position = "{506, 1600}";
},
{
name = top_dd;
position = "{506, 1600}";
}
);
guideLines = (
{
position = "{0, 901}";
},
{
position = "{0, 555}";
}
);
layerId = "3A1161A8-2FC1-4350-92D1-D5E808DF9456";
paths = (
{
closed = 1;
nodes = (
"353 1082 LINE",
"153 1082 LINE",
"153 0 LINE",
"353 0 LINE"
);
},
{
closed = 1;
nodes = (
"140 1365 CURVE SMOOTH",
"140 1304 OFFCURVE",
"179 1256 OFFCURVE",
"255 1256 CURVE",
"331 1256 OFFCURVE",
"371 1304 OFFCURVE",
"371 1365 CURVE",
"371 1427 OFFCURVE",
"331 1476 OFFCURVE",
"255 1476 CURVE",
"179 1476 OFFCURVE",
"140 1427 OFFCURVE"
);
}
);
width = 506;
},
{
anchors = (
{
name = bottom;
position = "{278, 10}";
},
{
name = bottom_dd;
position = "{557, -407}";
},
{
name = ogonek;
position = "{388, 0}";
},
{
name = rhotichook;
position = "{352, 654}";
},
{
name = top;
position = "{277, 1600}";
},
{
name = top0315;
position = "{557, 1600}";
},
{
name = top_dd;
position = "{557, 1600}";
}
);
guideLines = (
{
position = "{0, 901}";
},
{
position = "{0, 555}";
}
);
layerId = "0FAE9C79-C14E-4D62-87C8-5A68E12B9849";
paths = (
{
closed = 1;
nodes = (
"440 1082 LINE",
"117 1082 LINE",
"117 0 LINE",
"440 0 LINE"
);
},
{
closed = 1;
nodes = (
"98 1361 CURVE SMOOTH",
"98 1265 OFFCURVE",
"170 1197 OFFCURVE",
"277 1197 CURVE SMOOTH",
"384 1197 OFFCURVE",
"456 1265 OFFCURVE",
"456 1361 CURVE SMOOTH",
"456 1457 OFFCURVE",
"384 1525 OFFCURVE",
"277 1525 CURVE SMOOTH",
"170 1525 OFFCURVE",
"98 1457 OFFCURVE"
);
}
);
width = 557;
}
);
unicode = 0069;
userData = {
com.typemytype.robofont.guides = (
{
angle = 0;
isGlobal = 0;
magnetic = 5;
x = 0;
y = 901;
},
{
angle = 0;
isGlobal = 0;
magnetic = 5;
x = 0;
y = 555;
}
);
};
},
{
glyphname = dotlessi;
lastChange = "2016-01-02 15:30:31 +0000";
layers = (
{
anchors = (
{
name = bottom;
position = "{210, 10}";
},
{
name = rhotichook;
position = "{212, 654}";
},
{
name = top;
position = "{209, 1269}";
},
{
name = top0315;
position = "{406, 1269}";
}
);
layerId = "445B0B85-2678-4800-8A4D-B1A9856CF63B";
paths = (
{
closed = 1;
nodes = (
"235 1082 LINE",
"181 1082 LINE",
"181 0 LINE",
"235 0 LINE"
);
}
);
width = 406;
},
{
anchors = (
{
name = bottom;
position = "{253, 10}";
},
{
name = rhotichook;
position = "{284, 654}";
},
{
name = top;
position = "{257, 1290}";
},
{
name = top0315;
position = "{518, 1290}";
}
);
layerId = "3A1161A8-2FC1-4350-92D1-D5E808DF9456";
paths = (
{
closed = 1;
nodes = (
"353 1082 LINE",
"153 1082 LINE",
"153 0 LINE",
"353 0 LINE"
);
}
);
width = 518;
},
{
anchors = (
{
name = bottom;
position = "{278, 10}";
},
{
name = rhotichook;
position = "{352, 654}";
},
{
name = top;
position = "{289, 1269}";
},
{
name = top0315;
position = "{577, 1269}";
}
);
layerId = "0FAE9C79-C14E-4D62-87C8-5A68E12B9849";
paths = (
{
closed = 1;
nodes = (
"450 1082 LINE",
"127 1082 LINE",
"127 0 LINE",
"450 0 LINE"
);
}
);
width = 577;
}
);
unicode = 0131;
},
{
glyphname = j;
lastChange = "2016-01-02 15:30:31 +0000";
layers = (
{
anchors = (
{
name = bottom;
position = "{190, -459}";
},
{
name = bottom_dd;
position = "{445, -407}";
},
{
name = top;
position = "{223, 1600}";
},
{
name = top0315;
position = "{445, 1600}";
},
{
name = top_dd;
position = "{445, 1600}";
}
);
guideLines = (
{
position = "{0, 659}";
},
{
position = "{0, 1005}";
}
);
layerId = "445B0B85-2678-4800-8A4D-B1A9856CF63B";
paths = (
{
closed = 1;
nodes = (
"186 1082 LINE",
"186 -129 LINE",
"186 -290 OFFCURVE",
"103 -383 OFFCURVE",
"-45 -383 CURVE SMOOTH",
"-82 -383 OFFCURVE",
"-119 -373 OFFCURVE",
"-140 -365 CURVE",
"-143 -417 LINE",
"-111 -430 OFFCURVE",
"-79 -437 OFFCURVE",
"-45 -437 CURVE SMOOTH",
"134 -437 OFFCURVE",
"240 -328 OFFCURVE",
"240 -129 CURVE",
"240 1082 LINE"
);
},
{
closed = 1;
nodes = (
"163 1420 CURVE SMOOTH",
"163 1389 OFFCURVE",
"187 1365 OFFCURVE",
"218 1365 CURVE SMOOTH",
"249 1365 OFFCURVE",
"274 1389 OFFCURVE",
"274 1420 CURVE SMOOTH",
"274 1451 OFFCURVE",
"249 1476 OFFCURVE",
"218 1476 CURVE SMOOTH",
"187 1476 OFFCURVE",
"163 1451 OFFCURVE"
);
}
);
width = 445;
},
{
anchors = (
{
name = bottom;
position = "{190, -459}";
},
{
name = bottom_dd;
position = "{495, -407}";
},
{
name = top;
position = "{223, 1600}";
},
{
name = top0315;
position = "{495, 1600}";
},
{
name = top_dd;
position = "{495, 1600}";
}
);
guideLines = (
{
position = "{0, 659}";
},
{
position = "{0, 1005}";
}
);
layerId = "3A1161A8-2FC1-4350-92D1-D5E808DF9456";
paths = (
{
closed = 1;
nodes = (
"142 1082 LINE",
"142 -129 LINE",
"142 -235 OFFCURVE",
"101 -271 OFFCURVE",
"27 -271 CURVE SMOOTH",
"5 -271 OFFCURVE",
"-31 -269 OFFCURVE",
"-57 -263 CURVE",
"-57 -420 LINE",
"-26 -430 OFFCURVE",
"25 -437 OFFCURVE",
"59 -437 CURVE SMOOTH",
"250 -437 OFFCURVE",
"342 -328 OFFCURVE",
"342 -129 CURVE",
"342 1082 LINE"
);
},
{
closed = 1;
nodes = (
"123 1365 CURVE SMOOTH",
"123 1304 OFFCURVE",
"162 1256 OFFCURVE",
"238 1256 CURVE SMOOTH",
"314 1256 OFFCURVE",
"354 1304 OFFCURVE",
"354 1365 CURVE SMOOTH",
"354 1427 OFFCURVE",
"314 1476 OFFCURVE",
"238 1476 CURVE SMOOTH",
"162 1476 OFFCURVE",
"123 1427 OFFCURVE"
);
}
);
width = 495;
},
{
anchors = (
{
name = bottom;
position = "{190, -459}";
},
{
name = bottom_dd;
position = "{547, -407}";
},
{
name = top;
position = "{223, 1600}";
},
{
name = top0315;
position = "{547, 1600}";
},
{
name = top_dd;
position = "{547, 1600}";
}
);
guideLines = (
{
position = "{0, 659}";
},
{
position = "{0, 1005}";
}
);
layerId = "0FAE9C79-C14E-4D62-87C8-5A68E12B9849";
paths = (
{
closed = 1;
nodes = (
"122 1082 LINE",
"122 -35 LINE",
"122 -129 OFFCURVE",
"73 -174 OFFCURVE",
"-16 -174 CURVE SMOOTH",
"-49 -174 OFFCURVE",
"-77 -170 OFFCURVE",
"-110 -165 CURVE",
"-110 -420 LINE",
"-55 -433 OFFCURVE",
"-10 -437 OFFCURVE",
"45 -437 CURVE SMOOTH",
"294 -437 OFFCURVE",
"445 -295 OFFCURVE",
"445 -35 CURVE",
"445 1082 LINE"
);
},
{
closed = 1;
nodes = (
"98 1361 CURVE SMOOTH",
"98 1265 OFFCURVE",
"170 1197 OFFCURVE",
"277 1197 CURVE SMOOTH",
"384 1197 OFFCURVE",
"456 1265 OFFCURVE",
"456 1361 CURVE SMOOTH",
"456 1457 OFFCURVE",
"384 1525 OFFCURVE",
"277 1525 CURVE SMOOTH",
"170 1525 OFFCURVE",
"98 1457 OFFCURVE"
);
}
);
width = 547;
}
);
unicode = 006A;
userData = {
com.typemytype.robofont.guides = (
{
angle = 0;
isGlobal = 0;
magnetic = 5;
x = 0;
y = 659;
},
{
angle = 0;
isGlobal = 0;
magnetic = 5;
x = 0;
y = 1005;
}
);
};
},
{
glyphname = k;
lastChange = "2016-01-02 15:30:31 +0000";
layers = (
{
anchors = (
{
name = bottom;
position = "{518, 114}";
},
{
name = bottom_dd;
position = "{969, -407}";
},
{
name = cross;
position = "{342, 1289}";
},
{
name = marktop;
position = "{544, 1612}";
},
{
name = top;
position = "{544, 1612}";
},
{
name = top0315;
position = "{839, 1612}";
},
{
name = top_dd;
position = "{969, 1600}";
}
);
layerId = "445B0B85-2678-4800-8A4D-B1A9856CF63B";
paths = (
{
closed = 1;
nodes = (
"226 1536 LINE",
"172 1536 LINE",
"172 0 LINE",
"226 0 LINE"
);
},
{
closed = 1;
nodes = (
"922 1082 LINE",
"845 1082 LINE",
"353 627 LINE",
"196 479 LINE",
"216 440 LINE",
"383 583 LINE"
);
},
{
closed = 1;
nodes = (
"883 0 LINE",
"953 0 LINE",
"401 650 LINE",
"366 608 LINE"
);
}
);
width = 969;
},
{
anchors = (
{
name = bottom;
position = "{530, 67}";
},
{
name = bottom_dd;
position = "{1046, -407}";
},
{
name = cross;
position = "{240, 1289}";
},
{
name = marktop;
position = "{550, 1611}";
},
{
name = top;
position = "{550, 1611}";
},
{
name = top0315;
position = "{916, 1611}";
},
{
name = top_dd;
position = "{1046, 1600}";
}
);
layerId = "3A1161A8-2FC1-4350-92D1-D5E808DF9456";
paths = (
{
closed = 1;
nodes = (
"338 1536 LINE",
"138 1536 LINE",
"138 0 LINE",
"338 0 LINE"
);
},
{
closed = 1;
nodes = (
"995 1082 LINE",
"753 1082 LINE",
"434 735 LINE",
"241 502 LINE",
"256 291 LINE",
"531 577 LINE"
);
},
{
closed = 1;
nodes = (
"812 0 LINE",
"1046 0 LINE",
"543 684 LINE",
"440 508 LINE"
);
}
);
width = 1046;
},
{
anchors = (
{
name = bottom;
position = "{576, 31}";
},
{
name = bottom_dd;
position = "{1112, -407}";
},
{
name = cross;
position = "{263, 1298}";
},
{
name = marktop;
position = "{689, 1600}";
},
{
name = top;
position = "{689, 1600}";
},
{
name = top0315;
position = "{982, 1600}";
},
{
name = top_dd;
position = "{1112, 1600}";
}
);
layerId = "0FAE9C79-C14E-4D62-87C8-5A68E12B9849";
paths = (
{
closed = 1;
nodes = (
"424 1537 LINE",
"102 1537 LINE",
"102 0 LINE",
"424 0 LINE"
);
},
{
closed = 1;
nodes = (
"1112 1082 LINE",
"726 1082 LINE",
"465 766 LINE",
"261 499 LINE",
"394 285 LINE",
"643 531 LINE"
);
},
{
closed = 1;
nodes = (
"771 0 LINE",
"1140 0 LINE",
"706 670 LINE",
"473 493 LINE"
);
}
);
width = 1112;
}
);
unicode = 006B;
},
{
glyphname = l;
lastChange = "2016-01-02 15:30:31 +0000";
layers = (
{
anchors = (
{
name = bottom;
position = "{214, 10}";
},
{
name = bottom_dd;
position = "{422, -407}";
},
{
name = caron;
position = "{417, 1536}";
},
{
name = dot;
position = "{397, 794}";
},
{
name = marktop;
position = "{474, 1503}";
},
{
name = top;
position = "{214, 1673}";
},
{
name = top0315;
position = "{422, 1673}";
},
{
name = top_dd;
position = "{422, 1600}";
}
);
layerId = "445B0B85-2678-4800-8A4D-B1A9856CF63B";
paths = (
{
closed = 1;
nodes = (
"239 1536 LINE",
"185 1536 LINE",
"185 0 LINE",
"239 0 LINE"
);
}
);
width = 422;
},
{
anchors = (
{
name = bottom;
position = "{253, 10}";
},
{
name = bottom_dd;
position = "{506, -407}";
},
{
name = caron;
position = "{483, 1536}";
},
{
name = dot;
position = "{477, 774}";
},
{
name = marktop;
position = "{573, 1543}";
},
{
name = top;
position = "{253, 1699}";
},
{
name = top0315;
position = "{506, 1699}";
},
{
name = top_dd;
position = "{506, 1600}";
}
);
layerId = "3A1161A8-2FC1-4350-92D1-D5E808DF9456";
paths = (
{
closed = 1;
nodes = (
"353 1536 LINE",
"153 1536 LINE",
"153 0 LINE",
"353 0 LINE"
);
}
);
width = 506;
},
{
anchors = (
{
name = bottom;
position = "{278, 10}";
},
{
name = bottom_dd;
position = "{557, -407}";
},
{
name = caron;
position = "{549, 1536}";
},
{
name = dot;
position = "{536, 779}";
},
{
name = marktop;
position = "{688, 1486}";
},
{
name = top;
position = "{278, 1677}";
},
{
name = top0315;
position = "{557, 1677}";
},
{
name = top_dd;
position = "{557, 1600}";
}
);
layerId = "0FAE9C79-C14E-4D62-87C8-5A68E12B9849";
paths = (
{
closed = 1;
nodes = (
"440 1536 LINE",
"117 1536 LINE",
"117 0 LINE",
"440 0 LINE"
);
}
);
width = 557;
}
);
unicode = 006C;
},
{
glyphname = m;
lastChange = "2016-01-02 15:30:31 +0000";
layers = (
{
anchors = (
{
name = bottom;
position = "{918, 10}";
},
{
name = bottom_dd;
position = "{1836, -407}";
},
{
name = marktop;
position = "{916, 1290}";
},
{
name = top;
position = "{916, 1290}";
},
{
name = top0315;
position = "{1836, 1290}";
},
{
name = top_dd;
position = "{1836, 1600}";
}
);
layerId = "445B0B85-2678-4800-8A4D-B1A9856CF63B";
paths = (
{
closed = 1;
nodes = (
"216 850 LINE",
"216 1082 LINE",
"161 1082 LINE",
"161 0 LINE",
"216 0 LINE"
);
},
{
closed = 1;
nodes = (
"209 634 LINE",
"218 763 OFFCURVE",
"324 1049 OFFCURVE",
"596 1049 CURVE SMOOTH",
"768 1049 OFFCURVE",
"892 979 OFFCURVE",
"892 720 CURVE SMOOTH",
"892 0 LINE",
"946 0 LINE",
"946 720 LINE SMOOTH",
"946 993 OFFCURVE",
"818 1102 OFFCURVE",
"599 1102 CURVE SMOOTH",
"364 1102 OFFCURVE",
"207 904 OFFCURVE",
"180 691 CURVE"
);
},
{
closed = 1;
nodes = (
"946 720 LINE",
"956 836 OFFCURVE",
"1075 1046 OFFCURVE",
"1330 1049 CURVE SMOOTH",
"1502 1051 OFFCURVE",
"1626 975 OFFCURVE",
"1626 700 CURVE SMOOTH",
"1626 0 LINE",
"1680 0 LINE",
"1680 700 LINE SMOOTH",
"1680 987 OFFCURVE",
"1552 1102 OFFCURVE",
"1333 1102 CURVE SMOOTH",
"1098 1102 OFFCURVE",
"936 936 OFFCURVE",
"909 753 CURVE"
);
}
);
width = 1836;
},
{
anchors = (
{
name = bottom;
position = "{895, 10}";
},
{
name = bottom_dd;
position = "{1791, -407}";
},
{
name = marktop;
position = "{910, 1290}";
},
{
name = top;
position = "{910, 1290}";
},
{
name = top0315;
position = "{1791, 1290}";
},
{
name = top_dd;
position = "{1791, 1600}";
}
);
layerId = "3A1161A8-2FC1-4350-92D1-D5E808DF9456";
paths = (
{
closed = 1;
nodes = (
"337 869 LINE",
"326 1082 LINE",
"137 1082 LINE",
"137 0 LINE",
"337 0 LINE"
);
},
{
closed = 1;
nodes = (
"296 578 LINE",
"296 778 OFFCURVE",
"360 937 OFFCURVE",
"571 937 CURVE SMOOTH",
"708 937 OFFCURVE",
"795 872 OFFCURVE",
"795 711 CURVE",
"795 0 LINE",
"995 0 LINE",
"995 721 LINE",
"995 992 OFFCURVE",
"845 1102 OFFCURVE",
"645 1102 CURVE SMOOTH",
"350 1102 OFFCURVE",
"203 880 OFFCURVE",
"203 576 CURVE"
);
},
{
closed = 1;
nodes = (
"993 681 LINE",
"993 824 OFFCURVE",
"1077 937 OFFCURVE",
"1230 937 CURVE SMOOTH",
"1367 937 OFFCURVE",
"1454 887 OFFCURVE",
"1454 714 CURVE SMOOTH",
"1454 0 LINE",
"1654 0 LINE",
"1654 712 LINE SMOOTH",
"1654 984 OFFCURVE",
"1523 1102 OFFCURVE",
"1290 1102 CURVE SMOOTH",
"1009 1102 OFFCURVE",
"859 878 OFFCURVE",
"859 637 CURVE"
);
}
);
width = 1791;
},
{
anchors = (
{
name = bottom;
position = "{905, 10}";
},
{
name = bottom_dd;
position = "{1767, -407}";
},
{
name = marktop;
position = "{904, 1290}";
},
{
name = top;
position = "{904, 1290}";
},
{
name = top0315;
position = "{1767, 1290}";
},
{
name = top_dd;
position = "{1767, 1600}";
}
);
layerId = "0FAE9C79-C14E-4D62-87C8-5A68E12B9849";
paths = (
{
closed = 1;
nodes = (
"424 853 LINE",
"404 1082 LINE",
"102 1082 LINE",
"102 0 LINE",
"424 0 LINE"
);
},
{
closed = 1;
nodes = (
"383 578 LINE",
"383 729 OFFCURVE",
"452 842 OFFCURVE",
"581 842 CURVE SMOOTH",
"670 842 OFFCURVE",
"722 816 OFFCURVE",
"722 679 CURVE",
"722 0 LINE",
"1044 0 LINE",
"1044 722 LINE",
"1044 992 OFFCURVE",
"914 1102 OFFCURVE",
"724 1102 CURVE SMOOTH",
"450 1102 OFFCURVE",
"304 880 OFFCURVE",
"304 576 CURVE"
);
},
{
closed = 1;
nodes = (
"1010 578 LINE",
"1010 729 OFFCURVE",
"1072 842 OFFCURVE",
"1202 842 CURVE SMOOTH",
"1289 842 OFFCURVE",
"1342 815 OFFCURVE",
"1342 681 CURVE SMOOTH",
"1342 0 LINE",
"1665 0 LINE",
"1665 681 LINE SMOOTH",
"1665 995 OFFCURVE",
"1526 1102 OFFCURVE",
"1324 1102 CURVE SMOOTH",
"1050 1102 OFFCURVE",
"911 880 OFFCURVE",
"911 576 CURVE"
);
}
);
width = 1767;
}
);
unicode = 006D;
},
{
glyphname = n;
lastChange = "2016-01-03 23:26:30 +0000";
layers = (
{
anchors = (
{
name = bottom;
position = "{578, 10}";
},
{
name = bottom_dd;
position = "{1121, -407}";
},
{
name = caron;
position = "{0, 1536}";
},
{
name = marktop;
position = "{578, 1290}";
},
{
name = right;
position = "{953, 0}";
},
{
name = top;
position = "{578, 1290}";
},
{
name = top0315;
position = "{1121, 1290}";
},
{
name = top_dd;
position = "{1121, 1600}";
}
);
layerId = "445B0B85-2678-4800-8A4D-B1A9856CF63B";
paths = (
{
closed = 1;
nodes = (
"226 851 LINE",
"226 1082 LINE",
"172 1082 LINE",
"172 0 LINE",
"226 0 LINE"
);
},
{
closed = 1;
nodes = (
"217 634 LINE",
"226 763 OFFCURVE",
"335 1049 OFFCURVE",
"607 1049 CURVE SMOOTH",
"779 1049 OFFCURVE",
"900 975 OFFCURVE",
"900 700 CURVE SMOOTH",
"900 0 LINE",
"954 0 LINE",
"954 700 LINE SMOOTH",
"954 987 OFFCURVE",
"829 1102 OFFCURVE",
"610 1102 CURVE SMOOTH",
"375 1102 OFFCURVE",
"215 904 OFFCURVE",
"188 691 CURVE"
);
}
);
width = 1121;
},
{
anchors = (
{
name = bottom;
position = "{561, 10}";
},
{
name = bottom_dd;
position = "{1132, -407}";
},
{
name = caron;
position = "{-31, 1539}";
},
{
name = marktop;
position = "{572, 1290}";
},
{
name = right;
position = "{995, 0}";
},
{
name = top;
position = "{572, 1290}";
},
{
name = top0315;
position = "{1132, 1290}";
},
{
name = top_dd;
position = "{1132, 1600}";
}
);
layerId = "3A1161A8-2FC1-4350-92D1-D5E808DF9456";
paths = (
{
closed = 1;
nodes = (
"337 851 LINE",
"326 1082 LINE",
"137 1082 LINE",
"137 0 LINE",
"337 0 LINE"
);
},
{
closed = 1;
nodes = (
"289 578 LINE",
"289 778 OFFCURVE",
"414 937 OFFCURVE",
"588 937 CURVE SMOOTH",
"725 937 OFFCURVE",
"796 872 OFFCURVE",
"796 712 CURVE SMOOTH",
"796 0 LINE",
"996 0 LINE",
"996 710 LINE SMOOTH",
"996 993 OFFCURVE",
"861 1102 OFFCURVE",
"649 1102 CURVE SMOOTH",
"384 1102 OFFCURVE",
"207 880 OFFCURVE",
"207 576 CURVE"
);
}
);
width = 1132;
},
{
anchors = (
{
name = bottom;
position = "{577, 10}";
},
{
name = bottom_dd;
position = "{1153, -407}";
},
{
name = caron;
position = "{-92, 1534}";
},
{
name = marktop;
position = "{577, 1290}";
},
{
name = right;
position = "{1059, 0}";
},
{
name = top;
position = "{577, 1290}";
},
{
name = top0315;
position = "{1153, 1290}";
},
{
name = top_dd;
position = "{1153, 1600}";
}
);
layerId = "0FAE9C79-C14E-4D62-87C8-5A68E12B9849";
paths = (
{
closed = 1;
nodes = (
"416 851 LINE",
"396 1082 LINE",
"94 1082 LINE",
"94 0 LINE",
"416 0 LINE"
);
},
{
closed = 1;
nodes = (
"375 578 LINE",
"375 729 OFFCURVE",
"431 842 OFFCURVE",
"574 842 CURVE SMOOTH",
"675 842 OFFCURVE",
"733 812 OFFCURVE",
"733 682 CURVE",
"733 0 LINE",
"1056 0 LINE",
"1056 681 LINE",
"1056 995 OFFCURVE",
"918 1102 OFFCURVE",
"716 1102 CURVE SMOOTH",
"464 1102 OFFCURVE",
"296 907 OFFCURVE",
"296 576 CURVE"
);
}
);
width = 1153;
}
);
unicode = 006E;
},
{
glyphname = o;
lastChange = "2016-01-02 15:30:31 +0000";
layers = (
{
anchors = (
{
name = bottom;
position = "{567, -10}";
},
{
name = bottom_dd;
position = "{1127, -407}";
},
{
name = rhotichook;
position = "{1004, 654}";
},
{
name = top;
position = "{567, 1290}";
},
{
name = top0315;
position = "{1127, 1290}";
},
{
name = top_dd;
position = "{1127, 1600}";
}
);
layerId = "445B0B85-2678-4800-8A4D-B1A9856CF63B";
paths = (
{
closed = 1;
nodes = (
"90 520 LINE",
"90 203 OFFCURVE",
"283 -20 OFFCURVE",
"565 -20 CURVE SMOOTH",
"846 -20 OFFCURVE",
"1037 203 OFFCURVE",
"1037 520 CURVE",
"1037 562 LINE",
"1037 879 OFFCURVE",
"846 1102 OFFCURVE",
"563 1102 CURVE SMOOTH",
"283 1102 OFFCURVE",
"90 879 OFFCURVE",
"90 562 CURVE"
);
},
{
closed = 1;
nodes = (
"144 562 LINE",
"144 815 OFFCURVE",
"299 1048 OFFCURVE",
"563 1048 CURVE SMOOTH",
"828 1048 OFFCURVE",
"983 815 OFFCURVE",
"983 562 CURVE",
"983 520 LINE",
"983 261 OFFCURVE",
"828 34 OFFCURVE",
"565 34 CURVE SMOOTH",
"299 34 OFFCURVE",
"144 261 OFFCURVE",
"144 520 CURVE"
);
}
);
width = 1127;
},
{
anchors = (
{
name = bottom;
position = "{586, 0}";
},
{
name = bottom_dd;
position = "{1173, -407}";
},
{
name = rhotichook;
position = "{993, 654}";
},
{
name = top;
position = "{576, 1290}";
},
{
name = top0315;
position = "{1173, 1290}";
},
{
name = top_dd;
position = "{1173, 1600}";
}
);
guideLines = (
{
position = "{0, 2079}";
}
);
layerId = "3A1161A8-2FC1-4350-92D1-D5E808DF9456";
paths = (
{
closed = 1;
nodes = (
"92 530 LINE",
"92 217 OFFCURVE",
"281 -20 OFFCURVE",
"587 -20 CURVE SMOOTH",
"893 -20 OFFCURVE",
"1081 217 OFFCURVE",
"1081 530 CURVE",
"1081 551 LINE",
"1081 864 OFFCURVE",
"893 1102 OFFCURVE",
"585 1102 CURVE SMOOTH",
"281 1102 OFFCURVE",
"92 864 OFFCURVE",
"92 551 CURVE"
);
},
{
closed = 1;
nodes = (
"292 551 LINE",
"292 760 OFFCURVE",
"388 942 OFFCURVE",
"585 942 CURVE SMOOTH",
"784 942 OFFCURVE",
"881 760 OFFCURVE",
"881 551 CURVE",
"881 530 LINE",
"881 319 OFFCURVE",
"784 140 OFFCURVE",
"587 140 CURVE SMOOTH",
"388 140 OFFCURVE",
"292 319 OFFCURVE",
"292 530 CURVE"
);
}
);
width = 1173;
},
{
anchors = (
{
name = bottom;
position = "{576, -10}";
},
{
name = bottom_dd;
position = "{1153, -407}";
},
{
name = rhotichook;
position = "{962, 654}";
},
{
name = top;
position = "{576, 1290}";
},
{
name = top0315;
position = "{1153, 1290}";
},
{
name = top_dd;
position = "{1153, 1600}";
}
);
guideLines = (
{
position = "{0, 2079}";
}
);
layerId = "0FAE9C79-C14E-4D62-87C8-5A68E12B9849";
paths = (
{
closed = 1;
nodes = (
"57 530 LINE",
"57 214 OFFCURVE",
"241 -20 OFFCURVE",
"577 -20 CURVE SMOOTH",
"912 -20 OFFCURVE",
"1095 214 OFFCURVE",
"1095 530 CURVE",
"1095 551 LINE",
"1095 867 OFFCURVE",
"912 1102 OFFCURVE",
"575 1102 CURVE SMOOTH",
"241 1102 OFFCURVE",
"57 867 OFFCURVE",
"57 551 CURVE"
);
},
{
closed = 1;
nodes = (
"379 551 LINE",
"379 709 OFFCURVE",
"427 842 OFFCURVE",
"575 842 CURVE SMOOTH",
"726 842 OFFCURVE",
"773 709 OFFCURVE",
"773 551 CURVE",
"773 530 LINE",
"773 367 OFFCURVE",
"725 240 OFFCURVE",
"577 240 CURVE SMOOTH",
"426 240 OFFCURVE",
"379 367 OFFCURVE",
"379 530 CURVE"
);
}
);
width = 1153;
}
);
unicode = 006F;
},
{
glyphname = oslash;
lastChange = "2016-01-02 15:30:31 +0000";
layers = (
{
anchors = (
{
name = top;
position = "{510, 1289}";
},
{
name = top0315;
position = "{1121, 1289}";
},
{
name = top_dd;
position = "{1121, 1600}";
}
);
components = (
{
name = o;
transform = "{1, 0, 0, 1, -3, 0}";
}
);
layerId = "445B0B85-2678-4800-8A4D-B1A9856CF63B";
paths = (
{
closed = 1;
nodes = (
"931 1219 LINE",
"868 1219 LINE",
"205 -145 LINE",
"268 -145 LINE"
);
}
);
width = 1121;
},
{
anchors = (
{
name = top;
position = "{540, 1289}";
},
{
name = top0315;
position = "{1165, 1289}";
},
{
name = top_dd;
position = "{1165, 1600}";
}
);
components = (
{
name = o;
}
);
layerId = "3A1161A8-2FC1-4350-92D1-D5E808DF9456";
paths = (
{
closed = 1;
nodes = (
"989 1208 LINE",
"859 1208 LINE",
"196 -134 LINE",
"326 -134 LINE"
);
}
);
width = 1165;
},
{
anchors = (
{
name = top;
position = "{539, 1284}";
},
{
name = top0315;
position = "{1153, 1284}";
},
{
name = top_dd;
position = "{1153, 1600}";
}
);
components = (
{
name = o;
}
);
layerId = "0FAE9C79-C14E-4D62-87C8-5A68E12B9849";
paths = (
{
closed = 1;
nodes = (
"996 1219 LINE",
"824 1219 LINE",
"161 -145 LINE",
"333 -145 LINE"
);
}
);
width = 1153;
}
);
unicode = 00F8;
},
{
glyphname = oe;
lastChange = "2016-01-02 15:30:31 +0000";
layers = (
{
anchors = (
{
name = bottom;
position = "{974, -10}";
},
{
name = bottom_dd;
position = "{1924, -407}";
},
{
name = top;
position = "{974, 1290}";
},
{
name = top0315;
position = "{1924, 1290}";
},
{
name = top_dd;
position = "{1924, 1600}";
}
);
layerId = "445B0B85-2678-4800-8A4D-B1A9856CF63B";
paths = (
{
closed = 1;
nodes = (
"1444 -20 CURVE",
"1615 -20 OFFCURVE",
"1733 32 OFFCURVE",
"1815 123 CURVE",
"1786 165 LINE",
"1713 81 OFFCURVE",
"1612 34 OFFCURVE",
"1444 34 CURVE SMOOTH",
"1217 34 OFFCURVE",
"1044 241 OFFCURVE",
"1044 500 CURVE SMOOTH",
"1044 564 LINE SMOOTH",
"1044 832 OFFCURVE",
"1202 1048 OFFCURVE",
"1441 1048 CURVE",
"1658 1048 OFFCURVE",
"1801 881 OFFCURVE",
"1801 664 CURVE",
"1801 631 LINE",
"1025 631 LINE",
"1025 577 LINE",
"1855 577 LINE",
"1855 660 LINE SMOOTH",
"1855 935 OFFCURVE",
"1681 1102 OFFCURVE",
"1441 1102 CURVE SMOOTH",
"1191 1102 OFFCURVE",
"990 880 OFFCURVE",
"990 564 CURVE SMOOTH",
"990 500 LINE SMOOTH",
"990 198 OFFCURVE",
"1204 -20 OFFCURVE"
);
},
{
closed = 1;
nodes = (
"92 520 LINE",
"92 203 OFFCURVE",
"285 -20 OFFCURVE",
"567 -20 CURVE SMOOTH",
"848 -20 OFFCURVE",
"1039 203 OFFCURVE",
"1039 520 CURVE",
"1039 562 LINE",
"1039 879 OFFCURVE",
"848 1102 OFFCURVE",
"565 1102 CURVE SMOOTH",
"285 1102 OFFCURVE",
"92 879 OFFCURVE",
"92 562 CURVE"
);
},
{
closed = 1;
nodes = (
"146 562 LINE",
"146 815 OFFCURVE",
"301 1048 OFFCURVE",
"565 1048 CURVE SMOOTH",
"830 1048 OFFCURVE",
"985 815 OFFCURVE",
"985 562 CURVE",
"985 520 LINE",
"985 261 OFFCURVE",
"830 34 OFFCURVE",
"567 34 CURVE SMOOTH",
"301 34 OFFCURVE",
"146 261 OFFCURVE",
"146 520 CURVE"
);
}
);
width = 1924;
},
{
anchors = (
{
name = bottom;
position = "{942, 0}";
},
{
name = bottom_dd;
position = "{1853, -407}";
},
{
name = top;
position = "{942, 1290}";
},
{
name = top0315;
position = "{1853, 1290}";
},
{
name = top_dd;
position = "{1853, 1600}";
}
);
layerId = "3A1161A8-2FC1-4350-92D1-D5E808DF9456";
paths = (
{
closed = 1;
nodes = (
"1372 -21 CURVE",
"1570 -21 OFFCURVE",
"1691 50 OFFCURVE",
"1755 112 CURVE",
"1677 245 LINE",
"1611 187 OFFCURVE",
"1515 139 OFFCURVE",
"1372 139 CURVE SMOOTH",
"1174 139 OFFCURVE",
"1078 311 OFFCURVE",
"1078 522 CURVE SMOOTH",
"1078 564 LINE SMOOTH",
"1078 773 OFFCURVE",
"1188 942 OFFCURVE",
"1341 942 CURVE",
"1513 942 OFFCURVE",
"1585 815 OFFCURVE",
"1585 676 CURVE",
"1585 651 LINE",
"996 651 LINE",
"996 491 LINE",
"1785 491 LINE",
"1785 616 LINE SMOOTH",
"1785 899 OFFCURVE",
"1645 1102 OFFCURVE",
"1341 1102 CURVE SMOOTH",
"1098 1104 OFFCURVE",
"878 880 OFFCURVE",
"878 564 CURVE SMOOTH",
"878 522 LINE SMOOTH",
"878 206 OFFCURVE",
"1066 -21 OFFCURVE"
);
},
{
closed = 1;
nodes = (
"98 530 LINE",
"98 217 OFFCURVE",
"277 -21 OFFCURVE",
"583 -21 CURVE SMOOTH",
"889 -21 OFFCURVE",
"1067 217 OFFCURVE",
"1067 530 CURVE",
"1067 551 LINE",
"1067 864 OFFCURVE",
"889 1102 OFFCURVE",
"581 1102 CURVE SMOOTH",
"277 1102 OFFCURVE",
"98 864 OFFCURVE",
"98 551 CURVE"
);
},
{
closed = 1;
nodes = (
"298 551 LINE",
"298 760 OFFCURVE",
"384 942 OFFCURVE",
"581 942 CURVE SMOOTH",
"780 942 OFFCURVE",
"867 760 OFFCURVE",
"867 551 CURVE",
"867 530 LINE",
"867 319 OFFCURVE",
"780 139 OFFCURVE",
"583 139 CURVE SMOOTH",
"384 139 OFFCURVE",
"298 319 OFFCURVE",
"298 530 CURVE"
);
}
);
width = 1853;
},
{
anchors = (
{
name = bottom;
position = "{923, -10}";
},
{
name = bottom_dd;
position = "{1846, -407}";
},
{
name = top;
position = "{923, 1290}";
},
{
name = top0315;
position = "{1846, 1290}";
},
{
name = top_dd;
position = "{1846, 1600}";
}
);
hints = (
{
horizontal = 1;
place = "{-2147483648, 0}";
type = Tag;
name = hr00;
}
);
layerId = "0FAE9C79-C14E-4D62-87C8-5A68E12B9849";
paths = (
{
closed = 1;
nodes = (
"1325 -20 CURVE",
"1510 -20 OFFCURVE",
"1662 38 OFFCURVE",
"1745 101 CURVE",
"1665 307 LINE",
"1577 269 OFFCURVE",
"1509 240 OFFCURVE",
"1366 240 CURVE SMOOTH",
"1202 240 OFFCURVE",
"1126 365 OFFCURVE",
"1126 505 CURVE SMOOTH",
"1126 543 LINE SMOOTH",
"1126 704 OFFCURVE",
"1166 842 OFFCURVE",
"1300 842 CURVE",
"1407 842 OFFCURVE",
"1452 779 OFFCURVE",
"1452 672 CURVE",
"1452 646 LINE",
"931 646 LINE",
"931 435 LINE",
"1767 435 LINE",
"1767 612 LINE SMOOTH",
"1767 913 OFFCURVE",
"1596 1102 OFFCURVE",
"1300 1102 CURVE SMOOTH",
"978 1104 OFFCURVE",
"804 859 OFFCURVE",
"804 543 CURVE SMOOTH",
"804 505 LINE SMOOTH",
"804 212 OFFCURVE",
"1002 -20 OFFCURVE"
);
},
{
closed = 1;
nodes = (
"78 530 LINE",
"78 214 OFFCURVE",
"262 -20 OFFCURVE",
"598 -20 CURVE SMOOTH",
"933 -20 OFFCURVE",
"1116 214 OFFCURVE",
"1116 530 CURVE",
"1116 551 LINE",
"1116 867 OFFCURVE",
"933 1102 OFFCURVE",
"596 1102 CURVE SMOOTH",
"262 1102 OFFCURVE",
"78 867 OFFCURVE",
"78 551 CURVE"
);
},
{
closed = 1;
nodes = (
"400 551 LINE",
"400 709 OFFCURVE",
"448 842 OFFCURVE",
"596 842 CURVE SMOOTH",
"747 842 OFFCURVE",
"794 709 OFFCURVE",
"794 551 CURVE",
"794 530 LINE",
"794 367 OFFCURVE",
"746 240 OFFCURVE",
"598 240 CURVE SMOOTH",
"447 240 OFFCURVE",
"400 367 OFFCURVE",
"400 530 CURVE"
);
}
);
width = 1846;
}
);
unicode = 0153;
},
{
glyphname = p;
lastChange = "2016-02-28 12:10:00 +0000";
layers = (
{
anchors = (
{
name = bottom;
position = "{195, -407}";
},
{
name = bottom_dd;
position = "{1121, -407}";
},
{
name = marktop;
position = "{583, 1280}";
},
{
name = top;
position = "{583, 1280}";
},
{
name = top0315;
position = "{1121, 1280}";
},
{
name = top_dd;
position = "{1121, 1600}";
}
);
layerId = "445B0B85-2678-4800-8A4D-B1A9856CF63B";
paths = (
{
closed = 1;
nodes = (
"224 874 LINE",
"224 1082 LINE",
"170 1082 LINE",
"170 -416 LINE",
"224 -416 LINE"
);
},
{
closed = 1;
nodes = (
"999 552 LINE",
"999 893 OFFCURVE",
"848 1102 OFFCURVE",
"591 1102 CURVE SMOOTH",
"356 1102 OFFCURVE",
"217 948 OFFCURVE",
"170 745 CURVE",
"170 305 LINE",
"204 133 OFFCURVE",
"349 -20 OFFCURVE",
"593 -20 CURVE SMOOTH",
"849 -20 OFFCURVE",
"999 201 OFFCURVE",
"999 531 CURVE SMOOTH"
);
},
{
closed = 1;
nodes = (
"944 531 LINE",
"944 243 OFFCURVE",
"830 34 OFFCURVE",
"594 34 CURVE SMOOTH",
"367 34 OFFCURVE",
"242 166 OFFCURVE",
"206 330 CURVE",
"206 709 LINE",
"235 843 OFFCURVE",
"320 1048 OFFCURVE",
"592 1048 CURVE SMOOTH",
"830 1048 OFFCURVE",
"944 839 OFFCURVE",
"944 552 CURVE SMOOTH"
);
}
);
width = 1121;
},
{
anchors = (
{
name = bottom;
position = "{235, -407}";
},
{
name = bottom_dd;
position = "{1153, -407}";
},
{
name = marktop;
position = "{634, 1280}";
},
{
name = top;
position = "{634, 1280}";
},
{
name = top0315;
position = "{1153, 1280}";
},
{
name = top_dd;
position = "{1153, 1600}";
}
);
layerId = "3A1161A8-2FC1-4350-92D1-D5E808DF9456";
paths = (
{
closed = 1;
nodes = (
"337 874 LINE",
"319 1082 LINE",
"137 1082 LINE",
"137 -416 LINE",
"337 -416 LINE"
);
},
{
closed = 1;
nodes = (
"1061 550 LINE",
"1061 879 OFFCURVE",
"911 1102 OFFCURVE",
"637 1102 CURVE SMOOTH",
"360 1102 OFFCURVE",
"219 901 OFFCURVE",
"189 572 CURVE",
"189 489 LINE",
"219 173 OFFCURVE",
"360 -20 OFFCURVE",
"640 -20 CURVE SMOOTH",
"909 -20 OFFCURVE",
"1061 214 OFFCURVE",
"1061 529 CURVE SMOOTH"
);
},
{
closed = 1;
nodes = (
"861 529 LINE",
"861 320 OFFCURVE",
"774 140 OFFCURVE",
"578 140 CURVE SMOOTH",
"400 140 OFFCURVE",
"325 267 OFFCURVE",
"285 406 CURVE",
"285 655 LINE",
"315 803 OFFCURVE",
"400 937 OFFCURVE",
"576 937 CURVE SMOOTH",
"774 937 OFFCURVE",
"861 759 OFFCURVE",
"861 550 CURVE SMOOTH"
);
}
);
width = 1153;
},
{
anchors = (
{
name = bottom;
position = "{260, -407}";
},
{
name = bottom_dd;
position = "{1153, -407}";
},
{
name = marktop;
position = "{675, 1280}";
},
{
name = top;
position = "{675, 1280}";
},
{
name = top0315;
position = "{1153, 1280}";
},
{
name = top_dd;
position = "{1153, 1600}";
}
);
layerId = "0FAE9C79-C14E-4D62-87C8-5A68E12B9849";
paths = (
{
closed = 1;
nodes = (
"424 874 LINE",
"402 1082 LINE",
"102 1082 LINE",
"102 -416 LINE",
"424 -416 LINE"
);
},
{
closed = 1;
nodes = (
"1095 554 LINE",
"1095 883 OFFCURVE",
"948 1102 OFFCURVE",
"673 1102 CURVE SMOOTH",
"412 1102 OFFCURVE",
"306 863 OFFCURVE",
"264 550 CURVE",
"264 523 LINE",
"306 231 OFFCURVE",
"412 -20 OFFCURVE",
"675 -20 CURVE SMOOTH",
"948 -20 OFFCURVE",
"1095 218 OFFCURVE",
"1095 533 CURVE SMOOTH"
);
},
{
closed = 1;
nodes = (
"773 533 LINE",
"773 371 OFFCURVE",
"729 240 OFFCURVE",
"594 240 CURVE SMOOTH",
"445 240 OFFCURVE",
"394 343 OFFCURVE",
"394 495 CURVE SMOOTH",
"394 577 LINE SMOOTH",
"394 753 OFFCURVE",
"445 842 OFFCURVE",
"592 842 CURVE SMOOTH",
"725 842 OFFCURVE",
"773 722 OFFCURVE",
"773 554 CURVE SMOOTH"
);
}
);
width = 1153;
}
);
unicode = 0070;
},
{
glyphname = thorn;
lastChange = "2016-01-02 15:30:31 +0000";
layers = (
{
layerId = "445B0B85-2678-4800-8A4D-B1A9856CF63B";
paths = (
{
closed = 1;
nodes = (
"224 1536 LINE",
"170 1536 LINE",
"170 -416 LINE",
"224 -416 LINE"
);
},
{
closed = 1;
nodes = (
"999 552 LINE",
"999 893 OFFCURVE",
"848 1102 OFFCURVE",
"591 1102 CURVE SMOOTH",
"356 1102 OFFCURVE",
"217 948 OFFCURVE",
"170 745 CURVE",
"170 305 LINE",
"204 133 OFFCURVE",
"349 -20 OFFCURVE",
"593 -20 CURVE SMOOTH",
"849 -20 OFFCURVE",
"999 201 OFFCURVE",
"999 531 CURVE SMOOTH"
);
},
{
closed = 1;
nodes = (
"944 531 LINE",
"944 243 OFFCURVE",
"830 34 OFFCURVE",
"594 34 CURVE SMOOTH",
"367 34 OFFCURVE",
"242 166 OFFCURVE",
"206 330 CURVE",
"206 709 LINE",
"235 843 OFFCURVE",
"320 1048 OFFCURVE",
"592 1048 CURVE SMOOTH",
"830 1048 OFFCURVE",
"944 839 OFFCURVE",
"944 552 CURVE SMOOTH"
);
}
);
width = 1121;
},
{
layerId = "3A1161A8-2FC1-4350-92D1-D5E808DF9456";
paths = (
{
closed = 1;
nodes = (
"347 1536 LINE",
"147 1536 LINE",
"147 -416 LINE",
"347 -416 LINE"
);
},
{
closed = 1;
nodes = (
"1071 550 LINE",
"1071 879 OFFCURVE",
"921 1102 OFFCURVE",
"647 1102 CURVE SMOOTH",
"370 1102 OFFCURVE",
"229 901 OFFCURVE",
"199 572 CURVE",
"199 489 LINE",
"229 173 OFFCURVE",
"370 -20 OFFCURVE",
"650 -20 CURVE SMOOTH",
"919 -20 OFFCURVE",
"1071 214 OFFCURVE",
"1071 529 CURVE SMOOTH"
);
},
{
closed = 1;
nodes = (
"871 529 LINE",
"871 320 OFFCURVE",
"784 140 OFFCURVE",
"588 140 CURVE SMOOTH",
"410 140 OFFCURVE",
"335 267 OFFCURVE",
"295 406 CURVE",
"295 655 LINE",
"325 803 OFFCURVE",
"410 937 OFFCURVE",
"586 937 CURVE SMOOTH",
"784 937 OFFCURVE",
"871 759 OFFCURVE",
"871 550 CURVE SMOOTH"
);
}
);
width = 1187;
},
{
layerId = "0FAE9C79-C14E-4D62-87C8-5A68E12B9849";
paths = (
{
closed = 1;
nodes = (
"424 1536 LINE",
"101 1536 LINE",
"101 -416 LINE",
"424 -416 LINE"
);
},
{
closed = 1;
nodes = (
"1094 554 LINE",
"1094 883 OFFCURVE",
"947 1102 OFFCURVE",
"672 1102 CURVE SMOOTH",
"411 1102 OFFCURVE",
"305 863 OFFCURVE",
"263 550 CURVE",
"263 523 LINE",
"305 231 OFFCURVE",
"411 -20 OFFCURVE",
"674 -20 CURVE SMOOTH",
"947 -20 OFFCURVE",
"1094 218 OFFCURVE",
"1094 533 CURVE SMOOTH"
);
},
{
closed = 1;
nodes = (
"772 533 LINE",
"772 371 OFFCURVE",
"728 240 OFFCURVE",
"593 240 CURVE SMOOTH",
"444 240 OFFCURVE",
"393 343 OFFCURVE",
"393 495 CURVE SMOOTH",
"393 577 LINE SMOOTH",
"393 753 OFFCURVE",
"444 842 OFFCURVE",
"591 842 CURVE SMOOTH",
"724 842 OFFCURVE",
"772 722 OFFCURVE",
"772 554 CURVE SMOOTH"
);
}
);
width = 1153;
}
);
unicode = 00FE;
},
{
glyphname = q;
lastChange = "2016-01-02 15:30:31 +0000";
layers = (
{
anchors = (
{
name = bottom;
position = "{926, -407}";
},
{
name = bottom_dd;
position = "{1121, -407}";
},
{
name = marktop;
position = "{537, 1290}";
},
{
name = top;
position = "{537, 1290}";
},
{
name = top0315;
position = "{1121, 1290}";
},
{
name = top_dd;
position = "{1121, 1600}";
}
);
layerId = "445B0B85-2678-4800-8A4D-B1A9856CF63B";
paths = (
{
closed = 1;
nodes = (
"897 -416 LINE",
"951 -416 LINE",
"951 1082 LINE",
"897 1082 LINE",
"897 874 LINE"
);
},
{
closed = 1;
nodes = (
"122 531 LINE",
"122 201 OFFCURVE",
"272 -20 OFFCURVE",
"528 -20 CURVE SMOOTH",
"772 -20 OFFCURVE",
"917 133 OFFCURVE",
"951 304 CURVE",
"951 745 LINE",
"904 948 OFFCURVE",
"766 1102 OFFCURVE",
"530 1102 CURVE SMOOTH",
"273 1102 OFFCURVE",
"122 893 OFFCURVE",
"122 552 CURVE SMOOTH"
);
},
{
closed = 1;
nodes = (
"178 552 LINE",
"178 839 OFFCURVE",
"291 1048 OFFCURVE",
"529 1048 CURVE SMOOTH",
"798 1048 OFFCURVE",
"889 834 OFFCURVE",
"915 709 CURVE",
"915 329 LINE",
"879 166 OFFCURVE",
"754 34 OFFCURVE",
"527 34 CURVE SMOOTH",
"291 34 OFFCURVE",
"178 243 OFFCURVE",
"178 531 CURVE SMOOTH"
);
}
);
width = 1121;
},
{
anchors = (
{
name = bottom;
position = "{915, -407}";
},
{
name = bottom_dd;
position = "{1169, -407}";
},
{
name = marktop;
position = "{537, 1290}";
},
{
name = top;
position = "{537, 1290}";
},
{
name = top0315;
position = "{1169, 1290}";
},
{
name = top_dd;
position = "{1169, 1600}";
}
);
layerId = "3A1161A8-2FC1-4350-92D1-D5E808DF9456";
paths = (
{
closed = 1;
nodes = (
"814 -416 LINE",
"1014 -416 LINE",
"1014 1082 LINE",
"831 1082 LINE",
"814 874 LINE"
);
},
{
closed = 1;
nodes = (
"92 529 LINE",
"92 214 OFFCURVE",
"255 -20 OFFCURVE",
"524 -20 CURVE SMOOTH",
"802 -20 OFFCURVE",
"941 181 OFFCURVE",
"970 510 CURVE",
"970 572 LINE",
"941 901 OFFCURVE",
"802 1102 OFFCURVE",
"526 1102 CURVE SMOOTH",
"253 1102 OFFCURVE",
"92 879 OFFCURVE",
"92 550 CURVE SMOOTH"
);
},
{
closed = 1;
nodes = (
"292 550 LINE",
"292 759 OFFCURVE",
"379 942 OFFCURVE",
"577 942 CURVE SMOOTH",
"754 942 OFFCURVE",
"844 803 OFFCURVE",
"875 655 CURVE",
"875 426 LINE",
"834 277 OFFCURVE",
"754 140 OFFCURVE",
"575 140 CURVE SMOOTH",
"379 140 OFFCURVE",
"292 320 OFFCURVE",
"292 529 CURVE SMOOTH"
);
}
);
width = 1169;
},
{
anchors = (
{
name = bottom;
position = "{895, -407}";
},
{
name = bottom_dd;
position = "{1153, -407}";
},
{
name = marktop;
position = "{537, 1290}";
},
{
name = top;
position = "{537, 1290}";
},
{
name = top0315;
position = "{1153, 1290}";
},
{
name = top_dd;
position = "{1153, 1600}";
}
);
layerId = "0FAE9C79-C14E-4D62-87C8-5A68E12B9849";
paths = (
{
closed = 1;
nodes = (
"728 -416 LINE",
"1051 -416 LINE",
"1051 1082 LINE",
"771 1082 LINE",
"728 855 LINE"
);
},
{
closed = 1;
nodes = (
"57 531 LINE",
"57 216 OFFCURVE",
"205 -20 OFFCURVE",
"477 -20 CURVE SMOOTH",
"740 -20 OFFCURVE",
"846 230 OFFCURVE",
"889 523 CURVE",
"889 548 LINE",
"846 861 OFFCURVE",
"740 1102 OFFCURVE",
"479 1102 CURVE SMOOTH",
"205 1102 OFFCURVE",
"57 881 OFFCURVE",
"57 552 CURVE SMOOTH"
);
},
{
closed = 1;
nodes = (
"379 552 LINE",
"379 720 OFFCURVE",
"427 842 OFFCURVE",
"561 842 CURVE SMOOTH",
"708 842 OFFCURVE",
"759 751 OFFCURVE",
"759 575 CURVE SMOOTH",
"759 496 LINE SMOOTH",
"759 342 OFFCURVE",
"708 240 OFFCURVE",
"559 240 CURVE SMOOTH",
"423 240 OFFCURVE",
"379 369 OFFCURVE",
"379 531 CURVE SMOOTH"
);
}
);
width = 1153;
}
);
unicode = 0071;
},
{
glyphname = r;
lastChange = "2016-01-02 15:30:31 +0000";
layers = (
{
anchors = (
{
name = bottom;
position = "{199, 19}";
},
{
name = bottom_dd;
position = "{685, -407}";
},
{
name = top;
position = "{413, 1290}";
},
{
name = top0315;
position = "{685, 1290}";
},
{
name = top_dd;
position = "{685, 1600}";
}
);
guideLines = (
{
position = "{0, 901}";
},
{
position = "{0, 555}";
}
);
layerId = "445B0B85-2678-4800-8A4D-B1A9856CF63B";
paths = (
{
closed = 1;
nodes = (
"226 894 LINE",
"226 1082 LINE",
"172 1082 LINE",
"172 0 LINE",
"226 0 LINE"
);
},
{
closed = 1;
nodes = (
"655 1091 LINE",
"638 1097 OFFCURVE",
"612 1102 OFFCURVE",
"579 1102 CURVE",
"309 1102 OFFCURVE",
"179 881 OFFCURVE",
"179 577 CURVE",
"215 580 LINE",
"215 835 OFFCURVE",
"336 1049 OFFCURVE",
"579 1049 CURVE",
"604 1049 OFFCURVE",
"628 1046 OFFCURVE",
"649 1043 CURVE"
);
}
);
width = 685;
},
{
anchors = (
{
name = bottom;
position = "{251, 10}";
},
{
name = bottom_dd;
position = "{695, -407}";
},
{
name = top;
position = "{407, 1290}";
},
{
name = top0315;
position = "{695, 1290}";
},
{
name = top_dd;
position = "{695, 1600}";
}
);
guideLines = (
{
position = "{0, 901}";
},
{
position = "{0, 555}";
}
);
layerId = "3A1161A8-2FC1-4350-92D1-D5E808DF9456";
paths = (
{
closed = 1;
nodes = (
"337 914 LINE",
"331 1082 LINE",
"137 1082 LINE",
"137 0 LINE",
"337 0 LINE"
);
},
{
closed = 1;
nodes = (
"665 1088 LINE",
"652 1094 OFFCURVE",
"607 1102 OFFCURVE",
"582 1102 CURVE",
"352 1102 OFFCURVE",
"253 884 OFFCURVE",
"253 628 CURVE",
"307 660 LINE",
"325 809 OFFCURVE",
"408 913 OFFCURVE",
"572 913 CURVE",
"608 913 OFFCURVE",
"632 911 OFFCURVE",
"665 905 CURVE"
);
}
);
width = 695;
},
{
anchors = (
{
name = bottom;
position = "{264, 10}";
},
{
name = bottom_dd;
position = "{767, -407}";
},
{
name = top;
position = "{412, 1290}";
},
{
name = top0315;
position = "{767, 1290}";
},
{
name = top_dd;
position = "{767, 1600}";
}
);
guideLines = (
{
position = "{0, 901}";
},
{
position = "{0, 555}";
}
);
layerId = "0FAE9C79-C14E-4D62-87C8-5A68E12B9849";
paths = (
{
closed = 1;
nodes = (
"424 814 LINE",
"404 1082 LINE",
"102 1082 LINE",
"102 0 LINE",
"424 0 LINE"
);
},
{
closed = 1;
nodes = (
"745 1090 LINE",
"721 1098 OFFCURVE",
"685 1102 OFFCURVE",
"653 1102 CURVE",
"459 1102 OFFCURVE",
"343 902 OFFCURVE",
"343 612 CURVE",
"403 572 LINE",
"403 714 OFFCURVE",
"472 785 OFFCURVE",
"631 785 CURVE",
"661 785 OFFCURVE",
"712 780 OFFCURVE",
"740 777 CURVE"
);
}
);
width = 767;
}
);
unicode = 0072;
userData = {
com.typemytype.robofont.guides = (
{
angle = 0;
isGlobal = 0;
magnetic = 5;
x = 0;
y = 901;
},
{
angle = 0;
isGlobal = 0;
magnetic = 5;
x = 0;
y = 555;
}
);
};
},
{
glyphname = s;
lastChange = "2016-01-02 15:30:31 +0000";
layers = (
{
anchors = (
{
name = bottom;
position = "{512, -5}";
},
{
name = bottom_dd;
position = "{1019, -407}";
},
{
name = top;
position = "{512, 1290}";
},
{
name = top0315;
position = "{1019, 1290}";
},
{
name = top_dd;
position = "{1019, 1600}";
}
);
guideLines = (
{
position = "{0, 1658}";
},
{
position = "{0, 555}";
}
);
layerId = "445B0B85-2678-4800-8A4D-B1A9856CF63B";
paths = (
{
closed = 1;
nodes = (
"839 265 CURVE SMOOTH",
"839 152 OFFCURVE",
"726 34 OFFCURVE",
"513 34 CURVE SMOOTH",
"356 34 OFFCURVE",
"175 89 OFFCURVE",
"162 275 CURVE",
"108 275 LINE",
"108 116 OFFCURVE",
"251 -20 OFFCURVE",
"513 -20 CURVE SMOOTH",
"746 -20 OFFCURVE",
"893 97 OFFCURVE",
"893 264 CURVE",
"893 434 OFFCURVE",
"783 520 OFFCURVE",
"525 579 CURVE SMOOTH",
"244 643 OFFCURVE",
"197 720 OFFCURVE",
"197 831 CURVE",
"197 932 OFFCURVE",
"286 1048 OFFCURVE",
"505 1048 CURVE SMOOTH",
"719 1048 OFFCURVE",
"837 927 OFFCURVE",
"837 793 CURVE",
"892 793 LINE",
"892 977 OFFCURVE",
"747 1102 OFFCURVE",
"505 1102 CURVE SMOOTH",
"279 1102 OFFCURVE",
"143 980 OFFCURVE",
"143 829 CURVE",
"143 652 OFFCURVE",
"267 584 OFFCURVE",
"509 532 CURVE SMOOTH",
"776 474 OFFCURVE",
"839 363 OFFCURVE"
);
}
);
width = 1019;
},
{
anchors = (
{
name = bottom;
position = "{568, -10}";
},
{
name = bottom_dd;
position = "{1061, -407}";
},
{
name = top;
position = "{568, 1290}";
},
{
name = top0315;
position = "{1061, 1290}";
},
{
name = top_dd;
position = "{1061, 1600}";
}
);
guideLines = (
{
position = "{0, 1658}";
},
{
position = "{0, 555}";
}
);
layerId = "3A1161A8-2FC1-4350-92D1-D5E808DF9456";
paths = (
{
closed = 1;
nodes = (
"763 289 CURVE SMOOTH",
"763 202 OFFCURVE",
"685 140 OFFCURVE",
"541 140 CURVE SMOOTH",
"430 140 OFFCURVE",
"302 189 OFFCURVE",
"294 339 CURVE",
"94 339 LINE",
"94 158 OFFCURVE",
"251 -20 OFFCURVE",
"541 -20 CURVE SMOOTH",
"795 -20 OFFCURVE",
"963 112 OFFCURVE",
"963 304 CURVE",
"963 479 OFFCURVE",
"838 567 OFFCURVE",
"572 628 CURVE SMOOTH",
"376 672 OFFCURVE",
"331 710 OFFCURVE",
"331 788 CURVE",
"331 865 OFFCURVE",
"389 942 OFFCURVE",
"536 942 CURVE SMOOTH",
"674 942 OFFCURVE",
"751 847 OFFCURVE",
"751 762 CURVE",
"951 762 LINE",
"951 948 OFFCURVE",
"797 1102 OFFCURVE",
"536 1102 CURVE SMOOTH",
"291 1102 OFFCURVE",
"131 955 OFFCURVE",
"131 782 CURVE",
"131 604 OFFCURVE",
"283 519 OFFCURVE",
"523 469 CURVE SMOOTH",
"731 427 OFFCURVE",
"763 367 OFFCURVE"
);
}
);
width = 1061;
},
{
anchors = (
{
name = bottom;
position = "{515, -10}";
},
{
name = bottom_dd;
position = "{1051, -407}";
},
{
name = top;
position = "{515, 1290}";
},
{
name = top0315;
position = "{1051, 1290}";
},
{
name = top_dd;
position = "{1051, 1600}";
}
);
guideLines = (
{
position = "{0, 1658}";
},
{
position = "{0, 555}";
}
);
layerId = "0FAE9C79-C14E-4D62-87C8-5A68E12B9849";
paths = (
{
closed = 1;
nodes = (
"673 304 CURVE SMOOTH",
"673 244 OFFCURVE",
"622 203 OFFCURVE",
"525 203 CURVE SMOOTH",
"424 203 OFFCURVE",
"348 247 OFFCURVE",
"344 347 CURVE",
"42 347 LINE",
"42 173 OFFCURVE",
"208 -20 OFFCURVE",
"517 -20 CURVE SMOOTH",
"803 -20 OFFCURVE",
"984 123 OFFCURVE",
"984 314 CURVE",
"984 543 OFFCURVE",
"792 619 OFFCURVE",
"569 659 CURVE SMOOTH",
"435 683 OFFCURVE",
"382 719 OFFCURVE",
"382 777 CURVE",
"382 839 OFFCURVE",
"438 880 OFFCURVE",
"516 880 CURVE SMOOTH",
"620 880 OFFCURVE",
"662 832 OFFCURVE",
"662 750 CURVE",
"984 750 LINE",
"984 958 OFFCURVE",
"805 1102 OFFCURVE",
"517 1102 CURVE SMOOTH",
"238 1102 OFFCURVE",
"76 943 OFFCURVE",
"76 760 CURVE",
"76 570 OFFCURVE",
"243 472 OFFCURVE",
"458 426 CURVE SMOOTH",
"629 389 OFFCURVE",
"673 359 OFFCURVE"
);
}
);
width = 1051;
}
);
unicode = 0073;
userData = {
com.typemytype.robofont.guides = (
{
angle = 0;
isGlobal = 0;
magnetic = 5;
x = 0;
y = 1658;
},
{
angle = 0;
isGlobal = 0;
magnetic = 5;
x = 0;
y = 555;
}
);
};
},
{
glyphname = germandbls;
lastChange = "2016-01-02 15:30:31 +0000";
layers = (
{
layerId = "445B0B85-2678-4800-8A4D-B1A9856CF63B";
paths = (
{
closed = 1;
nodes = (
"218 1143 LINE",
"218 1389 OFFCURVE",
"331 1481 OFFCURVE",
"503 1481 CURVE SMOOTH",
"625 1481 OFFCURVE",
"744 1384 OFFCURVE",
"744 1259 CURVE SMOOTH",
"744 1080 OFFCURVE",
"631 1036 OFFCURVE",
"631 831 CURVE SMOOTH",
"631 585 OFFCURVE",
"1008 536 OFFCURVE",
"1008 306 CURVE SMOOTH",
"1008 159 OFFCURVE",
"875 32 OFFCURVE",
"687 32 CURVE SMOOTH",
"581 32 OFFCURVE",
"461 75 OFFCURVE",
"408 117 CURVE",
"383 68 LINE",
"437 20 OFFCURVE",
"579 -21 OFFCURVE",
"695 -21 CURVE SMOOTH",
"859 -21 OFFCURVE",
"1062 95 OFFCURVE",
"1062 297 CURVE SMOOTH",
"1062 569 OFFCURVE",
"685 621 OFFCURVE",
"685 829 CURVE SMOOTH",
"685 1037 OFFCURVE",
"804 1068 OFFCURVE",
"804 1257 CURVE SMOOTH",
"804 1425 OFFCURVE",
"651 1535 OFFCURVE",
"493 1535 CURVE SMOOTH",
"281 1535 OFFCURVE",
"164 1396 OFFCURVE",
"164 1143 CURVE SMOOTH",
"164 0 LINE",
"218 0 LINE"
);
}
);
width = 1183;
},
{
hints = (
{
horizontal = 1;
place = "{-2147483648, 0}";
type = Tag;
name = hr00;
}
);
layerId = "3A1161A8-2FC1-4350-92D1-D5E808DF9456";
paths = (
{
closed = 1;
nodes = (
"336 1109 LINE",
"336 1305 OFFCURVE",
"413 1396 OFFCURVE",
"547 1396 CURVE SMOOTH",
"655 1396 OFFCURVE",
"733 1330 OFFCURVE",
"733 1196 CURVE SMOOTH",
"733 1045 OFFCURVE",
"592 978 OFFCURVE",
"592 821 CURVE SMOOTH",
"592 548 OFFCURVE",
"938 494 OFFCURVE",
"938 308 CURVE SMOOTH",
"938 214 OFFCURVE",
"883 140 OFFCURVE",
"730 140 CURVE SMOOTH",
"639 140 OFFCURVE",
"542 187 OFFCURVE",
"497 215 CURVE",
"453 51 LINE",
"504 15 OFFCURVE",
"642 -20 OFFCURVE",
"751 -20 CURVE SMOOTH",
"981 -20 OFFCURVE",
"1138 88 OFFCURVE",
"1138 319 CURVE SMOOTH",
"1138 576 OFFCURVE",
"792 638 OFFCURVE",
"792 819 CURVE SMOOTH",
"792 950 OFFCURVE",
"921 997 OFFCURVE",
"921 1213 CURVE SMOOTH",
"921 1450 OFFCURVE",
"761 1556 OFFCURVE",
"537 1556 CURVE SMOOTH",
"301 1556 OFFCURVE",
"137 1405 OFFCURVE",
"137 1109 CURVE SMOOTH",
"137 0 LINE",
"336 0 LINE"
);
}
);
width = 1222;
},
{
hints = (
{
horizontal = 1;
place = "{-2147483648, 0}";
type = Tag;
name = hr01;
},
{
horizontal = 1;
place = "{-2147483648, 0}";
type = Tag;
name = hr02;
},
{
horizontal = 1;
place = "{-2147483648, 0}";
type = Tag;
name = hr03;
},
{
horizontal = 1;
place = "{-2147483648, 0}";
type = Tag;
name = hr04;
}
);
layerId = "0FAE9C79-C14E-4D62-87C8-5A68E12B9849";
paths = (
{
closed = 1;
nodes = (
"457 1093 LINE",
"457 1254 OFFCURVE",
"515 1302 OFFCURVE",
"604 1302 CURVE SMOOTH",
"689 1302 OFFCURVE",
"750 1245 OFFCURVE",
"750 1167 CURVE SMOOTH",
"750 1011 OFFCURVE",
"651 1003 OFFCURVE",
"651 817 CURVE SMOOTH",
"651 564 OFFCURVE",
"936 520 OFFCURVE",
"936 365 CURVE SMOOTH",
"936 285 OFFCURVE",
"877 240 OFFCURVE",
"789 240 CURVE SMOOTH",
"692 240 OFFCURVE",
"617 263 OFFCURVE",
"576 284 CURVE",
"518 31 LINE",
"573 -1 OFFCURVE",
"689 -20 OFFCURVE",
"790 -20 CURVE SMOOTH",
"1096 -20 OFFCURVE",
"1257 128 OFFCURVE",
"1257 368 CURVE SMOOTH",
"1257 617 OFFCURVE",
"973 717 OFFCURVE",
"973 835 CURVE SMOOTH",
"973 1000 OFFCURVE",
"1072 990 OFFCURVE",
"1072 1181 CURVE SMOOTH",
"1072 1430 OFFCURVE",
"873 1561 OFFCURVE",
"636 1561 CURVE SMOOTH",
"325 1561 OFFCURVE",
"135 1404 OFFCURVE",
"135 1099 CURVE SMOOTH",
"135 0 LINE",
"457 0 LINE"
);
}
);
width = 1318;
}
);
unicode = 00DF;
},
{
glyphname = longs;
lastChange = "2016-01-02 15:30:31 +0000";
layers = (
{
anchors = (
{
name = bottom;
position = "{199, 10}";
},
{
name = top;
position = "{377, 1680}";
},
{
name = top0315;
position = "{422, 1680}";
}
);
layerId = "445B0B85-2678-4800-8A4D-B1A9856CF63B";
paths = (
{
closed = 1;
nodes = (
"228 0 LINE",
"228 1236 LINE SMOOTH",
"228 1405 OFFCURVE",
"315 1503 OFFCURVE",
"457 1503 CURVE SMOOTH",
"511 1503 OFFCURVE",
"539 1498 OFFCURVE",
"576 1488 CURVE",
"584 1540 LINE",
"543 1553 OFFCURVE",
"498 1557 OFFCURVE",
"456 1557 CURVE SMOOTH",
"280 1557 OFFCURVE",
"174 1443 OFFCURVE",
"174 1236 CURVE SMOOTH",
"174 0 LINE"
);
}
);
width = 422;
},
{
anchors = (
{
name = bottom;
position = "{253, 10}";
},
{
name = top;
position = "{434, 1760}";
},
{
name = top0315;
position = "{518, 1760}";
}
);
layerId = "3A1161A8-2FC1-4350-92D1-D5E808DF9456";
paths = (
{
closed = 1;
nodes = (
"359 0 LINE",
"359 1193 LINE SMOOTH",
"359 1320 OFFCURVE",
"420 1397 OFFCURVE",
"536 1397 CURVE SMOOTH",
"573 1397 OFFCURVE",
"602 1392 OFFCURVE",
"624 1386 CURVE",
"649 1536 LINE",
"600 1548 OFFCURVE",
"553 1557 OFFCURVE",
"504 1557 CURVE SMOOTH",
"290 1557 OFFCURVE",
"159 1428 OFFCURVE",
"159 1193 CURVE SMOOTH",
"159 0 LINE"
);
}
);
width = 518;
},
{
anchors = (
{
name = bottom;
position = "{278, 10}";
},
{
name = top;
position = "{369, 1662}";
},
{
name = top0315;
position = "{537, 1662}";
}
);
hints = (
{
horizontal = 1;
place = "{-2147483648, 0}";
type = Tag;
name = hr00;
}
);
layerId = "0FAE9C79-C14E-4D62-87C8-5A68E12B9849";
paths = (
{
closed = 1;
nodes = (
"424 0 LINE",
"424 1170 LINE",
"424 1252 OFFCURVE",
"473 1297 OFFCURVE",
"561 1297 CURVE SMOOTH",
"605 1297 OFFCURVE",
"630 1293 OFFCURVE",
"661 1287 CURVE",
"685 1536 LINE",
"629 1548 OFFCURVE",
"576 1557 OFFCURVE",
"520 1557 CURVE SMOOTH",
"257 1557 OFFCURVE",
"102 1421 OFFCURVE",
"102 1170 CURVE",
"102 0 LINE"
);
}
);
width = 537;
}
);
unicode = 017F;
},
{
glyphname = t;
lastChange = "2016-01-02 15:30:31 +0000";
layers = (
{
anchors = (
{
name = bottom;
position = "{413, 0}";
},
{
name = bottom_dd;
position = "{648, -407}";
},
{
name = caron;
position = "{479, 1560}";
},
{
name = cross;
position = "{340, 659}";
},
{
name = marktop;
position = "{506, 1290}";
},
{
name = top;
position = "{266, 1540}";
},
{
name = top0315;
position = "{648, 1540}";
},
{
name = top_dd;
position = "{648, 1600}";
}
);
layerId = "445B0B85-2678-4800-8A4D-B1A9856CF63B";
paths = (
{
closed = 1;
nodes = (
"539 1082 LINE",
"38 1082 LINE",
"38 1027 LINE",
"539 1027 LINE"
);
},
{
closed = 1;
nodes = (
"238 1374 LINE",
"238 259 LINE",
"238 42 OFFCURVE",
"321 -20 OFFCURVE",
"459 -20 CURVE SMOOTH",
"487 -20 OFFCURVE",
"543 -18 OFFCURVE",
"572 -8 CURVE",
"563 43 LINE",
"526 38 OFFCURVE",
"497 34 OFFCURVE",
"456 34 CURVE SMOOTH",
"369 34 OFFCURVE",
"293 69 OFFCURVE",
"293 259 CURVE",
"293 1374 LINE"
);
}
);
width = 648;
},
{
anchors = (
{
name = bottom;
position = "{457, 0}";
},
{
name = bottom_dd;
position = "{672, -407}";
},
{
name = caron;
position = "{546, 1664}";
},
{
name = cross;
position = "{299, 676}";
},
{
name = marktop;
position = "{576, 1364}";
},
{
name = top;
position = "{317, 1476}";
},
{
name = top0315;
position = "{672, 1476}";
},
{
name = top_dd;
position = "{672, 1600}";
}
);
layerId = "3A1161A8-2FC1-4350-92D1-D5E808DF9456";
paths = (
{
closed = 1;
nodes = (
"600 1082 LINE",
"6 1082 LINE",
"6 932 LINE",
"600 932 LINE"
);
},
{
closed = 1;
nodes = (
"203 1342 LINE",
"203 270 LINE",
"203 53 OFFCURVE",
"319 -20 OFFCURVE",
"456 -20 CURVE SMOOTH",
"526 -20 OFFCURVE",
"573 -8 OFFCURVE",
"602 1 CURVE",
"602 160 LINE",
"587 156 OFFCURVE",
"547 148 OFFCURVE",
"517 148 CURVE SMOOTH",
"458 148 OFFCURVE",
"403 165 OFFCURVE",
"403 269 CURVE",
"403 1342 LINE"
);
}
);
width = 672;
},
{
anchors = (
{
name = bottom;
position = "{425, 0}";
},
{
name = bottom_dd;
position = "{700, -407}";
},
{
name = caron;
position = "{617, 1668}";
},
{
name = cross;
position = "{320, 598}";
},
{
name = marktop;
position = "{702, 1276}";
},
{
name = top;
position = "{342, 1476}";
},
{
name = top0315;
position = "{700, 1476}";
},
{
name = top_dd;
position = "{700, 1600}";
}
);
layerId = "0FAE9C79-C14E-4D62-87C8-5A68E12B9849";
paths = (
{
closed = 1;
nodes = (
"658 1082 LINE",
"12 1082 LINE",
"12 848 LINE",
"658 848 LINE"
);
},
{
closed = 1;
nodes = (
"156 1351 LINE",
"156 311 LINE",
"156 76 OFFCURVE",
"279 -20 OFFCURVE",
"487 -20 CURVE SMOOTH",
"558 -20 OFFCURVE",
"617 -10 OFFCURVE",
"672 9 CURVE",
"672 250 LINE",
"650 246 OFFCURVE",
"625 244 OFFCURVE",
"588 244 CURVE SMOOTH",
"508 244 OFFCURVE",
"478 267 OFFCURVE",
"478 353 CURVE",
"478 1351 LINE"
);
}
);
width = 700;
}
);
unicode = 0074;
},
{
glyphname = u;
lastChange = "2016-01-02 15:30:31 +0000";
layers = (
{
anchors = (
{
name = bottom;
position = "{560, 0}";
},
{
name = bottom_dd;
position = "{1121, -407}";
},
{
name = bottomu;
position = "{514, 0}";
},
{
name = ogonek;
position = "{951, 0}";
},
{
name = rhotichook;
position = "{924, 654}";
},
{
name = top;
position = "{580, 1293}";
},
{
name = top0315;
position = "{1121, 1293}";
},
{
name = top_dd;
position = "{1121, 1600}";
}
);
guideLines = (
{
position = "{0, 202}";
},
{
position = "{0, 547}";
}
);
layerId = "445B0B85-2678-4800-8A4D-B1A9856CF63B";
paths = (
{
closed = 1;
nodes = (
"897 250 LINE",
"897 0 LINE",
"952 0 LINE",
"952 1082 LINE",
"897 1082 LINE"
);
},
{
closed = 1;
nodes = (
"906 423 LINE",
"906 226 OFFCURVE",
"814 34 OFFCURVE",
"522 34 CURVE SMOOTH",
"349 34 OFFCURVE",
"222 128 OFFCURVE",
"222 393 CURVE",
"222 1082 LINE",
"168 1082 LINE",
"168 395 LINE",
"168 93 OFFCURVE",
"312 -20 OFFCURVE",
"524 -20 CURVE SMOOTH",
"822 -20 OFFCURVE",
"952 169 OFFCURVE",
"952 425 CURVE"
);
}
);
width = 1121;
},
{
anchors = (
{
name = bottom;
position = "{563, 0}";
},
{
name = bottom_dd;
position = "{1130, -407}";
},
{
name = bottomu;
position = "{508, 0}";
},
{
name = ogonek;
position = "{982, 0}";
},
{
name = rhotichook;
position = "{920, 654}";
},
{
name = top;
position = "{566, 1290}";
},
{
name = top0315;
position = "{1130, 1290}";
},
{
name = top_dd;
position = "{1130, 1600}";
}
);
guideLines = (
{
position = "{0, 202}";
},
{
position = "{0, 547}";
}
);
layerId = "3A1161A8-2FC1-4350-92D1-D5E808DF9456";
paths = (
{
closed = 1;
nodes = (
"793 250 LINE",
"803 0 LINE",
"993 0 LINE",
"993 1082 LINE",
"793 1082 LINE"
);
},
{
closed = 1;
nodes = (
"830 483 LINE",
"830 293 OFFCURVE",
"750 146 OFFCURVE",
"521 146 CURVE SMOOTH",
"428 146 OFFCURVE",
"333 192 OFFCURVE",
"333 381 CURVE",
"333 1082 LINE",
"133 1082 LINE",
"133 383 LINE",
"133 96 OFFCURVE",
"276 -20 OFFCURVE",
"488 -20 CURVE SMOOTH",
"800 -20 OFFCURVE",
"911 194 OFFCURVE",
"911 485 CURVE"
);
}
);
width = 1130;
},
{
anchors = (
{
name = bottom;
position = "{575, 0}";
},
{
name = bottom_dd;
position = "{1153, -407}";
},
{
name = bottomu;
position = "{458, 0}";
},
{
name = ogonek;
position = "{1018, 0}";
},
{
name = rhotichook;
position = "{930, 654}";
},
{
name = top;
position = "{575, 1290}";
},
{
name = top0315;
position = "{1153, 1290}";
},
{
name = top_dd;
position = "{1153, 1600}";
}
);
guideLines = (
{
position = "{0, 202}";
},
{
position = "{0, 547}";
}
);
layerId = "0FAE9C79-C14E-4D62-87C8-5A68E12B9849";
paths = (
{
closed = 1;
nodes = (
"734 263 LINE",
"755 0 LINE",
"1057 0 LINE",
"1057 1082 LINE",
"734 1082 LINE"
);
},
{
closed = 1;
nodes = (
"767 483 LINE",
"767 344 OFFCURVE",
"718 240 OFFCURVE",
"557 240 CURVE SMOOTH",
"469 240 OFFCURVE",
"416 285 OFFCURVE",
"416 380 CURVE",
"416 1082 LINE",
"94 1082 LINE",
"94 382 LINE",
"94 96 OFFCURVE",
"241 -20 OFFCURVE",
"455 -20 CURVE SMOOTH",
"716 -20 OFFCURVE",
"854 194 OFFCURVE",
"854 485 CURVE"
);
}
);
width = 1153;
}
);
unicode = 0075;
userData = {
com.typemytype.robofont.guides = (
{
angle = 0;
isGlobal = 0;
magnetic = 5;
x = 0;
y = 202;
},
{
angle = 0;
isGlobal = 0;
magnetic = 5;
x = 0;
y = 547;
}
);
};
},
{
glyphname = v;
lastChange = "2016-01-02 15:30:31 +0000";
layers = (
{
anchors = (
{
name = bottom;
position = "{489, 10}";
},
{
name = bottom_dd;
position = "{978, -407}";
},
{
name = top;
position = "{494, 1280}";
},
{
name = top0315;
position = "{978, 1280}";
},
{
name = top_dd;
position = "{978, 1600}";
}
);
guideLines = (
{
position = "{0, 901}";
},
{
position = "{0, 555}";
}
);
layerId = "445B0B85-2678-4800-8A4D-B1A9856CF63B";
paths = (
{
closed = 1;
nodes = (
"481 64 LINE",
"465 0 LINE",
"516 0 LINE",
"937 1082 LINE",
"879 1082 LINE"
);
},
{
closed = 1;
nodes = (
"101 1082 LINE",
"43 1082 LINE",
"463 0 LINE",
"515 0 LINE",
"499 63 LINE"
);
}
);
width = 978;
},
{
anchors = (
{
name = bottom;
position = "{506, 10}";
},
{
name = bottom_dd;
position = "{994, -407}";
},
{
name = top;
position = "{506, 1280}";
},
{
name = top0315;
position = "{994, 1280}";
},
{
name = top_dd;
position = "{994, 1600}";
}
);
guideLines = (
{
position = "{0, 901}";
},
{
position = "{0, 555}";
}
);
layerId = "3A1161A8-2FC1-4350-92D1-D5E808DF9456";
paths = (
{
closed = 1;
nodes = (
"469 176 LINE",
"439 0 LINE",
"572 0 LINE",
"957 1082 LINE",
"753 1082 LINE"
);
},
{
closed = 1;
nodes = (
"236 1082 LINE",
"32 1082 LINE",
"421 0 LINE",
"553 0 LINE",
"531 171 LINE"
);
}
);
width = 994;
},
{
anchors = (
{
name = bottom;
position = "{525, 10}";
},
{
name = bottom_dd;
position = "{1051, -407}";
},
{
name = top;
position = "{526, 1280}";
},
{
name = top0315;
position = "{1051, 1280}";
},
{
name = top_dd;
position = "{1051, 1600}";
}
);
guideLines = (
{
position = "{0, 901}";
},
{
position = "{0, 555}";
}
);
layerId = "0FAE9C79-C14E-4D62-87C8-5A68E12B9849";
paths = (
{
closed = 1;
nodes = (
"483 231 LINE",
"483 0 LINE",
"685 0 LINE",
"1042 1082 LINE",
"704 1082 LINE"
);
},
{
closed = 1;
nodes = (
"345 1082 LINE",
"6 1082 LINE",
"363 0 LINE",
"565 0 LINE",
"565 231 LINE"
);
}
);
width = 1051;
}
);
unicode = 0076;
userData = {
com.typemytype.robofont.guides = (
{
angle = 0;
isGlobal = 0;
magnetic = 5;
x = 0;
y = 901;
},
{
angle = 0;
isGlobal = 0;
magnetic = 5;
x = 0;
y = 555;
}
);
};
},
{
glyphname = w;
lastChange = "2016-01-02 15:30:31 +0000";
layers = (
{
anchors = (
{
name = bottom;
position = "{769, 10}";
},
{
name = bottom_dd;
position = "{1550, -407}";
},
{
name = marktop;
position = "{767, 1293}";
},
{
name = top;
position = "{767, 1293}";
},
{
name = top0315;
position = "{1550, 1293}";
},
{
name = top_dd;
position = "{1550, 1600}";
}
);
layerId = "445B0B85-2678-4800-8A4D-B1A9856CF63B";
paths = (
{
closed = 1;
nodes = (
"499 313 LINE",
"400 0 LINE",
"451 0 LINE",
"714 813 LINE",
"790 1082 LINE",
"742 1082 LINE"
);
},
{
closed = 1;
nodes = (
"145 1082 LINE",
"83 1082 LINE",
"397 0 LINE",
"446 0 LINE",
"366 313 LINE"
);
},
{
closed = 1;
nodes = (
"1173 313 LINE",
"1092 0 LINE",
"1141 0 LINE",
"1456 1082 LINE",
"1393 1082 LINE"
);
},
{
closed = 1;
nodes = (
"797 1082 LINE",
"749 1082 LINE",
"820 813 LINE",
"1087 0 LINE",
"1138 0 LINE",
"1039 313 LINE"
);
}
);
width = 1550;
},
{
anchors = (
{
name = bottom;
position = "{766, 10}";
},
{
name = bottom_dd;
position = "{1538, -407}";
},
{
name = marktop;
position = "{763, 1290}";
},
{
name = top;
position = "{763, 1290}";
},
{
name = top0315;
position = "{1538, 1290}";
},
{
name = top_dd;
position = "{1538, 1600}";
}
);
layerId = "3A1161A8-2FC1-4350-92D1-D5E808DF9456";
paths = (
{
closed = 1;
nodes = (
"406 182 LINE",
"388 0 LINE",
"514 0 LINE",
"799 913 LINE",
"818 1082 LINE",
"687 1082 LINE"
);
},
{
closed = 1;
nodes = (
"237 1082 LINE",
"39 1082 LINE",
"353 0 LINE",
"486 0 LINE",
"476 171 LINE"
);
},
{
closed = 1;
nodes = (
"1071 178 LINE",
"1049 0 LINE",
"1181 0 LINE",
"1495 1082 LINE",
"1297 1082 LINE"
);
},
{
closed = 1;
nodes = (
"847 1082 LINE",
"708 1082 LINE",
"727 915 LINE",
"1020 0 LINE",
"1146 0 LINE",
"1122 198 LINE"
);
}
);
width = 1538;
},
{
anchors = (
{
name = bottom;
position = "{748, 10}";
},
{
name = bottom_dd;
position = "{1493, -407}";
},
{
name = marktop;
position = "{745, 1290}";
},
{
name = top;
position = "{745, 1290}";
},
{
name = top0315;
position = "{1493, 1290}";
},
{
name = top_dd;
position = "{1493, 1600}";
}
);
layerId = "0FAE9C79-C14E-4D62-87C8-5A68E12B9849";
paths = (
{
closed = 1;
nodes = (
"422 322 LINE",
"392 0 LINE",
"557 0 LINE",
"764 701 LINE",
"833 1082 LINE",
"631 1082 LINE"
);
},
{
closed = 1;
nodes = (
"333 1082 LINE",
"24 1082 LINE",
"286 0 LINE",
"483 0 LINE",
"470 328 LINE"
);
},
{
closed = 1;
nodes = (
"1019 344 LINE",
"1007 0 LINE",
"1204 0 LINE",
"1465 1082 LINE",
"1156 1082 LINE"
);
},
{
closed = 1;
nodes = (
"858 1082 LINE",
"661 1082 LINE",
"727 699 LINE",
"932 0 LINE",
"1098 0 LINE",
"1068 324 LINE"
);
}
);
width = 1493;
}
);
unicode = 0077;
},
{
glyphname = x;
lastChange = "2016-01-02 15:30:31 +0000";
layers = (
{
anchors = (
{
name = bottom;
position = "{514, 10}";
},
{
name = bottom_dd;
position = "{978, -407}";
},
{
name = cross;
position = "{499, 553}";
},
{
name = right;
position = "{890, 0}";
},
{
name = top;
position = "{507, 1280}";
},
{
name = top0315;
position = "{978, 1280}";
},
{
name = top_dd;
position = "{978, 1600}";
}
);
guideLines = (
{
position = "{0, 901}";
},
{
position = "{0, 555}";
},
{
angle = 90;
position = "{547, 0}";
}
);
layerId = "445B0B85-2678-4800-8A4D-B1A9856CF63B";
paths = (
{
closed = 1;
nodes = (
"143 1082 LINE",
"75 1082 LINE",
"455 555 LINE",
"55 0 LINE",
"122 0 LINE",
"488 508 LINE",
"855 0 LINE",
"922 0 LINE",
"522 555 LINE",
"902 1082 LINE",
"834 1082 LINE",
"489 602 LINE"
);
}
);
width = 978;
},
{
anchors = (
{
name = bottom;
position = "{511, 10}";
},
{
name = bottom_dd;
position = "{1020, -407}";
},
{
name = cross;
position = "{508, 553}";
},
{
name = right;
position = "{866, 0}";
},
{
name = top;
position = "{508, 1280}";
},
{
name = top0315;
position = "{1020, 1280}";
},
{
name = top_dd;
position = "{1020, 1600}";
}
);
guideLines = (
{
position = "{0, 901}";
},
{
position = "{0, 555}";
},
{
angle = 90;
position = "{544, 0}";
}
);
layerId = "3A1161A8-2FC1-4350-92D1-D5E808DF9456";
paths = (
{
closed = 1;
nodes = (
"280 1082 LINE",
"50 1082 LINE",
"401 547 LINE",
"40 0 LINE",
"272 0 LINE",
"509 397 LINE",
"746 0 LINE",
"976 0 LINE",
"615 547 LINE",
"966 1082 LINE",
"733 1082 LINE",
"505 695 LINE"
);
}
);
width = 1020;
},
{
anchors = (
{
name = bottom;
position = "{529, 10}";
},
{
name = bottom_dd;
position = "{1051, -407}";
},
{
name = cross;
position = "{531, 551}";
},
{
name = right;
position = "{869, 0}";
},
{
name = top;
position = "{530, 1280}";
},
{
name = top0315;
position = "{1051, 1280}";
},
{
name = top_dd;
position = "{1051, 1600}";
}
);
guideLines = (
{
position = "{0, 901}";
},
{
position = "{0, 555}";
},
{
angle = 90;
position = "{530, 0}";
},
{
angle = 118;
position = "{614, 0}";
},
{
angle = 118;
position = "{944, 0}";
},
{
angle = 62;
position = "{114, 0}";
},
{
angle = 62;
position = "{362, 0}";
}
);
layerId = "0FAE9C79-C14E-4D62-87C8-5A68E12B9849";
paths = (
{
closed = 1;
nodes = (
"370 1082 LINE",
"30 1082 LINE",
"321 555 LINE",
"15 0 LINE",
"355 0 LINE",
"530 320 LINE",
"707 0 LINE",
"1046 0 LINE",
"740 555 LINE",
"1032 1082 LINE",
"695 1082 LINE",
"530 784 LINE"
);
}
);
width = 1051;
}
);
unicode = 0078;
userData = {
com.typemytype.robofont.guides = (
{
angle = 0;
isGlobal = 0;
magnetic = 5;
x = 0;
y = 901;
},
{
angle = 0;
isGlobal = 0;
magnetic = 5;
x = 0;
y = 555;
},
{
angle = 90;
isGlobal = 0;
magnetic = 5;
x = 547;
y = 0;
}
);
};
},
